<svg xmlns="http://www.w3.org/2000/svg" width="40" height="40" viewBox="0 0 40 40">
    <path fill-rule="evenodd" clip-rule="evenodd"
        d="M12.3957 13.4793C12.6833 13.1439 13.1883 13.105 13.5238 13.3926L20.0031 18.9463L26.4825 13.3926C26.818 13.105 27.323 13.1439 27.6105 13.4793C27.8981 13.8148 27.8592 14.3198 27.5238 14.6074L21.2324 20L27.5238 25.3926C27.8592 25.6801 27.8981 26.1851 27.6105 26.5206C27.323 26.8561 26.818 26.8949 26.4825 26.6074L20.0031 21.0536L13.5238 26.6074C13.1883 26.8949 12.6833 26.8561 12.3957 26.5206C12.1082 26.1851 12.147 25.6801 12.4825 25.3926L18.7739 20L12.4825 14.6074C12.147 14.3198 12.1082 13.8148 12.3957 13.4793Z" />
</svg>