<svg xmlns="http://www.w3.org/2000/svg" width="40" height="40" viewBox="0 0 40 40">
    <path fill-rule="evenodd" clip-rule="evenodd"
        d="M11.1992 18.8572C11.1992 14.6282 14.6274 11.2 18.8564 11.2C23.0853 11.2 26.5135 14.6282 26.5135 18.8572C26.5135 20.6835 25.8741 22.3604 24.807 23.6764L28.5649 27.4343C28.8773 27.7467 28.8773 28.2533 28.5649 28.5657C28.2525 28.8781 27.746 28.8781 27.4335 28.5657L23.6756 24.8078C22.3596 25.8749 20.6827 26.5143 18.8564 26.5143C14.6274 26.5143 11.1992 23.0861 11.1992 18.8572ZM18.8564 12.8C15.5111 12.8 12.7992 15.5119 12.7992 18.8572C12.7992 22.2024 15.5111 24.9143 18.8564 24.9143C22.2016 24.9143 24.9135 22.2024 24.9135 18.8572C24.9135 15.5119 22.2016 12.8 18.8564 12.8Z" />
</svg>