<svg xmlns="http://www.w3.org/2000/svg" width="42" height="42" viewBox="0 0 42 42">

    <path fill-rule="evenodd" clip-rule="evenodd"
        d="M13.1992 20C13.1992 16.2444 16.2437 13.2 19.9992 13.2C23.7548 13.2 26.7992 16.2444 26.7992 20C26.7992 21.5894 26.2539 23.0516 25.34 24.2094L28.5649 27.4343L27.4335 28.5656L24.2087 25.3408C23.0508 26.2546 21.5887 26.8 19.9992 26.8C16.2437 26.8 13.1992 23.7555 13.1992 20ZM19.9992 14.8C17.1273 14.8 14.7992 17.1281 14.7992 20C14.7992 22.8718 17.1273 25.2 19.9992 25.2C22.8711 25.2 25.1992 22.8718 25.1992 20C25.1992 17.1281 22.8711 14.8 19.9992 14.8Z" />
</svg>