<svg xmlns="http://www.w3.org/2000/svg" width="28" height="28" viewBox="0 0 28 28">
    <path fill-rule="evenodd" clip-rule="evenodd"
        d="M15.2988 8.14435C15.9035 7.53966 16.7236 7.19995 17.5788 7.19995C19.3595 7.19995 20.8031 8.64355 20.8031 10.4243C20.8031 11.2795 20.4634 12.0996 19.8587 12.7043L17.1402 15.4228L16.0089 14.2914L18.7274 11.5729C19.032 11.2683 19.2031 10.8551 19.2031 10.4243C19.2031 9.5272 18.4759 8.79995 17.5788 8.79995C17.148 8.79995 16.7348 8.97109 16.4302 9.27572L13.7117 11.9942L12.5803 10.8628L15.2988 8.14435ZM17.1402 11.9942L11.9974 17.1371L10.866 16.0057L16.0089 10.8628L17.1402 11.9942ZM11.9974 13.7085L9.27889 16.427C8.97426 16.7316 8.80313 17.1448 8.80313 17.5756C8.80313 18.4727 9.53038 19.2 10.4275 19.2C10.8583 19.2 11.2715 19.0288 11.5761 18.7242L14.2946 16.0057L15.426 17.1371L12.7075 19.8556C12.1028 20.4602 11.2826 20.8 10.4275 20.8C8.64672 20.8 7.20312 19.3564 7.20312 17.5756C7.20312 16.7204 7.54283 15.9003 8.14752 15.2956L10.866 12.5771L11.9974 13.7085Z" />
</svg>