<svg width="98" height="98" viewBox="0 0 98 98" fill="none" xmlns="http://www.w3.org/2000/svg">
<mask id="mask0_1905_3779" style="mask-type:alpha" maskUnits="userSpaceOnUse" x="0" y="0" width="98" height="98">
<rect x="0.84375" y="0.438965" width="97" height="97" fill="#D9D9D9"/>
</mask>
<g mask="url(#mask0_1905_3779)">
<path d="M43.6461 0.438965C45.3024 1.93136 47.6999 5.0017 47.6999 7.28307V11.1633C47.6999 13.842 57.9426 15.2108 58.431 16.4865C59.3402 18.8781 56.3867 20.1481 56.1994 21.5169C57.0604 23.2032 57.6395 22.9922 58.0854 23.4789C58.8054 24.2679 58.0854 25.5492 58.0854 25.5492C58.0854 25.5492 59.5023 25.7393 59.7552 26.7698C60.0081 27.8002 58.8383 28.6918 58.8383 29.726C58.8383 30.7603 62.4693 32.1025 62.5195 34.9409C62.618 40.4542 52.6958 40.1861 51.1843 40.9827C50.7538 41.2108 50.1457 41.785 50.1457 43.1272V48.9371C50.1457 51.2546 48.1111 53.88 48.1111 55.7698C48.1111 62.5378 63.8438 67.439 63.8438 97.439H-19.1562V0.438965H43.6461Z" fill="#8293A6"/>
</g>
</svg>
