<svg width="132" height="26" viewBox="0 0 132 26" fill="none" xmlns="http://www.w3.org/2000/svg">
<path d="M64.9974 12.4542C66.3698 12.4542 67.0561 13.2714 67.0561 14.9059H62.6789C62.9054 13.2759 63.6783 12.4586 64.9974 12.4542ZM58.3817 23.4936C60.1583 25.0659 62.6012 25.8521 65.7103 25.8521C67.2266 25.8731 68.7363 25.6481 70.1807 25.1859C71.5098 24.7488 72.7473 24.0713 73.8316 23.1872L71.8329 18.7234C70.3987 19.7608 68.6659 20.3033 66.8962 20.2691C66.0015 20.2984 65.1135 20.1062 64.3112 19.7094C63.9609 19.5235 63.6511 19.27 63.3995 18.9635C63.1479 18.657 62.9596 18.3037 62.8455 17.9239H73.9515V16.5915C73.9814 15.0013 73.6296 13.4272 72.9255 12.0011C72.2601 10.6798 71.2225 9.58211 69.9408 8.84322C68.516 8.05351 66.9056 7.66011 65.2772 7.70396C63.5464 7.66326 61.833 8.05724 60.2938 8.84988C58.8889 9.58283 57.7202 10.6985 56.9227 12.0678C56.1122 13.487 55.6959 15.0971 55.7168 16.7314C55.7168 19.6495 56.6051 21.8969 58.3817 23.4736M84.8377 0.38875H75.5572V4.25289H77.4493V21.1285H75.5572V25.4257H86.7232V21.1285H84.8377V0.38875ZM123.393 19.3697C123.125 19.6538 122.803 19.8802 122.445 20.035C122.087 20.1898 121.701 20.2697 121.311 20.2697C120.92 20.2697 120.535 20.1898 120.176 20.035C119.818 19.8802 119.496 19.6538 119.229 19.3697C118.686 18.6083 118.421 17.6845 118.476 16.7514C118.416 15.8332 118.675 14.9225 119.209 14.1731C119.48 13.8887 119.806 13.6623 120.167 13.5076C120.529 13.3529 120.918 13.2731 121.311 13.2731C121.704 13.2731 122.092 13.3529 122.454 13.5076C122.815 13.6623 123.141 13.8887 123.412 14.1731C123.946 14.9225 124.205 15.8332 124.145 16.7514C124.2 17.6845 123.935 18.6083 123.393 19.3697ZM129.815 11.9812C129.015 10.6112 127.828 9.50802 126.404 8.80991C124.808 8.07245 123.072 7.69051 121.314 7.69051C119.556 7.69051 117.819 8.07245 116.224 8.80991C114.798 9.50793 113.609 10.611 112.806 11.9812C111.987 13.4353 111.573 15.0826 111.607 16.7514C111.572 18.4181 111.986 20.0635 112.806 21.5149C113.609 22.8912 114.797 24.0028 116.224 24.7128C117.816 25.4631 119.554 25.8522 121.314 25.8522C123.074 25.8522 124.812 25.4631 126.404 24.7128C127.829 24.0027 129.014 22.891 129.815 21.5149C130.635 20.0635 131.049 18.4181 131.014 16.7514C131.048 15.0826 130.634 13.4353 129.815 11.9812ZM36.4361 5.54537H39.3542C41.4728 5.54537 43.0118 6.15387 43.9712 7.37085C44.9305 8.58783 45.4102 10.4133 45.4102 12.8473C45.4102 15.3323 44.9305 17.1977 43.9712 18.4236C43.0118 19.6495 41.4728 20.2757 39.3542 20.2757H36.4361V5.54537ZM27.8484 25.4257H40.9865C45.3347 25.4257 48.6481 24.302 50.9266 22.0546C53.2051 19.8072 54.3444 16.738 54.3444 12.8473C54.3875 10.6014 53.87 8.38032 52.8387 6.38483C51.8236 4.4849 50.249 2.9429 48.3283 1.96772C46.0471 0.848695 43.5261 0.306522 40.9865 0.38875H25.7031V5.54537H27.8484V25.4257ZM110.887 21.1218H109.555L104.798 15.792L109.168 12.4076H110.668V8.13701H100.647V12.4209H102.533L97.5628 16.2384V0.38875H88.3554V4.67261H90.2409V21.1218H88.3554V25.399H99.4482V21.1218H97.5628V16.9646L104.505 25.399H110.887V21.1218Z" fill="white"/>
<path d="M15.3944 5.54541H0.664062V20.2758H15.3944V5.54541Z" fill="white"/>
<path d="M20.5472 0.388672H15.3906V5.5453H20.5472V0.388672Z" fill="white"/>
</svg>
