<svg width="1920" height="980" viewBox="0 0 1920 980" fill="none" xmlns="http://www.w3.org/2000/svg">
<path fill-rule="evenodd" clip-rule="evenodd" d="M1920 0H506.957C523.689 15.0778 547.91 46.0978 547.91 69.1466V108.349C547.91 124.763 585.973 136.309 617.028 145.729C637.177 151.841 654.376 157.058 656.317 162.13C662.112 177.372 652.377 188.105 643.926 197.424L643.925 197.424C638.979 202.878 634.472 207.847 633.774 212.952C639.798 224.752 644.456 227.357 648.247 229.477C649.93 230.418 651.442 231.263 652.827 232.774C660.101 240.746 652.827 253.691 652.827 253.691C652.827 253.691 667.141 255.612 669.695 266.023C671.089 271.703 668.204 276.966 665.294 282.273C662.872 286.693 660.432 291.143 660.432 295.89C660.432 299.841 665.678 304.238 672.23 309.728C683.003 318.757 697.306 330.744 697.621 348.576C698.374 390.761 641.066 399.444 606.575 404.67C595.524 406.345 586.815 407.664 583.11 409.617C578.761 411.922 572.618 417.723 572.618 431.283V489.981C572.618 502.284 566.942 515.447 561.556 527.939C556.692 539.219 552.064 549.953 552.064 559.012C552.064 581.032 568.545 601.095 590.893 628.3C637.944 685.577 710.999 774.51 710.999 980H1920V0Z" fill="black"/>
</svg>
