<svg width="1920" height="980" viewBox="0 0 1920 980" fill="none" xmlns="http://www.w3.org/2000/svg">
<path fill-rule="evenodd" clip-rule="evenodd" d="M547.911 69.1466C547.911 46.0978 523.69 15.0778 506.958 0H0V980H711C711 774.51 637.945 685.577 590.894 628.3C568.546 601.095 552.065 581.032 552.065 559.012C552.065 549.953 556.693 539.219 561.557 527.939C566.943 515.447 572.619 502.284 572.619 489.981V431.283C572.619 417.723 578.762 411.922 583.111 409.617C586.816 407.664 595.525 406.345 606.576 404.67C641.067 399.444 698.376 390.761 697.622 348.576C697.307 330.744 683.004 318.757 672.231 309.728C665.679 304.238 660.433 299.841 660.433 295.89C660.433 291.143 662.873 286.693 665.296 282.273C668.205 276.966 671.09 271.703 669.697 266.023C667.142 255.612 652.828 253.691 652.828 253.691C652.828 253.691 660.102 240.746 652.828 232.774C651.443 231.263 649.931 230.418 648.248 229.477C644.457 227.357 639.799 224.752 633.775 212.952C634.474 207.847 638.98 202.878 643.927 197.424C652.378 188.105 662.113 177.372 656.319 162.13C654.377 157.058 637.178 151.841 617.03 145.729C585.974 136.309 547.911 124.763 547.911 108.349V69.1466Z" fill="black"/>
</svg>
