<svg width="1920" height="980" viewBox="0 0 1920 980" fill="none" xmlns="http://www.w3.org/2000/svg">
<path fill-rule="evenodd" clip-rule="evenodd" d="M1920 0H306.875C323.609 15.0781 347.828 46.0977 347.828 69.1465V108.349C347.828 124.763 385.891 136.309 416.949 145.729C437.098 151.841 454.297 157.058 456.238 162.13C462.031 177.373 452.297 188.105 443.844 197.424C438.898 202.878 434.391 207.847 433.691 212.953C439.719 224.752 444.375 227.357 448.168 229.477C449.848 230.417 451.359 231.263 452.746 232.774C460.02 240.746 452.746 253.691 452.746 253.691C452.746 253.691 467.059 255.612 469.613 266.022C471.008 271.703 468.125 276.966 465.215 282.273C462.789 286.692 460.352 291.143 460.352 295.89C460.352 299.841 465.598 304.238 472.148 309.729C482.922 318.757 497.227 330.744 497.539 348.576C498.293 390.761 440.984 399.444 406.492 404.67C395.441 406.345 386.734 407.664 383.027 409.617C378.68 411.922 372.535 417.723 372.535 431.283V489.981C372.535 502.284 366.859 515.447 361.477 527.939C356.609 539.219 351.984 549.953 351.984 559.012C351.984 581.032 368.465 601.095 390.812 628.3C437.863 685.577 510.918 774.51 510.918 980H1920V0Z" fill="black"/>
</svg>
