<svg xmlns="http://www.w3.org/2000/svg" width="56" height="56" viewBox="0 0 56 56" fill="none">
    <circle cx="28" cy="28" r="28" fill="#F9872E" />
    <path
        d="M32.1393 17.2388V21.5999C32.1393 24.6474 31.3704 25.8135 31.3704 25.8135C30.3254 27.4674 28.7812 28.1191 28.7812 28.1191C28.7812 28.1191 30.3254 28.7709 31.3704 30.4248C31.3704 30.4248 32.1393 31.5909 32.1393 34.6384V39H39.2581V17.2388H32.1393Z"
        fill="white" />
    <path
        d="M26.79 34.6229C26.79 34.6229 26.9474 30.8046 23.707 30.4011C23.707 30.4011 23.4863 30.3851 23.248 30.3803C23.0195 30.3754 22.7547 30.3716 22.7547 30.3716V28.1196V25.8677C22.7547 25.8677 23.0195 25.8638 23.248 25.859C23.4863 25.8536 23.707 25.8382 23.707 25.8382C26.9474 25.4346 26.79 21.6164 26.79 21.6164V17.2388H17.2031V39H26.79V34.6229Z"
        fill="white" />
</svg>