<svg width="552" height="601" viewBox="0 0 552 601" fill="none" xmlns="http://www.w3.org/2000/svg">
<path fill-rule="evenodd" clip-rule="evenodd" d="M551.594 0.276855H329.031C339.273 9.50806 354.102 28.5 354.102 42.6116V66.613C354.102 76.6624 377.406 83.7312 396.422 89.4988C408.758 93.2407 419.285 96.4351 420.477 99.54C424.023 108.872 418.062 115.443 412.887 121.149C409.859 124.488 407.102 127.53 406.672 130.656C410.363 137.88 413.215 139.475 415.535 140.773C416.566 141.349 417.492 141.866 418.34 142.792C422.793 147.672 418.34 155.598 418.34 155.598C418.34 155.598 427.102 156.774 428.668 163.148C429.52 166.626 427.754 169.848 425.973 173.097C424.488 175.803 422.996 178.527 422.996 181.434C422.996 183.853 426.207 186.545 430.219 189.906C436.812 195.434 445.57 202.773 445.762 213.691C446.227 239.518 411.137 244.834 390.02 248.034C383.254 249.059 377.922 249.867 375.656 251.063C372.992 252.474 369.23 256.025 369.23 264.328V300.265C369.23 307.798 365.758 315.857 362.457 323.505C359.48 330.411 356.648 336.983 356.648 342.529C356.648 356.01 366.738 368.294 380.418 384.95C409.227 420.018 453.953 474.467 453.953 600.277H551.594V0.276855Z" fill="black"/>
</svg>
