<svg width="552" height="600" viewBox="0 0 552 600" fill="none" xmlns="http://www.w3.org/2000/svg">
<mask id="mask0_1608_3051" style="mask-type:alpha" maskUnits="userSpaceOnUse" x="0" y="0" width="552" height="601">
<rect x="0.902344" y="0.00732422" width="551" height="600" fill="#E8D9CD"/>
</mask>
<g mask="url(#mask0_1608_3051)">
<path d="M329.339 0.00732422C339.583 9.23864 354.412 28.2304 354.412 42.342V66.3434C354.412 82.9127 417.763 91.3797 420.784 99.2704C426.408 114.064 408.14 121.919 406.982 130.386C412.307 140.817 415.889 139.512 418.647 142.522C423.1 147.403 418.647 155.329 418.647 155.329C418.647 155.329 427.411 156.505 428.975 162.878C430.539 169.252 423.303 174.767 423.303 181.164C423.303 187.562 445.762 195.864 446.072 213.421C446.681 247.524 385.312 245.866 375.963 250.793C373.3 252.204 369.539 255.756 369.539 264.058V299.996C369.539 314.331 356.955 330.571 356.955 342.26C356.955 384.124 454.263 414.44 454.263 600.007H-59.0977V0.00732422H329.339Z" fill="black"/>
</g>
</svg>
