<svg xmlns="http://www.w3.org/2000/svg" width="16" height="37" viewBox="0 0 16 37" fill="none">
    <path
        d="M11.7999 17.6035C11.3166 17.9478 10.803 18.2489 10.2654 18.5033C12.0727 19.3828 13.5992 20.7363 14.6771 22.4152C14.6771 22.4152 16 24.4102 16 29.587V37H6.87888V29.5739C6.87888 29.5739 7.14345 23.0541 1.6205 22.4021C1.6205 22.4021 1.2501 22.3695 0.853245 22.35H0V14.6826C0 14.6826 0.456387 14.6826 0.853245 14.6826C1.2501 14.6826 1.6205 14.6826 1.6205 14.6826C7.14345 13.985 6.91195 7.51084 6.91195 7.51084V0H15.9868V7.42608C15.9868 12.6419 14.6639 14.5979 14.6639 14.5979C13.9058 15.7656 12.9348 16.7846 11.7999 17.6035Z"
        fill="white" />
</svg>