<svg width="690" height="500" viewBox="0 0 690 500" fill="none" xmlns="http://www.w3.org/2000/svg">
<path d="M586.514 0C595 7.69276 607.284 23.5193 607.284 35.2789V55.2801C607.284 69.0878 659.764 76.1436 662.267 82.7192C666.925 95.0472 651.792 101.593 650.833 108.649C655.244 117.342 658.211 116.254 660.496 118.762C664.185 122.829 660.496 129.434 660.496 129.434C660.496 129.434 667.756 130.414 669.052 135.726C670.347 141.037 664.354 145.633 664.354 150.964C664.354 156.295 682.958 163.214 683.215 177.845C683.719 206.264 632.881 204.882 625.137 208.988C622.931 210.164 619.816 213.124 619.816 220.042V249.99C619.816 261.936 609.391 275.469 609.391 285.21C609.391 320.097 690 345.361 690 500H-10V0H586.514Z" fill="black"/>
</svg>
