<svg width="139" height="49" viewBox="0 0 139 49" fill="none" xmlns="http://www.w3.org/2000/svg">
<path d="M1 33.2492V17.2047C1 16.9677 1.23068 16.7963 1.46281 16.861L5.86805 18.088C6.02449 18.1316 6.13247 18.2719 6.13247 18.4317V29.5763C6.13247 29.7298 6.23236 29.8662 6.38052 29.9149L17.0373 33.4236C17.1853 33.4725 17.2853 33.6088 17.2853 33.7624V38.4263C17.2853 38.6708 17.0408 38.843 16.805 38.7645L1.24697 33.5875C1.09934 33.5383 1 33.4022 1 33.2492Z" fill="#8068BC"/>
<path d="M10.5519 13.8071L6.99914 12.6521C6.91042 12.6232 6.8138 12.629 6.72934 12.6683L2.15342 14.796C1.85085 14.9367 1.88616 15.3703 2.20767 15.4619L6.25123 16.6145C6.34191 16.6403 6.43926 16.6305 6.5227 16.587L10.6078 14.4619C10.8909 14.3147 10.856 13.9059 10.5519 13.8071Z" fill="#FDCD56"/>
<path d="M17.2852 27.4039V11.3575C17.2852 11.1205 17.5158 10.9492 17.7479 11.0138L22.1531 12.2408C22.3095 12.2844 22.4175 12.4248 22.4175 12.5845V23.9861V28.9033C22.4175 29.149 22.1713 29.3213 21.935 29.2408L17.5297 27.7414C17.3834 27.6915 17.2852 27.5561 17.2852 27.4039Z" fill="#D971B0"/>
<path d="M35.0156 23.123C35.0156 22.1346 35.1811 21.239 35.5122 20.4362C35.8433 19.6222 36.2987 18.9302 36.878 18.3601C37.4693 17.7901 38.1669 17.354 38.9711 17.0515C39.787 16.7375 40.6798 16.5805 41.6495 16.5805C42.631 16.5688 43.5297 16.7142 44.3456 17.0166C45.1616 17.3074 45.8651 17.7378 46.4563 18.3077C47.0476 18.8779 47.5088 19.5637 47.8399 20.3665C48.171 21.1693 48.3365 22.0649 48.3365 23.0533C48.3365 24.0187 48.171 24.8968 47.8399 25.6878C47.5088 26.4788 47.0476 27.1595 46.4563 27.7294C45.8651 28.2993 45.1616 28.7471 44.3456 29.0728C43.5297 29.3867 42.631 29.5499 41.6495 29.5611C40.6798 29.5611 39.787 29.4098 38.9711 29.1076C38.1669 28.7938 37.4693 28.3572 36.878 27.7992C36.2987 27.2293 35.8433 26.5485 35.5122 25.7576C35.1811 24.9666 35.0156 24.0884 35.0156 23.123ZM37.357 22.9835C37.357 23.6468 37.4574 24.2572 37.6585 24.8159C37.8713 25.3739 38.1669 25.8566 38.5453 26.2639C38.9238 26.6706 39.3731 26.9907 39.8935 27.2231C40.4255 27.4559 41.0168 27.5724 41.6672 27.5724C42.3176 27.5724 42.9089 27.4559 43.4409 27.2231C43.9731 26.9907 44.4283 26.6706 44.8068 26.2639C45.1852 25.8566 45.475 25.3739 45.6759 24.8159C45.8888 24.2572 45.9952 23.6468 45.9952 22.9835C45.9952 22.3669 45.8888 21.7915 45.6759 21.2565C45.475 20.7215 45.1852 20.2562 44.8068 19.8607C44.4283 19.4534 43.9731 19.1395 43.4409 18.9184C42.9089 18.6858 42.3176 18.5695 41.6672 18.5695C41.0168 18.5695 40.4255 18.6858 39.8935 18.9184C39.3731 19.1395 38.9238 19.4534 38.5453 19.8607C38.1669 20.2562 37.8713 20.7215 37.6585 21.2565C37.4574 21.7915 37.357 22.3669 37.357 22.9835Z" fill="#474747"/>
<path d="M50.1914 20.8874H52.2052V22.14H52.2405C52.5468 21.6301 52.9591 21.2588 53.4772 21.0272C53.9953 20.7949 54.5548 20.6788 55.1554 20.6788C55.8032 20.6788 56.3862 20.7949 56.9043 21.0272C57.4225 21.247 57.8642 21.5544 58.2294 21.9487C58.5945 22.3431 58.8711 22.807 59.0596 23.3404C59.2481 23.8739 59.3423 24.4483 59.3423 25.0631C59.3423 25.6779 59.2422 26.2517 59.0419 26.7852C58.8417 27.3186 58.559 27.7826 58.1939 28.1768C57.8406 28.5711 57.4108 28.8842 56.9043 29.1164C56.3978 29.3368 55.8444 29.4469 55.2437 29.4469C54.8433 29.4469 54.49 29.4065 54.1838 29.3252C53.8776 29.2437 53.6067 29.1394 53.3711 29.0121C53.1357 28.8842 52.9354 28.7513 52.7706 28.6115C52.6056 28.4612 52.4701 28.3159 52.3643 28.1768H52.3112V33.2045H50.1914V20.8874ZM57.2223 25.0631C57.2223 24.7383 57.1635 24.4253 57.0457 24.1235C56.9396 23.8217 56.7748 23.5553 56.551 23.323C56.3391 23.0914 56.08 22.9057 55.7737 22.7666C55.4675 22.6275 55.1201 22.5579 54.7315 22.5579C54.3427 22.5579 53.9953 22.6275 53.6891 22.7666C53.383 22.9057 53.118 23.0914 52.8942 23.323C52.6823 23.5553 52.5173 23.8217 52.3995 24.1235C52.2935 24.4253 52.2405 24.7383 52.2405 25.0631C52.2405 25.3879 52.2935 25.7009 52.3995 26.0021C52.5173 26.3039 52.6823 26.5709 52.8942 26.8025C53.118 27.0348 53.383 27.2199 53.6891 27.3596C53.9953 27.4987 54.3427 27.5682 54.7315 27.5682C55.1201 27.5682 55.4675 27.4987 55.7737 27.3596C56.08 27.2199 56.3391 27.0348 56.551 26.8025C56.7748 26.5709 56.9396 26.3039 57.0457 26.0021C57.1635 25.7009 57.2223 25.3879 57.2223 25.0631Z" fill="#474747"/>
<path d="M60.3828 22.6204V20.8345H62.1471V18.4017H64.2856V20.8345H66.6378V22.6204H64.2856V26.2965C64.2856 26.7164 64.3627 27.0488 64.5172 27.2938C64.6835 27.5393 65.0043 27.6618 65.4795 27.6618C65.6696 27.6618 65.8775 27.6444 66.1032 27.6095C66.3289 27.5625 66.5072 27.4925 66.6378 27.3994V29.1672C66.4121 29.2721 66.1329 29.3421 65.8004 29.3771C65.4795 29.424 65.1944 29.447 64.9449 29.447C64.3747 29.447 63.9053 29.3828 63.537 29.2546C63.1806 29.1378 62.8955 28.9572 62.6817 28.7123C62.4798 28.4555 62.3372 28.1399 62.2539 27.7668C62.1827 27.3932 62.1471 26.9614 62.1471 26.4715V22.6204H60.3828Z" fill="#474747"/>
<path d="M68.3214 20.8877H70.3974V29.2204H68.3214V20.8877ZM68.0273 18.0584C68.0273 17.7228 68.1484 17.4335 68.3907 17.1904C68.6445 16.9358 68.9616 16.8085 69.3422 16.8085C69.7228 16.8085 70.04 16.93 70.2936 17.1731C70.5589 17.4045 70.6915 17.6996 70.6915 18.0584C70.6915 18.4171 70.5589 18.7181 70.2936 18.9611C70.04 19.1922 69.7228 19.3081 69.3422 19.3081C68.9616 19.3081 68.6445 19.1866 68.3907 18.9437C68.1484 18.6891 68.0273 18.394 68.0273 18.0584Z" fill="#474747"/>
<path d="M72.7773 20.887H74.8007V22.1888H74.8363C75.0256 21.796 75.3273 21.4483 75.7414 21.1478C76.1674 20.8349 76.7354 20.6788 77.4453 20.6788C78.7824 20.6788 79.6699 21.1937 80.1077 22.2241C80.4154 21.6912 80.7998 21.304 81.2614 21.0611C81.7228 20.8064 82.2731 20.6788 82.912 20.6788C83.4799 20.6788 83.9591 20.7717 84.3496 20.957C84.7401 21.1416 85.0537 21.3963 85.2904 21.7204C85.5387 22.0444 85.7163 22.4261 85.8227 22.866C85.9292 23.2942 85.9826 23.7571 85.9826 24.2546V29.2191H83.8527V24.4975C83.8527 24.2428 83.8291 24 83.7816 23.7688C83.7344 23.5259 83.6516 23.3171 83.5333 23.1436C83.4149 22.9584 83.2552 22.814 83.0539 22.7099C82.8529 22.6058 82.5925 22.5538 82.2731 22.5538C81.9417 22.5538 81.6577 22.617 81.4211 22.7446C81.1962 22.8605 81.007 23.0222 80.8532 23.2304C80.7112 23.4274 80.6046 23.6585 80.5337 23.925C80.4745 24.1796 80.4449 24.4399 80.4449 24.7057V29.2191H78.315V24.2546C78.315 23.7341 78.2026 23.3233 77.9779 23.0222C77.753 22.7099 77.3802 22.5538 76.8596 22.5538C76.5046 22.5538 76.2029 22.6114 75.9545 22.7272C75.7178 22.8431 75.5166 22.9993 75.3511 23.1957C75.1971 23.3927 75.0848 23.6183 75.0138 23.8729C74.9428 24.1276 74.9072 24.3934 74.9072 24.671V29.2191H72.7773V20.887Z" fill="#474747"/>
<path d="M93.5748 28.0899H93.5219C93.2162 28.5655 92.8281 28.9134 92.3577 29.1338C91.8873 29.3424 91.37 29.4469 90.8055 29.4469C90.4174 29.4469 90.0353 29.3946 89.659 29.2903C89.2946 29.186 88.9652 29.0295 88.6713 28.8208C88.3891 28.6115 88.1597 28.3507 87.9834 28.0378C87.8069 27.7247 87.7188 27.3596 87.7188 26.9417C87.7188 26.4895 87.8012 26.107 87.9657 25.7934C88.1304 25.4686 88.3479 25.2022 88.6183 24.9935C88.9005 24.7731 89.224 24.5992 89.5884 24.4713C89.9531 24.344 90.3292 24.2508 90.7173 24.1931C91.1171 24.1235 91.5169 24.0831 91.9167 24.0713C92.3166 24.0484 92.6928 24.0366 93.0456 24.0366H93.5748V23.8105C93.5748 23.2882 93.3925 22.9001 93.028 22.6449C92.6634 22.3779 92.1989 22.2449 91.6346 22.2449C91.1877 22.2449 90.7702 22.3257 90.3823 22.4884C89.9941 22.6393 89.659 22.8479 89.3768 23.1144L88.2656 22.0183C88.7359 21.5432 89.2827 21.201 89.906 20.9924C90.5409 20.7831 91.1935 20.6788 91.8638 20.6788C92.4636 20.6788 92.9693 20.7483 93.3807 20.8874C93.7923 21.0154 94.1333 21.1837 94.4037 21.3923C94.6743 21.601 94.88 21.8444 95.0212 22.1226C95.174 22.3896 95.2798 22.6623 95.3386 22.9405C95.4091 23.2187 95.4504 23.4913 95.462 23.7584C95.4738 24.0136 95.4798 24.2396 95.4798 24.4365V29.2381H93.5748V28.0899ZM93.4513 25.4978H93.0103C92.7163 25.4978 92.3871 25.5096 92.0226 25.5326C91.6581 25.5555 91.3112 25.6139 90.9818 25.7065C90.6643 25.7878 90.3939 25.9151 90.1706 26.0896C89.9472 26.2517 89.8354 26.4833 89.8354 26.7852C89.8354 26.9827 89.8766 27.1502 89.9588 27.2894C90.0529 27.4173 90.1706 27.5273 90.3117 27.6205C90.4527 27.7129 90.6115 27.7826 90.7878 27.829C90.9643 27.8639 91.1406 27.8813 91.3169 27.8813C92.0461 27.8813 92.5811 27.7129 92.9221 27.377C93.275 27.0285 93.4513 26.5591 93.4513 25.9673V25.4978Z" fill="#474747"/>
<path d="M103.635 23.3926C103.389 23.138 103.131 22.9349 102.862 22.784C102.592 22.6331 102.317 22.5579 102.036 22.5579C101.65 22.5579 101.304 22.6275 100.999 22.7666C100.695 22.9057 100.431 23.0914 100.209 23.323C99.9977 23.5553 99.8334 23.8217 99.716 24.1235C99.6107 24.4253 99.558 24.7383 99.558 25.0631C99.558 25.3879 99.6107 25.7009 99.716 26.0021C99.8334 26.3039 99.9977 26.5709 100.209 26.8025C100.431 27.0348 100.695 27.2199 100.999 27.3596C101.304 27.4987 101.65 27.5682 102.036 27.5682C102.364 27.5682 102.669 27.5043 102.95 27.377C103.231 27.2373 103.471 27.0403 103.67 26.7852L105.077 28.2812C104.865 28.4898 104.619 28.67 104.338 28.8208C104.069 28.9711 103.794 29.0934 103.512 29.186C103.231 29.2785 102.962 29.3424 102.704 29.3772C102.446 29.4239 102.224 29.4469 102.036 29.4469C101.404 29.4469 100.806 29.3424 100.244 29.1338C99.681 28.9252 99.1947 28.6289 98.7851 28.2464C98.3748 27.8639 98.0467 27.4055 97.8008 26.8721C97.5665 26.3268 97.4492 25.7238 97.4492 25.0631C97.4492 24.4017 97.5665 23.8043 97.8008 23.2709C98.0467 22.7262 98.3748 22.2623 98.7851 21.8792C99.1947 21.4966 99.681 21.201 100.244 20.9924C100.806 20.7831 101.404 20.6788 102.036 20.6788C102.575 20.6788 103.114 20.7831 103.653 20.9924C104.203 21.1892 104.684 21.5084 105.094 21.9487L103.635 23.3926Z" fill="#474747"/>
<path d="M106.371 20.887H108.499V22.2068H108.535C108.771 21.7204 109.108 21.3442 109.546 21.0784C109.983 20.812 110.485 20.6788 111.053 20.6788C111.182 20.6788 111.306 20.6905 111.425 20.7135C111.555 20.737 111.685 20.7655 111.815 20.8002V22.814C111.637 22.7675 111.46 22.7328 111.283 22.7099C111.118 22.6752 110.952 22.6578 110.787 22.6578C110.29 22.6578 109.888 22.7502 109.581 22.9354C109.285 23.1089 109.055 23.3115 108.889 23.5433C108.735 23.7744 108.629 24.0062 108.57 24.2373C108.523 24.469 108.499 24.6425 108.499 24.7578V29.2191H106.371V20.887Z" fill="#474747"/>
<path d="M112.512 25.0631C112.512 24.4017 112.63 23.8043 112.867 23.2709C113.115 22.7262 113.446 22.2623 113.861 21.8792C114.275 21.4966 114.766 21.201 115.334 20.9924C115.902 20.7831 116.506 20.6788 117.145 20.6788C117.784 20.6788 118.388 20.7831 118.956 20.9924C119.524 21.201 120.015 21.4966 120.429 21.8792C120.843 22.2623 121.169 22.7262 121.405 23.2709C121.654 23.8043 121.779 24.4017 121.779 25.0631C121.779 25.7238 121.654 26.3268 121.405 26.8721C121.169 27.4055 120.843 27.8639 120.429 28.2464C120.015 28.6289 119.524 28.9252 118.956 29.1338C118.388 29.3424 117.784 29.4469 117.145 29.4469C116.506 29.4469 115.902 29.3424 115.334 29.1338C114.766 28.9252 114.275 28.6289 113.861 28.2464C113.446 27.8639 113.115 27.4055 112.867 26.8721C112.63 26.3268 112.512 25.7238 112.512 25.0631ZM114.642 25.0631C114.642 25.3879 114.695 25.7009 114.801 26.0021C114.92 26.3039 115.086 26.5709 115.299 26.8025C115.524 27.0348 115.79 27.2199 116.097 27.3596C116.405 27.4987 116.755 27.5682 117.145 27.5682C117.536 27.5682 117.884 27.4987 118.192 27.3596C118.5 27.2199 118.76 27.0348 118.974 26.8025C119.198 26.5709 119.364 26.3039 119.471 26.0021C119.589 25.7009 119.648 25.3879 119.648 25.0631C119.648 24.7383 119.589 24.4253 119.471 24.1235C119.364 23.8217 119.198 23.5553 118.974 23.323C118.76 23.0914 118.5 22.9057 118.192 22.7666C117.884 22.6275 117.536 22.5579 117.145 22.5579C116.755 22.5579 116.405 22.6275 116.097 22.7666C115.79 22.9057 115.524 23.0914 115.299 23.323C115.086 23.5553 114.92 23.8217 114.801 24.1235C114.695 24.4253 114.642 24.7383 114.642 25.0631Z" fill="#474747"/>
<path d="M128.325 23.2013C127.913 22.6331 127.36 22.3493 126.667 22.3493C126.384 22.3493 126.108 22.4188 125.838 22.5579C125.567 22.6971 125.432 22.9231 125.432 23.2361C125.432 23.4913 125.544 23.677 125.767 23.7931C125.99 23.9086 126.273 24.0074 126.614 24.0887C126.955 24.1701 127.319 24.257 127.707 24.3496C128.107 24.4309 128.477 24.5644 128.819 24.7495C129.16 24.924 129.442 25.1674 129.666 25.4804C129.889 25.7934 130.001 26.2225 130.001 26.7678C130.001 27.2665 129.889 27.6899 129.666 28.0378C129.454 28.3743 129.171 28.647 128.819 28.8556C128.477 29.0643 128.09 29.2151 127.654 29.3077C127.219 29.4002 126.784 29.4469 126.349 29.4469C125.69 29.4469 125.085 29.3542 124.532 29.1686C123.98 28.9829 123.486 28.647 123.051 28.1595L124.462 26.8547C124.732 27.1565 125.02 27.4055 125.326 27.603C125.644 27.7886 126.025 27.8813 126.472 27.8813C126.625 27.8813 126.784 27.8639 126.949 27.829C127.114 27.7942 127.267 27.7359 127.408 27.6551C127.549 27.5738 127.66 27.4751 127.743 27.3596C127.837 27.2317 127.884 27.087 127.884 26.9243C127.884 26.6342 127.772 26.42 127.549 26.2809C127.325 26.1418 127.043 26.0312 126.702 25.9499C126.361 25.8574 125.99 25.776 125.59 25.7065C125.202 25.6251 124.838 25.5034 124.497 25.3413C124.156 25.1674 123.874 24.9296 123.65 24.6278C123.427 24.3266 123.315 23.9086 123.315 23.3752C123.315 22.9113 123.409 22.5114 123.597 22.1748C123.797 21.827 124.056 21.5432 124.374 21.3228C124.691 21.1023 125.056 20.9402 125.467 20.8353C125.879 20.7309 126.296 20.6788 126.719 20.6788C127.284 20.6788 127.843 20.7775 128.396 20.975C128.948 21.16 129.395 21.4848 129.736 21.9487L128.325 23.2013Z" fill="#474747"/>
</svg>
