<svg width="137" height="49" viewBox="0 0 137 49" fill="none" xmlns="http://www.w3.org/2000/svg">
<path d="M17.9975 24.458C18.0128 25.6424 17.7245 26.8103 17.1613 27.8459C16.6236 28.8449 15.8347 29.6792 14.8762 30.2633C13.8677 30.8787 12.7232 31.2239 11.5491 31.2667V35H8.45508V31.2667C7.28059 31.2251 6.13506 30.8833 5.12343 30.2726C4.16076 29.6939 3.37077 28.8581 2.83835 27.8553C2.27731 26.8155 1.9892 25.6451 2.002 24.458C1.98057 23.5788 2.13122 22.7041 2.44513 21.8851C2.75903 21.0661 3.22988 20.3194 3.83007 19.6887C5.04192 18.3982 6.70467 17.65 8.45508 17.6073V14H11.5491V17.5933C13.2986 17.6589 14.955 18.4151 16.1696 19.7027C16.7714 20.3293 17.2435 21.0733 17.5576 21.8903C17.8717 22.7074 18.0213 23.5806 17.9975 24.458ZM5.30624 24.458C5.27993 25.4167 5.59676 26.3525 6.19742 27.09C6.47906 27.4392 6.82636 27.7274 7.21882 27.9374C7.61128 28.1473 8.04096 28.2749 8.4825 28.3126V20.5753C8.03888 20.6143 7.60761 20.7449 7.21483 20.9591C6.82205 21.1732 6.47593 21.4665 6.19742 21.8213C5.60248 22.5635 5.28333 23.4991 5.30624 24.458ZM11.476 28.3126C12.0742 28.2584 12.6479 28.0443 13.1395 27.692C13.625 27.3368 14.0161 26.8636 14.2775 26.3153C14.5548 25.7342 14.6956 25.0951 14.6888 24.4487C14.709 23.4854 14.384 22.5477 13.7748 21.812C13.2045 21.1042 12.3829 20.6562 11.4897 20.566L11.476 28.3126Z" fill="#22272C"/>
<path d="M26.5087 30.9977C25.3429 31.0155 24.1923 30.725 23.1688 30.1542C22.191 29.6168 21.3823 28.8071 20.8365 27.8189C20.2764 26.8084 19.9887 25.6639 20.0026 24.5026C19.9779 23.6389 20.1298 22.7795 20.4484 21.9791C20.7669 21.1787 21.2453 20.4551 21.8528 19.8543C22.4675 19.2421 23.1966 18.7626 23.9965 18.4446C24.7965 18.1265 25.6508 17.9763 26.5087 18.003C27.3632 17.9766 28.2142 18.126 29.0111 18.4425C29.808 18.7591 30.5344 19.2362 31.1473 19.8455C31.7548 20.4462 32.2331 21.1699 32.5517 21.9702C32.8702 22.7705 33.022 23.63 32.9974 24.4937C33.0197 25.3566 32.866 26.2147 32.5459 27.0135C32.2259 27.8122 31.7466 28.5341 31.1385 29.1331C30.529 29.746 29.8048 30.2269 29.0094 30.5473C28.2139 30.8676 27.3634 31.0208 26.5087 30.9977ZM26.5087 27.89C26.9351 27.9061 27.3602 27.8301 27.756 27.6672C28.1518 27.5043 28.5097 27.2579 28.8063 26.9444C29.1058 26.6207 29.3392 26.2392 29.4928 25.8223C29.6464 25.4053 29.7172 24.9612 29.7009 24.5159C29.7168 24.0714 29.6459 23.628 29.4923 23.2118C29.3387 22.7956 29.1055 22.4149 28.8063 22.0919C28.1855 21.4846 27.3593 21.1456 26.5 21.1456C25.6408 21.1456 24.8146 21.4846 24.1937 22.0919C23.8946 22.4149 23.6613 22.7956 23.5077 23.2118C23.3541 23.628 23.2832 24.0714 23.2991 24.5159C23.2952 24.9825 23.3746 25.4459 23.5336 25.8833C23.6755 26.2858 23.9007 26.6523 24.1937 26.9577C24.4837 27.2517 24.8276 27.484 25.2058 27.6414C25.6201 27.8102 26.0627 27.8946 26.5087 27.89Z" fill="#22272C"/>
<path d="M42.1423 18.0029C43.0506 17.976 43.9548 18.1345 44.7988 18.4685C45.6427 18.8026 46.4085 19.3051 47.0485 19.9449C47.6908 20.5882 48.1947 21.3541 48.5295 22.1963C48.8644 23.0385 49.0235 23.9393 48.997 24.8442C49.0244 25.7526 48.8644 26.657 48.527 27.5019C48.1895 28.3468 47.6816 29.1144 47.0344 29.7577C46.397 30.397 45.6337 30.8994 44.7921 31.2335C43.9505 31.5676 43.0485 31.7263 42.1423 31.6996C40.8571 31.7177 39.5978 31.3401 38.5381 30.6186V36H35V18.3632H37.3588L37.9579 19.5331C39.1067 18.5154 40.6024 17.9685 42.1423 18.0029ZM39.3024 27.3945C39.6299 27.7294 40.0329 27.9936 40.468 28.1707C40.9029 28.3479 41.3702 28.4341 41.8404 28.424C42.3145 28.4384 42.7866 28.3561 43.2273 28.1822C43.6681 28.0085 44.0682 27.7468 44.403 27.4135C44.7376 27.08 44.9999 26.6821 45.1734 26.2443C45.3468 25.8064 45.4279 25.3379 45.4116 24.8677C45.4161 24.229 45.2536 23.6002 44.9399 23.0427C44.6422 22.5112 44.2033 22.071 43.6708 21.7699C43.1127 21.4571 42.4814 21.2957 41.8404 21.3019C41.1965 21.2964 40.5624 21.4577 40.0006 21.7699C39.4627 22.0655 39.0208 22.507 38.7268 23.0427C38.4269 23.6044 38.2743 24.232 38.2834 24.8677C38.2721 25.3353 38.3566 25.8004 38.5317 26.2348C38.7069 26.669 38.9691 27.0636 39.3024 27.3945Z" fill="#22272C"/>
<path d="M57.1027 30.9985C55.8375 31.0116 54.5911 30.7173 53.4896 30.1454C52.4191 29.5888 51.5356 28.7727 50.9357 27.7861C50.3095 26.7706 49.9873 25.6209 50.0022 24.4539C49.9785 23.5985 50.147 22.7479 50.4974 21.9551C50.8478 21.1623 51.3724 20.4444 52.0385 19.8464C52.7072 19.2393 53.5027 18.763 54.3773 18.446C55.2518 18.1291 56.1872 17.9783 57.1268 18.0025C58.7466 17.9641 60.3293 18.4518 61.5961 19.3799C62.8371 20.2994 63.6751 21.5993 63.9564 23.041H60.353C60.0718 22.4685 59.6187 21.9815 59.0471 21.637C58.4711 21.2954 57.798 21.1176 57.1123 21.126C56.6588 21.1198 56.2088 21.2017 55.7921 21.3664C55.3753 21.5309 55.0011 21.7745 54.6939 22.0813C54.0421 22.7322 53.6947 23.5922 53.7266 24.4761C53.6925 25.3669 54.0398 26.2347 54.6939 26.8931C54.9971 27.2062 55.3699 27.4559 55.7871 27.6252C56.2043 27.7947 56.6563 27.8798 57.1123 27.8751C57.8017 27.8846 58.4773 27.6984 59.0471 27.3419C59.6336 26.949 60.0864 26.4113 60.353 25.7912H64C63.7263 27.2718 62.8816 28.6124 61.6202 29.5679C60.3481 30.5239 58.746 31.0313 57.1027 30.9985Z" fill="#22272C"/>
<path d="M76.4057 18.3182H79V30.633H76.2473L75.9583 29.5401C74.7977 30.5063 73.3005 31.0259 71.7593 30.9973C70.8597 31.0227 69.9641 30.8708 69.1295 30.5513C68.2945 30.2317 67.5379 29.7513 66.9071 29.1403C66.2758 28.5252 65.7817 27.7948 65.4545 26.9932C65.1274 26.1916 64.974 25.3352 65.0036 24.4756C64.9786 23.6199 65.1366 22.7683 65.4678 21.9726C65.7991 21.1768 66.2966 20.4535 66.9304 19.8464C67.5634 19.239 68.3208 18.762 69.1554 18.4448C69.9903 18.1277 70.8845 17.9772 71.7827 18.0028C73.3432 17.9743 74.8576 18.511 76.0188 19.5044L76.4057 18.3182ZM69.5477 26.8923C69.8747 27.2089 70.267 27.4575 70.6993 27.6227C71.1323 27.7878 71.5962 27.8659 72.0622 27.8519C72.531 27.8637 72.997 27.7841 73.4313 27.6185C73.8663 27.4527 74.2615 27.2042 74.5919 26.8881C74.923 26.5721 75.1818 26.1951 75.3546 25.7803C75.5267 25.3655 75.6085 24.9214 75.5941 24.4756C75.6085 24.0306 75.5267 23.5876 75.3552 23.1736C75.1832 22.7596 74.9251 22.3833 74.5953 22.0678C74.2656 21.7522 73.8719 21.504 73.4376 21.3381C73.0039 21.1724 72.5392 21.0926 72.0719 21.1037C71.4386 21.094 70.8149 21.2475 70.2663 21.5479C69.7384 21.8337 69.3027 22.2516 69.0066 22.7563C68.6952 23.2805 68.5344 23.8735 68.5399 24.4756C68.5268 24.9225 68.6094 25.3672 68.7827 25.7827C68.956 26.1982 69.2162 26.5757 69.5477 26.8923Z" fill="#22272C"/>
<path d="M91.1009 18.0469H93V31H89.7336V24.1379L83.9219 31H82V18.0469H85.2666V24.825L91.1009 18.0469ZM90.8932 14V16.5605H84.5222V14H90.8932Z" fill="#22272C"/>
<path d="M107 18V21.1515H102.743V31H99.257V21.1515H95V18H107Z" fill="#22272C"/>
<path d="M110 28H107V31H110V28Z" fill="#FF4178"/>
</svg>
