<svg width="137" height="49" viewBox="0 0 137 49" fill="none" xmlns="http://www.w3.org/2000/svg">
<path d="M94.0017 18.9743C93.9281 19.4161 93.8714 19.862 93.7777 20.2994C93.4841 21.6683 92.8807 22.8883 91.9856 23.9539C90.5499 25.6618 88.7167 26.6818 86.5501 27.0998C84.5478 27.4861 82.5651 27.404 80.6462 26.6863C77.5215 25.5178 75.4981 23.3126 74.8444 19.9794C74.3588 17.5047 74.7632 15.1482 76.1974 13.0332C77.3519 11.3312 78.9379 10.2033 80.8617 9.54934C81.6953 9.2659 82.5539 9.09936 83.433 9.04384C83.5205 9.03843 83.6066 9.01496 83.6937 9.00006C84.1252 9.00006 84.5563 9.00006 84.9878 9.00006C85.0525 9.0136 85.1168 9.0312 85.1819 9.03978C85.6674 9.10477 86.1583 9.13998 86.6372 9.23656C88.4807 9.60847 90.0992 10.4304 91.4442 11.7727C92.6094 12.9358 93.3868 14.3245 93.7617 15.9358C93.8697 16.4003 93.9232 16.8782 94.0017 17.3499V18.9747V18.9743ZM83.8552 13.1384C82.7592 13.1583 81.4588 13.7622 80.5391 15.0968C79.7157 16.2919 79.5078 17.6333 79.7121 19.051C80.0602 21.4621 81.7609 23.0702 84.1346 23.1749C85.9419 23.2548 87.3735 22.5191 88.3245 20.9408C89.0144 19.7957 89.1594 18.5347 88.9684 17.2244C88.6127 14.7854 86.7559 13.1456 83.8552 13.1384Z" fill="#181D40"/>
<path d="M71.2458 9.37469V13.1958H61.5754V16.0437C61.6615 16.0437 61.7472 16.0437 61.8333 16.0437C63.3948 16.0473 64.9567 16.0329 66.5177 16.06C67.6137 16.0794 68.69 16.2504 69.7084 16.6946C71.6019 17.5201 72.5279 18.9996 72.5944 21.0599C72.6229 21.9409 72.5167 22.7999 72.1592 23.6127C71.6394 24.7952 70.7477 25.6004 69.6111 26.1493C68.6396 26.6187 67.6056 26.8854 66.5386 26.9057C64.0262 26.954 61.5129 26.9463 58.9996 26.9594C58.323 26.963 57.6461 26.9599 56.9695 26.9599C56.8901 26.9599 56.8102 26.9599 56.7188 26.9599V9.37469H71.2458ZM61.5807 19.6089V23.3952C61.6825 23.3952 61.7637 23.3952 61.8449 23.3952C62.9074 23.3952 63.9704 23.4019 65.033 23.3911C65.3583 23.3879 65.6863 23.3582 66.0067 23.3026C66.9211 23.1438 67.4682 22.622 67.603 21.7573C67.7284 20.9521 67.4419 20.1311 66.527 19.8237C66.1999 19.7136 65.8501 19.6242 65.5087 19.6165C64.2386 19.5886 62.9677 19.5985 61.6972 19.5949C61.6615 19.5949 61.6253 19.6034 61.5812 19.6089H61.5807Z" fill="#181D40"/>
<path d="M43.2358 22.3616V26.9445H38.3203V9.37014C38.3899 9.36653 38.4613 9.35886 38.5327 9.35886C41.2616 9.36021 43.9905 9.33674 46.7184 9.37285C48.3986 9.39542 50.0042 9.76958 51.4215 10.7481C52.9687 11.8164 53.7943 13.3149 53.963 15.1897C54.0616 16.2892 53.9456 17.3616 53.5283 18.3929C53.0397 19.6002 52.2105 20.5074 51.1172 21.1705C49.9284 21.8917 48.6213 22.2501 47.2455 22.3078C46.0062 22.3602 44.7638 22.3458 43.5228 22.3611C43.4349 22.362 43.347 22.3611 43.2354 22.3611L43.2358 22.3616ZM43.239 18.3898C44.4104 18.3898 45.5564 18.4286 46.6979 18.3758C47.4329 18.3419 48.1067 18.0571 48.5646 17.4198C49.0109 16.7992 49.0858 16.0938 48.9756 15.3558C48.8515 14.5263 48.4142 13.9337 47.6542 13.5906C47.1642 13.3695 46.6448 13.29 46.1137 13.286C45.2288 13.2797 44.3439 13.2837 43.4585 13.2846C43.3871 13.2846 43.3162 13.2932 43.239 13.2982V18.3893V18.3898Z" fill="#181D40"/>
<path d="M19.6803 26.7536C20.0681 25.5341 20.4532 24.3231 20.8357 23.1216C21.3279 23.2088 21.805 23.3198 22.2878 23.3726C23.386 23.4931 24.2179 23.0205 24.8288 22.1197C24.8658 22.0651 24.8399 21.936 24.802 21.8638C24.1313 20.5914 23.4552 19.3223 22.7782 18.0535C21.3819 15.4367 19.9842 12.8202 18.587 10.2038C18.4433 9.9348 18.3 9.66535 18.1367 9.35844C18.2532 9.35844 18.3313 9.35844 18.4094 9.35844C19.9789 9.35844 21.5479 9.36069 23.1174 9.35437C23.2794 9.35392 23.3619 9.39725 23.4351 9.55206C24.6735 12.1644 25.9194 14.7736 27.1641 17.3828C27.231 17.5232 27.2993 17.6627 27.389 17.8477C27.5675 17.4889 27.7263 17.1716 27.8839 16.8539C29.0923 14.4089 30.299 11.9636 31.5133 9.52182C31.5499 9.44825 31.6592 9.36521 31.7351 9.36475C33.2523 9.35573 34.7696 9.35844 36.2869 9.35934C36.3088 9.35934 36.3306 9.36566 36.3824 9.37423C36.1838 9.75291 35.9915 10.1221 35.7965 10.4899C33.5763 14.6793 31.3584 18.87 29.1334 23.0562C28.4453 24.3506 27.5675 25.488 26.3416 26.3108C24.9591 27.2388 23.4374 27.6012 21.7987 27.3313C21.1374 27.2225 20.4943 26.9982 19.8432 26.8245C19.795 26.8114 19.7499 26.7843 19.6812 26.7536H19.6803Z" fill="#181D40"/>
<path d="M6.66893 26.9441V13.3126H1.32812V9.37469H16.8222V13.3045H11.522V26.9441H6.66893Z" fill="#181D40"/>
<path d="M82.9417 34.7143H2.38161C1.61857 34.7143 1 35.3399 1 36.1116C1 36.8834 1.61857 37.509 2.38161 37.509H82.9417C83.7048 37.509 84.3234 36.8834 84.3234 36.1116C84.3234 35.3399 83.7048 34.7143 82.9417 34.7143Z" fill="url(#paint0_linear_1420_7263)"/>
<path d="M90.7167 39.0874C92.4155 39.0874 93.7927 37.6945 93.7927 35.9763C93.7927 34.2581 92.4155 32.8652 90.7167 32.8652C89.0178 32.8652 87.6406 34.2581 87.6406 35.9763C87.6406 37.6945 89.0178 39.0874 90.7167 39.0874Z" fill="#0BD688"/>
<defs>
<linearGradient id="paint0_linear_1420_7263" x1="1" y1="36.1121" x2="84.3234" y2="36.1121" gradientUnits="userSpaceOnUse">
<stop stop-color="#C0F4E0"/>
<stop offset="1" stop-color="#0BD688"/>
</linearGradient>
</defs>
</svg>
