<svg xmlns="http://www.w3.org/2000/svg" width="680" height="1081" viewBox="0 0 680 1081" fill="none">
    <path
        d="M455.41 0.470459C473.776 17.0868 500.362 51.2721 500.362 76.6729V119.875C500.362 149.7 613.941 164.941 619.356 179.144C629.438 205.773 596.688 219.912 594.611 235.153C604.158 253.928 610.58 251.579 615.525 256.997C623.509 265.782 615.525 280.049 615.525 280.049C615.525 280.049 631.236 282.165 634.04 293.638C636.845 305.111 623.873 315.038 623.873 326.553C623.873 338.068 664.137 353.013 664.693 384.615C665.785 446.001 555.76 443.016 538.999 451.885C534.226 454.425 527.483 460.818 527.483 475.762V540.449C527.483 566.252 504.921 595.484 504.921 616.525C504.921 691.88 679.378 746.45 679.378 1080.47H0.710938V0.470459H455.41Z"
        fill="black" />
</svg>