<svg xmlns="http://www.w3.org/2000/svg" width="840" height="980" viewBox="0 0 840 980">
    <path
        d="M635.282 -0.00622559C652.015 15.0716 676.235 46.0915 676.235 69.1404V108.343C676.235 135.406 779.709 149.235 784.643 162.123C793.828 186.286 763.991 199.117 762.099 212.946C770.797 229.983 776.647 227.851 781.152 232.768C788.426 240.739 781.152 253.685 781.152 253.685C781.152 253.685 795.466 255.606 798.021 266.016C800.575 276.427 788.758 285.435 788.758 295.884C788.758 306.333 825.44 319.893 825.947 348.57C826.941 404.271 726.705 401.563 711.435 409.611C707.086 411.916 700.943 417.716 700.943 431.277V489.975C700.943 513.388 680.389 539.914 680.389 559.006C680.389 627.384 839.324 676.901 839.324 979.994H0.835938V-0.00622559H635.282Z"
        fill="white" />
</svg>