<svg width="133" height="37" viewBox="0 0 133 37" fill="none" xmlns="http://www.w3.org/2000/svg">
<path d="M25.3933 0V7.41514C25.3933 12.5966 24.0859 14.5793 24.0859 14.5793C22.3091 17.3914 19.6836 18.4996 19.6836 18.4996C19.6836 18.4996 22.3091 19.6078 24.0859 22.4198C24.0859 22.4198 25.3933 24.4026 25.3933 29.584V37H37.4971V0H25.3933Z" fill="#8293A6"/>
<path d="M16.3003 29.5577C16.3003 29.5577 16.5679 23.0657 11.0583 22.3795C11.0583 22.3795 10.6831 22.3524 10.2779 22.3441C9.88938 22.3359 9.43914 22.3293 9.43914 22.3293V18.5004V14.6715C9.43914 14.6715 9.88938 14.6649 10.2779 14.6567C10.6831 14.6476 11.0583 14.6213 11.0583 14.6213C16.5679 13.9352 16.3003 7.44311 16.3003 7.44311V0H0V37H16.3003V29.5577Z" fill="#8293A6"/>
<path d="M47.7363 4.74146H51.4825V10.9892L57.3064 4.74146H62.309L55.663 11.3948L62.8893 21.5775H58.201L53.0775 13.9468L51.4825 15.5445V21.5775H47.7363V4.74146Z" fill="#8293A6"/>
<path d="M81.586 12.9446C81.586 15.4572 80.7155 17.5789 78.9762 19.3116C77.2362 21.0442 75.0934 21.9105 72.5479 21.9105C70.0024 21.9105 67.8996 21.0368 66.1437 19.2877C64.3877 17.5395 63.5098 15.4243 63.5098 12.9446C63.5098 10.4649 64.3952 8.38592 66.1678 6.66068C67.9396 4.93627 70.0749 4.07324 72.572 4.07324C75.0692 4.07324 77.2162 4.93133 78.9646 6.64834C80.7122 8.36535 81.5868 10.4641 81.5868 12.9438L81.586 12.9446ZM78.0574 12.9207C78.0574 11.379 77.5255 10.047 76.4624 8.92644C75.3994 7.8059 74.0937 7.24481 72.547 7.24481C71.0004 7.24481 69.7155 7.81331 68.6441 8.9503C67.5727 10.0873 67.0375 11.4184 67.0375 12.9446C67.0375 14.4707 67.5694 15.8381 68.6325 16.9981C69.6955 18.159 71.0012 18.739 72.5479 18.739C74.0945 18.739 75.4877 18.159 76.5358 16.9981C77.5505 15.8858 78.0583 14.5267 78.0583 12.9207H78.0574Z" fill="#8293A6"/>
<path d="M98.3849 9.70131C98.3849 10.9889 98.0698 12.102 97.4395 13.0399C96.8091 13.9778 95.8886 14.6458 94.6763 15.0432C94.0135 15.2497 93.2381 15.3772 92.3493 15.4249H88.2021V21.5772H84.7461V4.40796H91.7865C92.8337 4.40796 93.7116 4.49517 94.4204 4.67041C95.6769 4.9888 96.6515 5.58444 97.3444 6.45899C98.0373 7.33354 98.3833 8.41458 98.3833 9.70213L98.3849 9.70131ZM88.2029 7.48327V12.348H91.7956C93.9326 12.348 95.0015 11.5417 95.0015 9.92756C95.0015 8.31339 93.9651 7.48327 91.8932 7.48327H88.2029Z" fill="#8293A6"/>
<path d="M114.987 4.40805L107.689 21.5773H104.099L105.776 17.6332L99.7383 4.40723H103.423L107.462 13.6044L111.345 4.40723H114.988L114.987 4.40805Z" fill="#8293A6"/>
<path d="M132.999 16.2116C132.306 17.9763 131.239 19.3675 129.797 20.3844C128.354 21.4021 126.683 21.9105 124.783 21.9105C122.221 21.9105 120.066 21.0442 118.318 19.3116C116.569 17.5789 115.695 15.4481 115.695 12.9207C115.695 10.3933 116.569 8.34643 118.318 6.63682C120.066 4.92804 122.196 4.07324 124.71 4.07324C126.675 4.07324 128.395 4.5825 129.869 5.59938C131.344 6.61708 132.387 8.03956 132.999 9.86763H129.181C128.149 8.11936 126.651 7.24481 124.686 7.24481C123.123 7.24481 121.822 7.79768 120.783 8.90176C119.744 10.0067 119.224 11.3386 119.224 12.896C119.224 14.4534 119.739 15.8052 120.77 16.9496C121.834 18.1417 123.147 18.7382 124.71 18.7382C126.692 18.7382 128.166 17.8957 129.132 16.2108H132.999L132.999 16.2116Z" fill="#8293A6"/>
<path d="M47.7422 26.915H48.8661V28.79L50.6137 26.915H52.1145L50.1201 28.9118L52.2888 31.9673H50.8822L49.3447 29.6777L48.8661 30.1574V31.9682H47.7422V26.9159V26.915Z" fill="#8293A6"/>
<path d="M57.9909 29.3768C57.9909 30.1304 57.73 30.7671 57.208 31.2871C56.6861 31.8071 56.0424 32.067 55.2787 32.067C54.5149 32.067 53.8838 31.8046 53.3568 31.2797C52.8299 30.7548 52.5664 30.1205 52.5664 29.3759C52.5664 28.6314 52.8324 28.0078 53.3643 27.4903C53.8963 26.9728 54.5366 26.7136 55.2862 26.7136C56.0357 26.7136 56.6794 26.9711 57.2047 27.4862C57.7291 28.0012 57.9918 28.6314 57.9918 29.3751L57.9909 29.3768ZM56.932 29.3693C56.932 28.907 56.7728 28.5071 56.4535 28.1707C56.1341 27.8342 55.7431 27.6663 55.2787 27.6663C54.8143 27.6663 54.4291 27.8366 54.1072 28.1781C53.7854 28.5195 53.6253 28.9185 53.6253 29.3768C53.6253 29.835 53.7845 30.2447 54.1039 30.5935C54.4232 30.9416 54.8143 31.116 55.2787 31.116C55.7431 31.116 56.1608 30.9416 56.4751 30.5935C56.7795 30.2595 56.932 29.8515 56.932 29.3702V29.3693Z" fill="#8293A6"/>
<path d="M62.9003 31.9675H61.863V29.8137H59.9337V31.9675H58.8965V26.8157H59.9337V28.8766H61.863V26.8157H62.9003V31.9675Z" fill="#8293A6"/>
<path d="M69.224 30.3575C69.0164 30.8873 68.6954 31.3044 68.2635 31.6097C67.8307 31.9149 67.3288 32.0679 66.7585 32.0679C65.9898 32.0679 65.3428 31.8079 64.8183 31.288C64.2939 30.768 64.0312 30.1288 64.0312 29.3702C64.0312 28.6117 64.2939 27.9979 64.8183 27.4846C65.3428 26.972 65.9823 26.7153 66.7368 26.7153C67.3263 26.7153 67.8424 26.8684 68.2852 27.1736C68.7279 27.4788 69.0406 27.9058 69.224 28.4546H68.0784C67.7691 27.9297 67.3196 27.6672 66.7293 27.6672C66.2608 27.6672 65.8697 27.8326 65.5579 28.1641C65.2461 28.4957 65.0901 28.8955 65.0901 29.3628C65.0901 29.8301 65.2444 30.2357 65.5545 30.5796C65.8739 30.9375 66.2674 31.116 66.7368 31.116C67.3313 31.116 67.7741 30.8635 68.0642 30.3575H69.2248H69.224Z" fill="#8293A6"/>
<path d="M74.6044 31.9675H73.473L73.0594 30.8511H71.1234L70.7032 31.9675H69.5859L71.6529 26.8157H72.545L74.6044 31.9675ZM72.7476 29.9782L72.1023 28.0818L71.4419 29.9782H72.7476Z" fill="#8293A6"/>
<path d="M79.6158 31.9675H78.5361L77.2804 28.0678L76.0247 31.9675H74.9375L76.7068 26.8157H77.8449L79.6141 31.9675H79.6158Z" fill="#8293A6"/>
<path d="M82.9593 27.7378H81.9146V31.9674H80.8774V27.7378H79.8477V26.8147H82.9585V27.7378H82.9593Z" fill="#8293A6"/>
<path d="M88.1731 31.9675H87.1358V28.5541L84.8296 31.9675H83.9375V26.8157H84.9747V30.2184L87.2826 26.8157H88.1731V31.9675Z" fill="#8293A6"/>
<path d="M93.5311 31.9675H92.4939V29.8137H90.5646V31.9675H89.5273V26.8157H90.5646V28.8766H92.4939V26.8157H93.5311V31.9675Z" fill="#8293A6"/>
<path d="M97.6207 27.7379H95.9239V31.9675H94.8867V26.8157H97.6207V27.7388V27.7379Z" fill="#8293A6"/>
<path fill-rule="evenodd" clip-rule="evenodd" d="M101.344 32.1682V26.8206H102.261V32.1682H101.344Z" fill="#8293A6"/>
<path d="M109.835 31.1741V31.9771H105.889V26.8206H109.73V27.6235H106.866V28.9642H109.407V29.7524H106.866V31.1741H109.835ZM113.09 26.8206C113.546 26.8206 113.942 26.8942 114.277 27.0416C114.618 27.1889 114.879 27.4001 115.059 27.6751C115.24 27.9501 115.33 28.2767 115.33 28.6548C115.33 29.028 115.24 29.3546 115.059 29.6346C114.879 29.9096 114.618 30.1207 114.277 30.2681C113.942 30.4154 113.546 30.4891 113.09 30.4891H111.902V31.9771H110.925V26.8206H113.09ZM113.045 29.6787C113.471 29.6787 113.794 29.5904 114.014 29.4136C114.235 29.2368 114.345 28.9838 114.345 28.6548C114.345 28.3258 114.235 28.0729 114.014 27.8961C113.794 27.7193 113.471 27.6309 113.045 27.6309H111.902V29.6787H113.045ZM121.139 31.9771L121.132 28.559L119.403 31.3878H118.967L117.238 28.6032V31.9771H116.306V26.8206H117.11L119.2 30.2386L121.252 26.8206H122.056L122.064 31.9771H121.139Z" fill="#8293A6"/>
</svg>
