<svg xmlns="http://www.w3.org/2000/svg" width="30" height="30" viewBox="0 0 30 30" fill="none">
    <path
        d="M16.9 14.8812C16.6583 15.0549 16.4015 15.2068 16.1327 15.3351C17.0364 15.7788 17.7996 16.4617 18.3386 17.3087C18.3386 17.3087 19 18.3152 19 20.9269V24.6668H14.4394V20.9203C14.4394 20.9203 14.5717 17.631 11.8103 17.3021C11.8103 17.3021 11.6251 17.2856 11.4266 17.2758H11V13.4076C11 13.4076 11.2282 13.4076 11.4266 13.4076C11.6251 13.4076 11.8103 13.4076 11.8103 13.4076C14.5717 13.0556 14.456 9.78937 14.456 9.78937V6.00012H18.9934V9.74661C18.9934 12.378 18.332 13.3648 18.332 13.3648C17.9529 13.9539 17.4674 14.4681 16.9 14.8812Z"
        fill="#8293A6" />
</svg>