<svg width="200" height="200" viewBox="0 0 200 200" fill="none" xmlns="http://www.w3.org/2000/svg">
<path fill-rule="evenodd" clip-rule="evenodd" d="M118.115 114.988C118.483 114.988 118.668 115.08 118.668 115.54V118.026C118.668 118.487 118.483 118.579 118.115 118.579H117.839V114.896H118.115V114.988ZM147.486 117.474C147.854 117.474 148.038 117.566 148.038 118.026V118.947C148.038 119.407 147.946 119.499 147.486 119.499H147.117V117.474H147.486ZM115.169 115.54C115.169 115.08 115.353 114.988 115.721 114.988H115.998V118.671H115.721C115.353 118.671 115.169 118.579 115.169 118.118V115.54ZM80.7345 123.09H153.102V111.121H80.7345V123.09ZM88.6526 113.054H86.8112V116.093H85.8904V113.054H84.049V120.88H85.8904V117.474H86.8112V120.88H88.6526V113.054ZM103.844 113.054H99.4248V120.88H103.844V119.407H101.358V117.566H103.568V116.093H101.358V114.528H103.844V113.054ZM120.417 115.632C120.417 114.067 119.68 113.607 117.839 113.607V113.054H116.09V113.607C114.248 113.607 113.42 113.975 113.42 115.632V118.118C113.42 119.683 114.248 120.144 116.09 120.144V120.88H117.839V120.144C119.68 120.144 120.417 119.683 120.417 118.118V115.632ZM134.596 113.054H129.992V114.528H131.465V120.88H133.215V114.528H134.596V113.054ZM149.879 118.026C149.879 116.461 149.235 116.001 147.394 116.001H147.117V112.962H145.276V120.788H147.117C149.143 120.788 149.879 120.512 149.879 118.763V118.026ZM75.9468 105.044V117.382C72.6323 120.88 67.9367 123.09 62.6887 123.09C52.653 123.09 44.5508 114.988 44.5508 105.044C44.5508 95.1007 52.653 86.9985 62.6887 86.9985V100.533C60.1107 100.533 57.4407 101.546 55.5072 103.479C55.0468 103.939 54.5865 104.492 54.2182 104.952C51.5481 108.911 52.0085 114.251 55.5072 117.75C57.5327 119.684 60.1107 120.696 62.6887 120.696C65.2667 120.696 67.8446 119.684 69.8702 117.75C71.8957 115.817 71.8957 112.594 69.8702 110.569C67.8446 108.543 64.6222 108.543 62.6887 110.569V105.044H75.9468ZM73.6451 80.6456C74.7499 85.4333 74.7499 88.3795 74.1975 91.7861C73.3689 97.8628 70.6067 102.466 69.4098 104.032C68.5812 103.019 67.2922 100.809 66.4636 98.7835C66.4636 98.7835 64.8984 94.9165 64.438 91.2337C63.9777 87.5509 64.1618 83.6839 65.4508 79.4487C66.5556 75.5817 68.7653 72.1751 69.3178 71.2544C69.8702 71.991 72.5402 75.8579 73.6451 80.6456ZM69.4098 102.835C69.9622 101.822 70.883 99.5201 70.883 96.6659C70.7909 93.7196 69.7781 91.602 69.5019 91.0496C69.1336 91.602 68.0288 93.9958 68.0288 96.9421C68.1208 99.8883 68.9495 101.822 69.4098 102.835ZM73.3689 88.8399C73.3689 86.9985 73.1847 83.8681 72.3561 80.6456C71.4354 77.4231 69.686 74.2927 69.5019 73.9244C69.2257 74.2927 67.8446 76.8707 66.6477 80.7377C66.3715 81.9346 65.727 84.5126 65.6349 86.9985C65.5429 90.0368 65.9111 92.983 66.0953 93.9037C66.0953 92.891 66.0953 89.5764 66.7398 86.8143C67.3843 84.0522 68.5812 80.9218 69.5019 79.2645C70.5147 80.9218 71.8037 84.6046 72.264 86.8143C72.7244 89.024 73.0006 91.7861 72.9085 93.8117C73.0926 92.6148 73.2768 90.6813 73.3689 88.8399ZM148.59 86.9985H153.102V105.044H149.603V93.7196H149.511L147.67 105.044H144.908L143.158 93.7196H143.066V105.044H139.568V86.9985H144.079L146.289 99.7042L148.59 86.9985ZM123.731 96.9421C124.1 96.9421 124.376 96.5738 124.376 96.0214V90.1289C124.376 89.5764 124.1 89.2081 123.731 89.2081H122.811V96.9421H123.731ZM119.404 86.9985H124.836C127.23 86.9985 127.69 88.9319 127.69 90.2209V95.6531C127.69 96.9421 127.322 98.8756 124.836 98.8756H122.811V105.044H119.404V86.9985ZM108.816 86.9985H116.826V105.044H113.604V89.2081H112.038V105.044H108.816V86.9985ZM102.003 98.6914V102.098C102.003 102.558 102.371 102.65 102.555 102.65C102.831 102.65 103.108 102.374 103.108 102.098V97.8628C103.108 97.3104 103.016 96.6659 101.727 96.6659H100.346V94.6403H101.819C102.831 94.6403 103.2 94.3641 103.2 93.2593V89.6685C103.2 89.3923 103.016 89.1161 102.647 89.1161C102.463 89.1161 102.095 89.2081 102.095 89.6685V92.6148H98.5962V90.0368C98.5962 88.7478 98.7803 86.8143 101.174 86.8143H104.028C106.422 86.8143 106.606 88.7478 106.606 90.0368V93.0751C106.606 95.0086 105.317 95.561 104.212 95.561V95.7452C106.514 95.6531 106.606 97.5866 106.606 98.2311V101.914C106.606 103.203 106.422 105.136 104.028 105.136H101.174C98.7803 105.136 98.5962 103.203 98.5962 101.914V98.7835H102.003V98.6914ZM93.164 98.2311L92.6116 89.2081H92.4275L91.783 98.2311H93.164ZM89.7574 86.9985H95.1896L97.031 105.044H93.6244L93.3482 100.257H91.6909L91.3226 105.044H87.916L89.7574 86.9985ZM80.7345 86.9985H87.3636V89.2081H84.2332V105.044H80.7345V86.9985ZM134.872 86.9985C137.266 86.9985 137.45 88.9319 137.45 90.2209V101.822C137.45 103.111 137.266 105.044 134.872 105.044H132.018C129.624 105.044 129.44 103.111 129.44 101.822V90.2209C129.44 88.9319 129.624 86.9985 132.018 86.9985H134.872ZM133.491 102.835C133.951 102.835 134.227 102.558 134.227 102.098V89.9447V89.8526V89.7606C134.227 89.3923 133.859 89.1161 133.491 89.1161C133.123 89.1161 132.754 89.3923 132.754 89.7606V89.8526V89.9447V102.098C132.662 102.466 133.031 102.835 133.491 102.835Z" fill="#8293A6"/>
</svg>
