<svg width="200" height="200" viewBox="0 0 200 200" fill="none" xmlns="http://www.w3.org/2000/svg">
<path fill-rule="evenodd" clip-rule="evenodd" d="M40.4141 102.476C42.4637 107.223 47.1023 110.567 52.6038 110.567C50.5542 105.82 45.8078 102.476 40.4141 102.476Z" fill="#8293A6"/>
<path fill-rule="evenodd" clip-rule="evenodd" d="M52.6041 84.1377C47.1025 84.1377 42.6797 88.5605 42.6797 94.0621C42.6797 99.5637 47.1025 103.987 52.6041 103.987C58.1057 103.987 62.5285 99.5637 62.5285 94.0621C62.5285 88.5605 57.9978 84.1377 52.6041 84.1377ZM52.6041 99.0243C49.9072 99.0243 47.6419 96.759 47.6419 94.0621C47.6419 91.3653 49.9072 89.0999 52.6041 89.0999C55.3009 89.0999 57.5663 91.3653 57.5663 94.0621C57.5663 96.759 55.3009 99.0243 52.6041 99.0243Z" fill="#8293A6"/>
<path fill-rule="evenodd" clip-rule="evenodd" d="M52.6055 110.567C56.5968 110.567 60.0488 108.194 61.6669 104.742C57.5677 104.742 54.1157 107.115 52.6055 110.567Z" fill="#8293A6"/>
<path fill-rule="evenodd" clip-rule="evenodd" d="M95.6434 106.791C93.378 106.791 91.2206 105.928 90.7891 103.124C96.9379 104.958 102.547 103.016 102.547 98.593C102.547 95.8962 100.39 93.5229 95.3198 93.5229C91.3284 93.5229 86.582 95.8962 86.582 102.045C86.582 108.086 91.5442 110.567 95.5355 110.567C98.4481 110.567 100.606 109.704 102.116 107.978L99.5269 105.389C98.6639 106.252 97.1536 106.791 95.6434 106.791ZM95.4277 97.2985C96.83 97.2985 98.0166 97.8379 98.0166 99.1324C98.0166 100.858 95.2119 101.721 90.897 100.535C91.4363 98.1615 93.2702 97.2985 95.4277 97.2985ZM70.8324 94.0623L70.7245 100.103C70.7245 102.584 70.6166 103.771 70.293 105.173C69.9694 106.468 69.3221 106.899 68.3513 106.899C68.0277 106.899 67.704 106.899 67.4883 106.791V110.243C67.8119 110.459 68.3513 110.567 68.9985 110.567C71.9111 110.459 73.3135 109.057 74.0686 106.684C74.608 104.958 74.7158 103.555 74.7158 101.506L74.8237 98.2694H80.0017V110.351H84.2088V94.0623H70.8324ZM156.053 106.899C155.19 106.899 154.758 106.36 154.758 105.389V94.0623H150.659V95.7883C149.473 94.3859 147.747 93.6308 145.589 93.6308C143.432 93.6308 141.598 94.4938 140.088 96.1119C138.577 97.73 137.822 99.7796 137.822 102.153C137.822 104.526 138.577 106.576 140.088 108.194C141.598 109.812 143.432 110.675 145.589 110.675C147.854 110.675 149.58 109.92 150.875 108.302L150.983 108.194C151.414 109.704 152.493 110.675 154.651 110.675C155.729 110.675 156.592 110.459 157.239 110.136V106.684C156.808 106.791 156.484 106.899 156.053 106.899ZM149.473 105.281C148.61 106.144 147.531 106.576 146.344 106.576C145.05 106.576 143.971 106.144 143.216 105.281C142.353 104.418 141.921 103.339 141.921 102.045C141.921 100.751 142.353 99.6718 143.216 98.8088C144.079 97.9458 145.158 97.5143 146.344 97.5143C147.639 97.5143 148.717 97.9458 149.473 98.8088C150.336 99.6718 150.767 100.751 150.767 102.045C150.767 103.339 150.336 104.418 149.473 105.281ZM122.504 94.0623V98.0537H127.682V110.136H131.889V98.0537H136.959V94.0623H122.504ZM116.463 94.0623V99.9954H109.236V94.0623H105.028V110.136H109.236V103.879H116.463V110.136H120.67V94.0623H116.463Z" fill="#8293A6"/>
</svg>
