<svg width="200" height="200" viewBox="0 0 200 200" fill="none" xmlns="http://www.w3.org/2000/svg">
<path fill-rule="evenodd" clip-rule="evenodd" d="M54.1789 118.2C53.1938 118.299 52.2087 118.397 51.1251 118.496C51.1251 118.496 38.4177 112.881 38.5162 100.961C38.6147 91.7017 42.949 88.9435 42.949 88.9435C42.949 88.9435 46.1998 90.3226 48.6624 92.8838C50.7311 95.051 51.9132 97.8092 51.9132 97.8092C51.9132 97.8092 53.0953 91.3077 59.3012 86.0868C68.3639 77.8122 78.2146 78.6003 78.2146 78.6003C78.2146 78.6003 80.2833 83.3286 80.3818 89.8301C80.4803 104.803 71.3191 115.738 57.0356 117.806C56.0505 118.003 55.0654 118.102 54.1789 118.2Z" fill="#8293A6"/>
<path fill-rule="evenodd" clip-rule="evenodd" d="M52.604 99.4835C52.1114 100.666 51.4219 102.439 50.7323 104.803C50.7323 104.901 50.7323 104.901 50.6338 105C50.4368 105.492 50.4368 105.591 50.3383 105.591C49.1562 111.698 50.4368 116.427 50.9293 117.707C50.9293 117.707 52.4069 117.707 53.0965 117.609C65.5084 116.033 75.0636 105.492 75.0636 92.6865C75.0636 90.1253 74.6696 87.7611 73.98 85.397C64.6219 85.791 56.5443 91.4059 52.604 99.4835Z" fill="#8293A6"/>
<path fill-rule="evenodd" clip-rule="evenodd" d="M41.4727 102.833C41.4727 109.433 45.4129 115.146 51.0279 117.708C50.5353 116.329 49.2547 111.699 50.4368 105.591C50.3383 105.493 50.5353 104.015 50.6338 103.227C50.8309 102.144 50.9294 101.158 51.1264 100.272C49.3532 97.6122 46.8906 95.445 44.0338 94.0659C42.4577 96.5286 41.4727 99.5823 41.4727 102.833Z" fill="#8293A6"/>
<path fill-rule="evenodd" clip-rule="evenodd" d="M108.457 91.2091C108.359 91.1106 108.26 91.1106 108.063 91.0121C107.866 90.9136 107.669 90.9136 107.472 90.9136C107.177 90.9136 106.881 90.9136 106.487 90.9136C106.093 90.9136 105.797 90.9136 105.502 90.9136C105.206 90.9136 105.009 91.0121 104.911 91.0121C104.714 91.1106 104.615 91.1106 104.615 91.2091C104.615 91.2091 104.615 91.2091 104.615 91.3076L103.433 96.7255C103.433 96.824 103.433 96.824 103.532 96.9225C103.532 97.021 103.63 97.021 103.729 97.021C103.827 97.021 103.926 97.1195 104.024 97.1195C104.123 97.1195 104.32 97.1195 104.517 97.1195C104.714 97.1195 104.812 97.1195 104.911 97.1195C105.009 97.1195 105.108 97.1195 105.206 97.021C105.305 97.021 105.305 96.9225 105.403 96.824L108.753 91.4061C108.556 91.4061 108.457 91.3076 108.457 91.2091ZM142.048 98.7942C142.147 98.5971 142.245 98.3016 142.344 98.0061C142.442 97.7106 142.442 97.4151 142.541 97.218C142.541 96.9225 142.639 96.7255 142.639 96.5285C142.639 96.3315 142.639 96.1345 142.639 96.036C142.639 95.6419 142.541 95.3464 142.344 95.2479H130.129C129.636 95.2479 129.242 95.2479 128.947 95.3464C128.651 95.4449 128.454 95.4449 128.257 95.5434C128.159 95.6419 128.06 95.6419 128.06 95.7404L127.371 99.5822L126.878 102.242L126.09 106.576L125.499 109.433L124.809 113.373C124.809 113.472 124.908 113.57 125.006 113.669C125.105 113.767 125.302 113.767 125.597 113.866C125.893 113.964 126.287 113.964 126.681 113.964C127.174 113.964 127.765 113.964 128.454 113.964H138.797C138.896 113.964 138.994 113.866 139.093 113.767C139.191 113.57 139.388 113.373 139.487 113.176C139.585 112.979 139.684 112.684 139.782 112.388C139.881 112.093 139.881 111.797 139.979 111.502C139.979 111.206 140.078 111.009 140.078 110.714C140.078 110.517 140.078 110.32 140.078 110.221C140.078 109.63 139.881 109.334 139.585 109.334H131.902L132.394 106.478H138.797C138.896 106.478 138.994 106.379 139.093 106.281C139.191 106.084 139.388 105.887 139.487 105.69C139.585 105.493 139.684 105.197 139.782 104.902C139.881 104.606 139.881 104.311 139.979 104.114C139.979 103.818 140.078 103.621 140.078 103.424C140.078 103.227 140.078 103.03 140.078 103.03C140.078 102.537 139.979 102.34 139.684 102.242H133.281L133.774 99.5822H141.457C141.556 99.5822 141.753 99.4837 141.851 99.3852C141.851 99.1882 141.95 98.9912 142.048 98.7942ZM116.042 113.373L112.693 105.197L111.215 113.472C111.215 113.57 111.117 113.57 111.018 113.669C110.92 113.767 110.723 113.767 110.427 113.866C110.132 113.964 109.836 113.964 109.442 113.964C109.048 113.964 108.556 113.964 107.965 113.964C107.374 113.964 106.881 113.964 106.487 113.964C106.093 113.964 105.797 113.866 105.6 113.866C105.403 113.767 105.206 113.767 105.108 113.669C105.009 113.57 105.009 113.472 105.009 113.373L108.26 95.6419C108.26 95.6419 108.26 95.6419 108.26 95.5434C108.359 95.4449 108.556 95.4449 108.753 95.3464C108.95 95.2479 109.245 95.2479 109.639 95.2479C110.033 95.2479 110.526 95.2479 111.117 95.2479C111.708 95.2479 112.2 95.2479 112.594 95.2479C112.988 95.2479 113.284 95.3464 113.58 95.3464C113.875 95.4449 113.974 95.4449 114.171 95.5434C114.269 95.6419 114.368 95.7404 114.368 95.8389L113.185 102.34L119.588 95.6419L119.687 95.5434C119.884 95.4449 120.081 95.4449 120.377 95.3464C120.672 95.2479 121.066 95.2479 121.46 95.2479C121.854 95.2479 122.445 95.2479 123.135 95.2479C123.824 95.2479 124.317 95.2479 124.711 95.2479C125.105 95.2479 125.4 95.3464 125.696 95.3464C125.893 95.4449 126.09 95.4449 126.188 95.5434C126.287 95.6419 126.287 95.6419 126.188 95.7404L119.096 103.326L123.529 113.373C123.529 113.472 123.43 113.57 123.233 113.669C123.135 113.767 122.839 113.767 122.544 113.866C122.248 113.964 121.854 113.964 121.362 113.964C120.869 113.964 120.278 113.964 119.588 113.964C118.899 113.964 118.209 113.964 117.815 113.964C117.323 113.964 117.027 113.866 116.732 113.866C116.436 113.767 116.239 113.767 116.141 113.669C116.141 113.669 116.042 113.669 116.042 113.57V113.373ZM164.114 95.6419C164.015 95.5434 163.818 95.5434 163.621 95.4449C163.424 95.3464 163.129 95.3464 162.735 95.3464C162.538 95.3464 162.341 95.3464 162.144 95.3464H160.272C160.075 95.3464 159.878 95.3464 159.681 95.3464C159.287 95.3464 158.991 95.4449 158.696 95.4449C158.499 95.4449 158.4 95.5434 158.203 95.5434L150.126 105.099L151.8 95.7404C151.8 95.6419 151.8 95.5434 151.702 95.5434C151.603 95.4449 151.505 95.4449 151.209 95.3464C151.012 95.2479 150.717 95.2479 150.323 95.2479C150.126 95.2479 150.027 95.2479 149.83 95.2479H147.959C147.762 95.2479 147.565 95.2479 147.466 95.2479C147.072 95.2479 146.776 95.3464 146.481 95.3464C146.284 95.4449 146.087 95.4449 145.988 95.5434C145.988 95.5434 145.89 95.5434 145.89 95.6419L142.541 113.472C142.541 113.472 142.541 113.57 142.639 113.57C142.738 113.669 142.935 113.669 143.132 113.767C143.329 113.866 143.624 113.866 144.018 113.866C144.412 113.866 144.905 113.866 145.496 113.866C146.087 113.866 146.579 113.866 146.974 113.866C147.368 113.866 147.663 113.767 147.959 113.767C148.156 113.767 148.353 113.669 148.451 113.57L148.648 113.275L156.43 104.114L154.756 113.472C154.756 113.472 154.756 113.57 154.854 113.57C154.953 113.669 155.051 113.669 155.347 113.767C155.544 113.866 155.839 113.866 156.233 113.866C156.627 113.866 157.12 113.866 157.711 113.866C158.302 113.866 158.794 113.866 159.188 113.866C159.582 113.866 159.878 113.767 160.173 113.767C160.37 113.669 160.568 113.669 160.666 113.57C160.765 113.57 160.765 113.472 160.765 113.472L164.015 95.7404C164.212 95.7404 164.114 95.6419 164.114 95.6419ZM96.5377 104.606C96.2422 106.182 95.5527 107.463 94.7646 108.448C93.8781 109.433 92.893 109.827 91.7109 109.827C90.3318 109.728 89.4452 109.137 89.1497 107.857C88.8542 106.872 88.8542 105.69 89.1497 104.212C89.4452 102.833 89.9378 101.651 90.6273 100.764C91.5139 99.6807 92.5975 99.1882 93.878 99.1882C95.1586 99.2867 95.9467 99.8777 96.4392 100.961C96.7348 101.946 96.8333 103.227 96.5377 104.606ZM101.66 98.1046C102.941 99.9762 103.236 102.242 102.645 104.902C101.956 107.955 100.577 110.418 98.2124 112.093C96.0452 113.767 93.484 114.457 90.6273 114.358C84.7169 114.063 81.5646 109.925 82.8452 103.917C83.4363 100.961 84.9139 98.6957 87.081 97.021C89.2482 95.3464 91.9079 94.5583 94.8631 94.7554C98.0154 94.8539 100.281 95.9374 101.66 98.1046ZM158.794 91.2091C158.893 91.3076 158.893 91.3076 158.893 91.4061L155.544 96.824C155.445 96.9225 155.347 97.021 155.347 97.021C155.248 97.021 155.15 97.1195 155.051 97.1195C154.953 97.1195 154.756 97.1195 154.657 97.1195C154.46 97.1195 154.362 97.1195 154.165 97.1195C154.066 97.1195 153.968 97.1195 153.869 97.021C153.771 97.021 153.771 96.9225 153.672 96.9225C153.672 96.824 153.573 96.824 153.573 96.7255L154.756 91.3076C154.756 91.3076 154.756 91.3076 154.756 91.2091C154.854 91.1106 154.953 91.1106 155.051 91.0121C155.248 90.9136 155.445 90.9136 155.642 90.9136C155.938 90.9136 156.233 90.9136 156.627 90.9136C157.021 90.9136 157.415 90.9136 157.612 90.9136C157.908 90.9136 158.105 91.0121 158.203 91.0121C158.597 91.1106 158.696 91.2091 158.794 91.2091Z" fill="#8293A6"/>
</svg>
