<svg width="200" height="200" viewBox="0 0 200 200" fill="none" xmlns="http://www.w3.org/2000/svg">
<path d="M123.147 98.8148L123.248 97.4917C123.452 97.5935 123.655 97.5935 123.859 97.5935C125.08 97.5935 125.182 95.8634 125.182 90.7748H130.678V98.8148H129.049V92.0978H126.607C126.607 96.474 126.403 98.9166 124.164 98.9166C123.859 98.9166 123.452 98.9166 123.147 98.8148ZM132.611 90.7748H134.24V93.7262C134.24 94.6421 134.138 96.1687 134.138 96.8811L137.598 90.7748H139.328V98.8148H137.7V95.8634C137.7 94.9474 137.802 93.4208 137.802 92.7084L134.341 98.8148H132.611V90.7748ZM140.651 98.713L140.855 97.2882C141.364 97.5935 142.178 97.6953 142.89 97.6953C143.603 97.6953 144.519 97.4917 144.519 96.474C144.519 95.3545 143.297 95.2527 142.585 95.2527C142.381 95.2527 142.28 95.2527 142.076 95.2527V93.9297C142.28 93.9297 142.381 93.9297 142.483 93.9297C143.196 93.9297 144.519 93.7262 144.519 92.7084C144.519 91.7925 143.603 91.6907 142.992 91.6907C142.483 91.6907 141.567 91.8943 141.058 91.996L140.855 90.673C141.466 90.4694 142.483 90.3677 143.297 90.3677C144.926 90.3677 146.147 90.8765 146.147 92.4031C146.147 93.3191 145.638 93.9297 144.62 94.1333C145.638 94.3368 146.249 95.151 146.249 96.0669C146.249 97.7971 145.435 98.4285 143.761 98.8148C142.437 99.1201 141.262 98.9166 140.651 98.713ZM147.775 90.7748H149.404V93.7262C149.404 94.6421 149.302 96.1687 149.302 96.8811L152.762 90.7748H154.492V98.8148H152.864V95.8634C152.864 94.9474 152.966 93.4208 152.966 92.7084L149.506 98.8148H147.775V90.7748ZM156.528 90.7748H158.156V93.9297H161.311V90.7748H162.939V98.8148H161.311V95.3545H158.156V98.8148H156.528V90.7748ZM164.975 90.7748H169.656V92.0978H166.502V98.8148H164.873L164.975 90.7748ZM104.42 111.027H107.982C109.305 111.027 110.12 110.722 110.73 109.908C110.934 109.603 111.341 108.89 111.341 107.669C111.341 106.448 110.934 105.634 110.018 104.921C109.509 104.616 108.797 104.412 107.779 104.412H104.217L104.42 111.027ZM99.6371 114.997V90.7748H115.412L114.089 94.8457H104.42V100.138H108.288C111.443 100.138 113.071 100.85 114.191 101.766C115.106 102.479 116.633 104.209 116.633 107.567C116.633 110.824 115.106 112.554 113.783 113.572C112.257 114.589 110.629 114.895 107.474 114.895L99.6371 114.997ZM85.5925 114.997V94.8457H78.672V90.7748H98.1105L96.7875 94.8457H90.5793V114.895H85.5925V114.997ZM66.154 100.443H68.9018C69.8178 100.443 70.2249 100.443 70.5302 100.341C71.6497 100.036 72.3621 99.0183 72.3621 97.5935C72.3621 95.9652 71.6497 95.151 70.5302 94.8457C70.1231 94.6421 69.6142 94.6421 68.8001 94.6421H66.2558L66.154 100.443ZM66.2558 104.718V111.129H69.6142C70.632 111.129 71.5479 111.027 72.2603 110.519C72.9727 110.01 73.1763 109.094 73.1763 108.076C73.1763 107.364 72.9727 106.549 72.6674 106.041C72.0568 105.125 71.039 104.921 69.5125 104.921L66.2558 104.718ZM73.9904 102.173C74.9064 102.58 75.7206 103.191 76.2294 103.496C77.6543 104.718 78.2649 106.244 78.2649 108.178C78.2649 111.435 76.5348 113.979 73.6851 114.589C72.7692 114.793 71.955 114.895 70.2249 114.895H61.5742V90.7748H69.3089C70.9373 90.7748 72.0568 90.8765 72.871 91.0801C75.6188 91.7925 77.4507 93.8279 77.4507 96.8811C77.4507 98.5095 76.9419 99.9343 75.9241 100.748C75.517 101.257 74.9064 101.766 73.9904 102.173Z" fill="#8293A6"/>
<path d="M56.4852 88.9431H35.9272L37.4538 85.2793H57.91L56.4852 88.9431ZM55.671 90.775H35.113L33.5864 94.4388H54.0427L55.671 90.775ZM53.5338 96.3725H32.9758L31.4492 100.036H51.9055L53.5338 96.3725Z" fill="#8293A6"/>
</svg>
