<svg width="200" height="200" viewBox="0 0 200 200" fill="none" xmlns="http://www.w3.org/2000/svg">
<path d="M108.043 86.0186C108.931 87.3991 109.325 88.9769 109.325 90.7518V104.557H114.749V90.7518C114.749 87.9908 113.96 85.4269 112.579 83.1589C110.706 83.5534 109.128 84.5394 108.043 86.0186ZM99.6617 90.1602C99.2672 95.3865 95.7173 99.035 90.7868 99.035V90.7518C90.7868 85.6242 94.9284 81.4826 100.056 81.4826C100.352 81.4826 100.648 81.4826 100.944 81.4826C101.535 80.4965 102.324 79.7076 103.113 78.8201C103.902 78.0312 104.592 77.5382 105.48 77.0451C103.803 76.4535 101.93 75.9604 100.056 75.9604C91.9701 75.9604 85.3633 82.5673 85.3633 90.6532V104.459H90.7868C98.6756 104.459 104.296 98.6406 105.085 90.1602C105.48 84.9339 109.03 81.2853 114.749 81.2853V75.8618C105.973 75.9604 100.352 81.877 99.6617 90.1602Z" fill="#8293A6"/>
<path d="M39.807 117.771C40.3001 117.574 40.7931 117.278 41.0889 116.686C41.3848 116.193 41.582 115.602 41.582 115.01C41.582 113.925 41.2861 113.235 40.4973 112.545C39.7084 111.953 38.032 111.559 36.7501 111.559C35.1724 111.559 33.5946 111.854 33.5946 111.854L33.8904 113.728C33.8904 113.728 35.3696 113.629 36.5529 113.629C37.1445 113.629 39.2153 113.728 39.2153 115.207C39.2153 116.785 37.3418 116.785 37.3418 116.785H35.4682V118.856H37.0459C39.5112 118.856 39.7084 120.335 39.7084 120.729C39.7084 122.603 37.3418 122.8 36.6515 122.8C35.1724 122.8 33.496 122.504 33.496 122.504L33.1016 124.575C33.1016 124.575 34.7779 124.969 36.8487 124.969C38.1306 124.969 42.1736 124.674 42.1736 120.828C41.9764 118.856 40.4973 118.067 39.807 117.771ZM59.2331 111.657H54.4998V124.674H56.965V119.743H59.2331C63.4733 119.743 63.6705 115.996 63.6705 115.602C63.6705 113.235 61.8955 111.657 59.2331 111.657ZM59.0358 117.771H56.965V113.827H58.8386C60.9094 113.827 61.1066 115.207 61.1066 115.7C61.2053 116.489 60.7122 117.771 59.0358 117.771ZM162.773 116.686H160.209V111.657H157.744V124.674H162.872C165.534 124.674 167.309 123.096 167.309 120.729C167.309 120.433 167.21 116.686 162.773 116.686ZM162.576 122.603H160.209V118.658H162.674C164.351 118.658 164.844 119.94 164.844 120.729C164.844 121.321 164.647 122.603 162.576 122.603ZM70.9676 115.503L69.4884 119.25L68.1079 115.602L66.5302 111.657H63.9663L68.3051 121.715C68.3051 121.814 68.2065 122.011 68.1079 122.208C67.9107 122.603 67.6149 123.096 66.9246 123.096C66.6288 123.096 65.5441 122.997 65.5441 122.997L65.3469 124.772C65.3469 124.772 66.4316 124.969 66.7274 124.969C67.0232 124.969 67.2204 124.969 67.5163 124.969C68.0093 124.969 68.4037 124.871 68.7982 124.772C69.094 124.674 69.3898 124.476 69.7843 124.181C69.9815 123.885 70.2773 123.589 70.5732 123.096C70.7704 122.701 70.9676 122.208 71.1648 121.715L75.405 111.657H72.8412L70.9676 115.503ZM80.9271 116.785H78.4619V113.827H84.0826V111.756H75.8981V124.772H80.7299C85.0687 124.772 85.1673 121.222 85.1673 120.828C85.3646 119.645 84.8715 116.785 80.9271 116.785ZM82.2091 122.208C81.8146 122.504 81.223 122.603 80.6313 122.603H78.4619V118.757H80.7299C81.5188 118.757 82.0118 118.954 82.3077 119.25C82.6035 119.546 82.7021 120.138 82.7021 120.631C82.8993 121.42 82.7021 121.913 82.2091 122.208ZM146.995 114.517C146.601 114.024 146.009 113.432 145.319 113.136C144.53 112.742 143.741 112.545 142.558 112.545V111.756H140.093V112.545C138.909 112.643 138.022 112.841 137.332 113.334C136.543 113.728 136.05 114.32 135.655 114.813C135.261 115.306 134.867 115.996 134.768 116.588C134.669 117.179 134.571 117.771 134.571 118.165C134.571 118.757 134.669 119.447 134.768 120.039C134.867 120.631 135.162 121.321 135.655 121.814C136.05 122.307 136.641 122.899 137.332 123.293C138.121 123.688 139.008 123.885 140.093 123.885V124.871H142.558V123.983C143.643 123.885 144.432 123.688 145.22 123.392C146.009 123.096 146.502 122.504 146.897 122.011C147.291 121.518 147.686 120.828 147.784 120.236C147.982 119.645 147.982 118.954 147.982 118.363C147.982 117.87 147.883 117.179 147.784 116.588C147.686 115.7 147.489 115.109 146.995 114.517ZM140.093 121.913C139.6 121.814 139.107 121.715 138.712 121.518C138.318 121.321 137.923 121.124 137.726 120.729C137.529 120.433 137.332 120.138 137.233 119.645C137.135 119.25 137.036 118.658 137.036 118.165C137.036 117.672 137.135 117.179 137.233 116.785C137.332 116.39 137.529 115.897 137.726 115.602C137.923 115.306 138.219 115.01 138.712 114.714C139.107 114.517 139.6 114.418 140.093 114.32V121.913ZM144.826 120.729C144.432 121.321 143.643 121.715 142.558 121.814V114.418C143.051 114.517 143.643 114.615 143.939 114.813C144.333 115.01 144.727 115.306 144.925 115.7C145.122 115.996 145.319 116.489 145.418 116.884C145.516 117.278 145.516 117.771 145.516 118.264C145.516 119.25 145.319 120.039 144.826 120.729ZM47.4985 111.559L41.7792 124.674H44.4416L45.4277 122.208H49.7666L50.7527 124.674H53.5137L47.7944 111.559H47.4985ZM46.2166 120.138L47.5971 116.489L48.9777 120.138H46.2166ZM128.555 119.053H132.5V116.982H128.555V113.827H133.092V111.756H126.09V124.772H133.19V122.701H128.457V119.053H128.555ZM121.357 116.884H116.229V111.756H113.665V124.772H116.131V119.053H121.258V124.772H123.724V111.657H121.258V116.884H121.357ZM148.08 113.827H150.841V124.772H153.306V113.827H156.068V111.756H147.982V113.827H148.08ZM108.341 118.067C108.834 117.771 109.129 117.179 109.425 116.785C109.918 115.7 111.693 111.657 111.693 111.657H109.228C109.228 111.657 107.848 115.207 107.552 115.799C107.157 116.785 106.763 116.982 105.974 116.982H105.185V111.657H102.72V116.982H101.734C100.846 116.982 100.55 116.785 100.156 115.799C99.8602 115.207 98.4796 111.657 98.4796 111.657H96.0144C96.0144 111.657 97.5921 115.7 98.2824 116.785C98.4796 117.179 98.7754 117.771 99.3671 118.067C98.7754 118.363 98.381 118.954 98.0852 119.349C97.5921 120.433 95.6199 124.772 95.6199 124.772H98.2824C98.2824 124.772 99.8602 120.926 100.156 120.335C100.55 119.349 100.945 119.152 101.734 119.152H102.818V124.772H105.185V119.152H105.974C106.861 119.152 107.157 119.349 107.552 120.335C107.848 120.926 109.425 124.772 109.425 124.772H112.088C112.088 124.772 110.313 120.433 109.622 119.349C109.425 118.856 109.031 118.363 108.341 118.067ZM89.7034 119.053H93.6478V116.982H89.7034V113.827H94.2394V111.756H87.2381V124.772H93.7464L94.6339 122.701H89.7034V119.053Z" fill="#8293A6"/>
</svg>
