<svg width="200" height="200" viewBox="0 0 200 200" fill="none" xmlns="http://www.w3.org/2000/svg">
<path fill-rule="evenodd" clip-rule="evenodd" d="M62.0793 110.317C62.0793 108.619 64.2768 106.421 68.8714 106.421C69.171 106.421 69.4707 106.421 69.6704 106.421C69.2709 109.717 66.674 112.015 64.077 112.015C62.8784 112.114 62.0793 111.515 62.0793 110.317ZM53.0899 92.2377L51.6915 105.322C50.0934 104.823 48.5952 104.523 46.997 104.324L53.0899 92.2377ZM43.2015 104.024C39.8055 104.024 36.2097 104.923 34.4118 106.92C33.4129 105.023 32.9135 102.825 32.9135 100.628C32.9135 94.8347 36.7091 89.3411 44.1004 85.9451L43.2015 83.9474C34.5117 87.8429 30.6162 94.2354 30.6162 100.628C30.5163 103.724 31.5152 106.721 33.2132 109.318C33.1133 109.617 33.1133 109.917 33.1133 110.217C33.1133 112.514 34.6115 114.212 37.608 114.212C40.8043 114.212 43.5011 112.015 45.0992 107.819H42.7021C41.5035 110.616 39.6057 112.114 37.608 112.114C36.0099 112.114 35.3107 111.415 35.3107 110.217C35.3107 108.219 37.8078 106.121 43.2015 106.121C45.9982 106.121 48.7949 106.621 51.4918 107.42L51.0922 111.016H53.2897L55.3872 91.7383C56.6857 91.4386 57.9841 91.3388 59.2826 91.3388C64.077 91.3388 65.4754 93.0368 65.4754 94.8347C65.4754 97.2319 63.4777 98.9299 58.6833 99.5292L59.3825 92.9369L57.1851 93.0368L55.2873 111.016H57.4847L58.4836 101.926C60.0817 101.527 61.7797 101.227 63.4777 101.227C66.674 101.227 68.8714 102.526 69.5706 104.523C69.3708 104.523 69.171 104.523 68.8714 104.523C62.6786 104.523 59.8819 107.72 59.8819 110.516C59.8819 113.013 61.6798 114.312 64.077 114.312C67.5729 114.312 71.3685 111.515 71.8679 106.92C73.466 107.32 74.9642 107.919 76.3626 108.718C72.5671 114.312 64.976 117.908 55.8866 117.908C51.3919 117.908 45.7984 116.909 42.1028 114.412L40.9042 116.21C44.5998 118.807 50.393 120.105 55.8866 120.105C70.6693 120.105 81.157 111.415 81.157 100.628C81.157 89.3411 69.7703 81.1507 55.8866 81.1507C54.9877 81.1507 54.3884 81.1507 53.5893 81.2506L53.7891 83.448C54.4882 83.448 55.1874 83.3481 55.7867 83.3481C68.1722 83.3481 78.7598 90.8394 78.7598 100.628C78.7598 102.825 78.2604 104.923 77.3614 106.821C75.6634 105.822 73.7657 105.023 71.768 104.723C71.2686 102.126 69.171 99.8288 64.8761 99.4293C65.6751 98.9299 66.3743 98.3306 66.8737 97.5315C67.3731 96.7324 67.5729 95.8335 67.5729 94.8347C67.5729 91.4386 65.1757 89.2412 59.1827 89.2412C57.9841 89.2412 56.7856 89.3411 55.587 89.5409L55.7867 87.2436L53.5893 86.6443L51.6915 90.4398C48.8948 91.2389 46.2978 92.3376 43.8008 93.6361L44.7996 95.5339C46.5975 94.6349 48.4953 93.8358 50.393 93.1367L44.7996 104.124C44.3002 104.024 43.7009 104.024 43.2015 104.024ZM51.7914 84.4468C51.7914 86.1449 50.5928 87.3434 48.8948 87.3434C47.2967 87.3434 45.4988 86.3446 45.4988 83.0485C45.4988 81.75 45.6985 80.5514 45.9982 79.2529C49.0946 79.9521 51.7914 82.0497 51.7914 84.4468Z" fill="#8293A6"/>
<path fill-rule="evenodd" clip-rule="evenodd" d="M98.3379 87.1438C96.54 87.1438 95.5411 88.0427 95.3414 89.3412H92.8443C93.2438 86.4446 95.2415 84.9464 98.3379 84.9464C101.734 84.9464 103.532 86.6444 103.532 90.1403V97.6315H101.035V94.635C100.435 96.4329 99.037 97.8313 96.54 97.8313C94.1428 97.8313 92.7444 96.6327 92.7444 94.3353C92.7444 91.5386 95.3414 89.9405 101.135 89.9405V89.7407C101.035 88.0427 100.036 87.1438 98.3379 87.1438ZM97.0394 95.7337C99.6363 95.7337 101.035 93.9358 101.035 91.8383C96.9395 91.8383 95.3414 92.7372 95.3414 94.2355C95.3414 95.2343 95.9407 95.7337 97.0394 95.7337ZM105.629 93.5363H108.226C108.526 94.8348 109.425 95.6338 111.323 95.6338C113.62 95.6338 114.119 94.8348 114.119 93.9358C114.119 93.1368 113.42 92.4376 111.722 92.4376H109.625V90.34H111.323C113.121 90.34 113.72 89.7407 113.72 88.8418C113.72 87.9428 112.921 87.1438 111.223 87.1438C109.325 87.1438 108.626 88.0427 108.426 89.1414H105.829C106.029 86.5445 108.126 84.9464 111.223 84.9464C114.719 84.9464 116.217 86.5445 116.217 88.4423C116.217 89.7407 115.418 90.7396 114.019 91.1391C115.618 91.4387 116.616 92.6373 116.616 94.0357C116.616 96.0334 115.018 97.9311 111.123 97.9311C107.627 97.8313 105.929 96.1332 105.629 93.5363ZM119.913 95.0345C119.114 93.7361 118.814 92.038 118.814 89.9405C118.814 83.9475 121.011 81.3506 126.305 80.7513C128.003 80.5515 128.902 80.3517 129.102 79.7524H131.499C131.099 82.1496 129.302 82.649 126.805 82.9487C122.51 83.4481 121.411 85.0462 121.311 88.7419C121.71 87.7431 122.41 86.944 123.309 86.3447C124.208 85.7454 125.306 85.4458 126.405 85.4458C130.001 85.4458 132.098 88.2425 132.098 91.6385C132.098 95.1344 129.401 97.8313 125.506 97.8313C122.809 97.8313 120.812 96.6327 119.913 95.0345ZM129.401 91.6385C129.401 89.3412 127.703 87.6432 125.406 87.6432C124.907 87.6432 124.307 87.7431 123.908 87.9428C123.408 88.1426 123.009 88.4423 122.609 88.8418C122.21 89.2413 121.91 89.6409 121.71 90.1403C121.511 90.6397 121.411 91.1391 121.411 91.6385C121.411 93.9358 123.109 95.6338 125.406 95.6338C127.703 95.6338 129.401 93.9358 129.401 91.6385ZM133.896 102.626V100.428C136.493 100.428 136.993 99.9288 137.792 97.7314L132.698 85.246H135.394L139.09 94.5351L142.786 85.246H145.183L139.889 98.3307C138.591 101.627 137.692 102.626 133.896 102.626ZM146.781 85.1461H149.278V90.7396L154.772 85.1461H157.768L151.975 91.0392L158.268 97.5316H154.872L149.278 91.7384V97.5316H146.781V85.1461ZM164.46 87.1438C162.662 87.1438 161.664 88.0427 161.464 89.3412H158.967C159.366 86.4446 161.364 84.9464 164.46 84.9464C167.856 84.9464 169.654 86.6444 169.654 90.1403V97.6315H167.157V94.635C166.558 96.4329 165.16 97.8313 162.662 97.8313C160.265 97.8313 158.867 96.6327 158.867 94.3353C158.867 91.5386 161.464 89.9405 167.257 89.9405V89.7407C167.157 88.0427 166.158 87.1438 164.46 87.1438ZM163.162 95.7337C165.759 95.7337 167.157 93.9358 167.157 91.8383C163.062 91.8383 161.464 92.7372 161.464 94.2355C161.364 95.2343 162.063 95.7337 163.162 95.7337ZM95.1416 112.115V115.311H98.5376C100.036 115.311 100.635 114.612 100.635 113.713C100.635 112.914 100.036 112.214 98.4377 112.214H95.1416V112.115ZM92.6445 104.923H98.3379C101.135 104.923 102.633 106.122 102.633 108.119C102.633 109.418 101.834 110.516 100.236 110.916C102.034 111.216 103.232 112.115 103.232 113.813C103.232 115.511 102.133 117.308 98.7374 117.308H92.7444L92.6445 104.923ZM100.036 108.619C100.036 107.72 99.4366 107.12 98.1381 107.12H95.0417V110.217H98.1381C99.5365 110.117 100.036 109.418 100.036 108.619ZM105.629 104.923H108.126V110.516L113.62 104.923H116.616L110.823 110.816L117.116 117.308H113.72L108.126 111.415V117.308H105.629V104.923ZM118.215 122.402C122.01 122.402 122.909 121.404 124.307 118.008L129.601 104.923H127.204L123.508 114.212L119.813 104.923H117.116L122.21 117.408C121.411 119.606 120.911 120.105 118.314 120.105V122.402H118.215ZM140.189 112.814H142.686C142.087 116.01 139.889 117.708 136.693 117.708C132.797 117.708 130.201 114.811 130.201 111.216C130.201 107.62 132.797 104.723 136.693 104.723C139.989 104.723 142.087 106.521 142.586 109.418H140.089C139.59 107.82 138.491 106.921 136.693 106.921C134.396 106.921 132.897 108.619 132.897 111.116C132.897 113.613 134.495 115.311 136.693 115.311C138.491 115.411 139.689 114.512 140.189 112.814ZM150.077 106.921C148.279 106.921 147.28 107.82 147.081 109.118H144.584C144.983 106.221 146.981 104.723 150.077 104.723C153.473 104.723 155.271 106.421 155.271 109.917V117.408H152.774V114.412C152.175 116.21 150.776 117.608 148.279 117.608C145.882 117.608 144.484 116.409 144.484 114.112C144.484 111.315 147.081 109.717 152.874 109.717V109.518C152.774 107.82 151.775 106.921 150.077 106.921ZM148.879 115.511C151.476 115.511 152.874 113.713 152.874 111.615C148.779 111.615 147.181 112.514 147.181 114.012C147.081 115.011 147.78 115.511 148.879 115.511Z" fill="#8293A6"/>
</svg>
