<svg width="200" height="200" viewBox="0 0 200 200" fill="none" xmlns="http://www.w3.org/2000/svg">
<path d="M110.817 107.263C110.076 107.448 109.149 107.448 108.594 107.448C105.352 107.448 103.314 105.596 103.314 102.354C103.314 99.297 105.166 97.5371 108.038 97.5371C109.242 97.5371 110.168 97.7224 110.817 98.0929C110.817 98.0002 110.817 107.263 110.817 107.263ZM115.448 110.505V86.0513H110.817V94.0173C110.076 93.5541 108.779 93.4615 107.575 93.4615C102.295 93.4615 98.5898 96.9813 98.5898 102.446C98.5898 108.189 102.48 111.339 108.408 111.339C110.817 111.339 113.41 111.061 115.448 110.505Z" fill="#8293A6"/>
<path d="M148.61 107.263C147.869 107.448 146.942 107.448 146.387 107.448C143.145 107.448 141.107 105.596 141.107 102.354C141.107 99.297 142.959 97.5371 145.831 97.5371C146.942 97.5371 147.961 97.7224 148.61 98.0929V107.263ZM153.241 110.505V86.0513H148.61V94.0173C147.869 93.5541 146.572 93.4615 145.368 93.4615C140.088 93.4615 136.383 96.9813 136.383 102.446C136.383 108.189 140.273 111.339 146.201 111.339C148.517 111.339 151.111 111.061 153.241 110.505Z" fill="#8293A6"/>
<path d="M122.768 98.0005C123.509 97.63 124.621 97.5374 125.454 97.5374C128.233 97.5374 130.271 99.2047 130.271 102.169C130.271 105.689 128.141 107.171 125.269 107.263V111.246C125.362 111.246 125.454 111.246 125.547 111.246C131.568 111.246 134.995 107.912 134.995 101.984C134.995 96.6111 131.197 93.3691 125.64 93.3691C122.861 93.3691 119.989 94.0175 118.137 94.8512V117.823H122.768V98.0005Z" fill="#8293A6"/>
<mask id="mask0_994_2106" style="mask-type:luminance" maskUnits="userSpaceOnUse" x="45" y="75" width="42" height="49">
<path d="M65.0601 76.0476L46.6272 86.0514L67.2831 98.093C67.4684 98.1856 67.6536 98.4635 67.6536 98.6487V116.248C67.6536 116.526 67.4684 116.804 67.2831 116.804L66.1716 117.36C66.079 117.452 65.9863 117.452 65.8011 117.452C65.6158 117.452 65.5232 117.452 65.4306 117.36L64.319 116.804C64.1338 116.711 63.9485 116.433 63.9485 116.248V100.687C63.9485 100.594 63.8559 100.409 63.7633 100.316L45.5156 89.7565V110.505C45.5156 110.968 45.8861 111.524 46.2566 111.802L65.0601 122.917C65.2453 123.01 65.5232 123.102 65.8011 123.102C66.079 123.102 66.3569 123.01 66.5421 122.917L85.3455 111.802C85.8087 111.524 86.0866 111.061 86.0866 110.505V89.7565L73.6744 96.8888C73.4892 96.9814 73.1187 96.9814 73.026 96.8888L71.9145 96.2404C71.8219 96.1478 71.7293 96.0551 71.6366 95.9625C71.6366 95.8699 71.6366 95.6846 71.6366 95.592V94.2952C71.6366 94.0173 71.8219 93.7394 72.0071 93.7394L85.1603 86.0514L66.5421 76.0476C66.3569 75.9549 65.9863 75.8623 65.8011 75.8623C65.5232 75.8623 65.2453 75.8623 65.0601 76.0476Z" fill="white"/>
</mask>
<g mask="url(#mask0_994_2106)">
<path d="M22.3594 95.3145L69.3216 55.9478L109.244 103.558L62.2819 142.925L22.3594 95.3145Z" fill="#8293A6"/>
</g>
</svg>
