<svg width="200" height="200" viewBox="0 0 200 200" fill="none" xmlns="http://www.w3.org/2000/svg">
<path d="M40.9461 84.1377C40.2345 84.1377 39.5229 84.341 39.0146 84.5443C38.4047 84.8493 37.7947 85.1543 37.3881 85.7642C36.9815 86.1708 36.5749 86.8824 36.2699 87.4923C35.9649 88.1023 35.8633 88.8139 35.8633 89.5255V114.939H39.2179V95.9298H43.4875V92.8801H39.2179V89.4238C39.2179 88.9155 39.4212 88.3056 39.7262 88.0006C40.1328 87.594 40.5394 87.3907 41.1494 87.3907H43.4875V84.1377H41.0477H40.9461Z" fill="#8293A6"/>
<path d="M64.6308 109.552V109.755C64.5292 110.263 64.3259 110.67 64.0209 111.178C63.6143 111.483 63.2076 111.686 62.5977 111.686H50.9073C50.399 111.686 49.7891 111.483 49.4841 111.076C49.0775 110.67 48.8742 110.263 48.8742 109.552V98.0644C48.8742 97.5561 49.0775 96.9462 49.4841 96.5396C49.8907 96.133 50.2974 95.9296 50.9073 95.9296H62.5977C63.106 95.9296 63.7159 96.133 64.1225 96.5396C64.5292 96.9462 64.7325 97.3528 64.7325 98.0644V109.45H64.6308V109.552ZM67.6805 109.857V109.653V98.0644C67.6805 97.3528 67.5788 96.6412 67.2739 96.0313C66.9689 95.4214 66.6639 94.8114 66.054 94.3032C65.6474 93.8965 64.9358 93.4899 64.3259 93.1849C63.7159 92.88 63.0043 92.7783 62.2927 92.7783H50.9073C50.1957 92.7783 49.4841 92.88 48.8742 93.1849C48.2642 93.4899 47.6543 93.7949 47.146 94.3032C46.7394 94.7098 46.3328 95.4214 45.9262 96.0313C45.6212 96.6412 45.5195 97.3528 45.5195 98.0644V109.45C45.5195 110.161 45.6212 110.873 45.9262 111.483C46.2311 112.093 46.5361 112.703 47.146 113.109C47.5526 113.516 48.2642 113.923 48.8742 114.228C49.4841 114.533 50.1957 114.634 50.9073 114.634H62.5977C63.2076 114.634 63.9192 114.533 64.5292 114.329C65.1391 114.126 65.749 113.719 66.1557 113.211C66.6639 113.618 67.2739 114.024 67.8838 114.329C68.4938 114.634 69.2053 114.736 69.9169 114.736V111.686C69.4087 111.686 69.002 111.483 68.4937 111.076C67.9855 110.771 67.7822 110.263 67.6805 109.857Z" fill="#8293A6"/>
<path d="M111.29 94.5069C110.883 94.1002 110.172 93.6936 109.562 93.287C108.952 92.8804 108.24 92.8804 107.529 92.8804H96.0416C95.33 92.8804 94.6184 92.982 94.0084 93.287C93.3985 93.4903 92.7886 93.8969 92.382 94.4052C91.9753 93.9986 91.2637 93.592 90.7555 93.287C90.1455 93.0837 89.4339 92.8804 88.7223 92.8804H77.2352C76.5236 92.8804 75.812 92.982 75.2021 93.287C74.5922 93.592 73.9822 93.8969 73.5756 94.5069C73.169 94.9135 72.7624 95.6251 72.4574 96.1334C72.1524 96.7433 72.0508 97.4549 72.0508 98.1665V114.94H75.3038V98.0648C75.3038 97.5565 75.5071 96.9466 75.9137 96.54C76.3203 96.1334 76.7269 95.93 77.4385 95.93H89.0273C89.5356 95.93 90.1455 96.1334 90.4505 96.4383C90.8571 96.7433 91.0604 97.1499 91.0604 97.7599V97.9632V114.736H94.3134V98.0648V97.8615C94.4151 97.3532 94.6184 96.9466 94.9233 96.54C95.33 96.235 95.7366 96.0317 96.3465 96.0317H107.935C108.545 96.0317 109.054 96.235 109.46 96.6416C109.867 97.0483 110.07 97.4549 110.07 98.1665V114.94H113.323V98.0648C113.323 97.3532 113.221 96.6416 112.916 96.0317C112.205 95.4218 111.697 94.9135 111.29 94.5069Z" fill="#8293A6"/>
<path d="M118.205 91.5587C118.815 91.5587 119.323 91.3554 119.73 90.9488C120.137 90.5421 120.34 90.0339 120.34 89.4239C120.34 88.814 120.137 88.2041 119.73 87.7974C119.323 87.3908 118.815 87.1875 118.205 87.1875C117.595 87.1875 117.087 87.3908 116.579 87.7974C116.172 88.2041 115.969 88.7123 115.969 89.4239C115.969 90.1355 116.172 90.5421 116.579 90.9488C116.985 91.3554 117.494 91.5587 118.205 91.5587Z" fill="#8293A6"/>
<path d="M118.408 94.5065C117.899 95.0148 117.594 95.6247 117.188 96.2346C116.883 96.8446 116.781 97.5561 116.781 98.2677V115.041H120.136V98.0644C120.136 97.5561 120.339 96.9462 120.746 96.6412C121.152 96.2346 121.559 96.0313 122.169 96.0313V92.7783C121.457 92.7783 120.746 92.88 120.136 93.1849C119.424 93.5916 118.814 93.8965 118.408 94.5065Z" fill="#8293A6"/>
<path d="M134.877 91.5587C135.487 91.5587 135.995 91.3554 136.402 90.9488C136.809 90.5421 137.012 90.0339 137.012 89.4239C137.012 88.814 136.809 88.2041 136.402 87.7974C135.995 87.3908 135.487 87.1875 134.877 87.1875C134.267 87.1875 133.657 87.3908 133.251 87.7974C132.844 88.2041 132.641 88.7123 132.641 89.4239C132.641 90.1355 132.844 90.5421 133.251 90.9488C133.657 91.3554 134.165 91.5587 134.877 91.5587Z" fill="#8293A6"/>
<path d="M134.572 94.5065C134.064 95.0148 133.759 95.6247 133.352 96.2346C133.047 96.8446 132.945 97.5561 132.945 98.2677V115.041H136.3V98.0644C136.3 97.5561 136.503 96.9462 136.808 96.6412C137.215 96.2346 137.621 96.0313 138.231 96.0313V92.7783C137.52 92.7783 136.808 92.88 136.198 93.1849C135.69 93.5916 135.08 93.8965 134.572 94.5065Z" fill="#8293A6"/>
<path d="M159.885 109.552V109.755C159.783 110.263 159.58 110.67 159.275 111.178C158.868 111.483 158.462 111.686 157.852 111.686H146.161C145.653 111.686 145.043 111.483 144.637 111.076C144.23 110.67 144.027 110.263 144.027 109.552V98.0644C144.027 97.5561 144.23 96.9462 144.637 96.5396C145.043 96.133 145.45 95.9296 146.161 95.9296H157.852C158.36 95.9296 158.97 96.133 159.275 96.5396C159.682 96.9462 159.885 97.3528 159.885 98.0644V109.552ZM163.646 111.178C163.24 110.873 163.036 110.365 163.036 109.755V109.552V98.0644C163.036 97.3528 162.935 96.6412 162.63 96.0313C162.325 95.4214 162.02 94.8114 161.41 94.3032C161.003 93.8965 160.292 93.4899 159.682 93.1849C159.072 92.88 158.36 92.7783 157.648 92.7783H145.958C145.246 92.7783 144.535 92.88 143.925 93.1849C143.315 93.4899 142.705 93.7949 142.197 94.3032C141.79 94.7098 141.384 95.4214 140.977 96.0313C140.672 96.6412 140.57 97.3528 140.57 98.0644V109.45C140.57 110.161 140.672 110.873 140.977 111.483C141.282 112.093 141.587 112.703 142.197 113.109C142.603 113.516 143.315 113.923 143.925 114.228C144.535 114.533 145.246 114.634 145.958 114.634H157.648C158.258 114.634 158.97 114.533 159.58 114.329C160.19 114.126 160.8 113.719 161.206 113.211C161.715 113.618 162.325 114.024 162.935 114.329C163.545 114.533 164.256 114.736 164.968 114.736V111.686C164.561 111.686 164.154 111.483 163.646 111.178Z" fill="#8293A6"/>
<path d="M125.117 114.838H128.167V84.5444H125.117V114.838Z" fill="#8293A6"/>
</svg>
