<svg width="200" height="200" viewBox="0 0 200 200" fill="none" xmlns="http://www.w3.org/2000/svg">
<path fill-rule="evenodd" clip-rule="evenodd" d="M143.709 99.1258L145.34 95.7563V99.1258H143.709ZM148.057 102.278V101.3L147.948 90.5391H146.753L144.361 95.5389L141.535 101.191L141.101 101.952L140.992 102.061C140.666 102.713 140.448 102.821 140.448 102.821H140.014L139.688 104.126H142.187L142.514 102.821H142.187C141.97 102.821 141.861 102.821 141.861 102.821V102.713C141.861 102.604 142.079 102.169 142.296 101.626L142.948 100.43H145.34V101.3C145.34 102.061 145.34 102.495 145.34 102.604C145.34 102.713 145.122 102.821 144.687 102.821H144.47L144.253 104.126H148.383L148.709 102.821H148.383C148.274 102.821 148.057 102.821 148.057 102.278Z" fill="#8293A6"/>
<path fill-rule="evenodd" clip-rule="evenodd" d="M138.385 101.626C138.276 102.169 138.167 102.495 138.059 102.604C138.059 102.604 138.059 102.713 137.733 102.713H136.972H136.428C135.668 102.713 135.668 102.604 135.668 102.604C135.668 102.386 135.776 101.843 135.885 101.191L136.863 97.3865H137.841H138.385H138.494C138.494 97.3865 138.494 97.4952 138.494 97.7126L138.385 98.2561H139.472L140.233 95.2127H139.146L139.037 95.7561C138.928 96.0822 138.82 96.1909 138.711 96.1909H138.167H137.298L138.385 91.6258H140.124C140.341 91.6258 140.45 91.6258 140.559 91.7345C140.667 91.7345 140.667 91.8432 140.667 92.0606L140.559 92.604L140.45 93.1475H141.537L142.189 90.4302H135.233L134.907 91.7345H135.233C135.45 91.7345 135.668 91.7345 135.776 91.8432C135.885 91.9519 135.776 92.0606 135.776 92.1693L134.798 95.9735L133.276 102.169C133.168 102.604 132.842 102.713 132.407 102.713H132.189L131.863 104.017H139.037L139.798 101.191H138.602L138.385 101.626Z" fill="#8293A6"/>
<path fill-rule="evenodd" clip-rule="evenodd" d="M117.08 99.1258L118.711 95.7563V99.1258H117.08ZM118.058 102.821H117.841L117.624 104.126H121.754L122.08 102.821H121.754C121.645 102.821 121.428 102.821 121.428 102.278L121.211 90.5391H120.015L115.341 99.9954L114.472 101.952C114.146 102.604 113.928 102.713 113.819 102.713H113.493L113.059 104.126H115.559L115.885 102.821H115.559C115.341 102.821 115.232 102.821 115.232 102.821L116.319 100.43H118.711V102.604C118.711 102.713 118.385 102.821 118.058 102.821Z" fill="#8293A6"/>
<path fill-rule="evenodd" clip-rule="evenodd" d="M160.775 92.3868C160.884 91.9521 161.21 91.8434 161.645 91.8434H161.862L162.188 90.5391H158.71L158.384 91.8434H158.71C158.928 91.8434 159.145 91.8434 159.254 91.9521C159.254 92.0608 159.362 92.1695 159.254 92.2782L157.623 98.9084L154.906 90.6478V90.5391H152.623L152.297 91.8434H152.623C153.058 91.8434 153.167 91.9521 153.167 91.9521C153.167 92.0608 153.167 92.4955 152.949 93.3651L150.993 101.3C150.776 102.061 150.667 102.495 150.558 102.713C150.45 102.821 150.232 102.93 149.797 102.93H149.58L149.254 104.234H152.732L153.058 102.93H152.732C152.515 102.93 152.297 102.93 152.189 102.821C152.189 102.713 152.08 102.604 152.189 102.495L153.819 95.9737L156.536 104.343H157.949L160.449 94.2346L160.775 92.3868Z" fill="#8293A6"/>
<path fill-rule="evenodd" clip-rule="evenodd" d="M132.622 92.7129C132.84 92.4955 133.057 92.4955 133.492 92.4955H133.818L134.253 90.5391H128.057L127.622 92.4955H128.166C128.601 92.4955 128.818 92.6042 128.818 92.6042C128.818 92.7129 128.818 92.8216 128.818 92.9303L127.948 96.1911L124.905 107.93C124.579 109.234 124.253 110.104 124.035 110.43C123.818 110.756 123.492 110.973 123.057 110.973H122.948V110.865V110.756C122.948 110.539 123.057 110.104 123.166 109.669L123.275 109.126H121.644L120.992 110.973L120.34 112.278L120.775 112.386L120.992 112.495H121.101C121.535 112.604 121.97 112.712 122.514 112.712H122.84C124.579 112.712 125.775 112.278 126.644 111.408C127.514 110.539 128.274 109.126 128.709 106.952L131.427 96.2998L132.296 93.039C132.405 92.9303 132.513 92.8216 132.622 92.7129Z" fill="#8293A6"/>
<path fill-rule="evenodd" clip-rule="evenodd" d="M97.5163 94.4524C97.4076 95.2133 97.1903 96.0828 96.9729 97.0611C96.5381 98.9088 96.1033 100.431 95.5599 101.409C94.9077 102.822 94.4729 103.039 94.2555 103.039C94.1468 103.039 94.0382 103.039 94.0382 102.93C93.8208 102.604 93.4947 101.517 94.5816 97.2784C95.0164 95.4306 95.4512 93.9089 95.8859 92.9307C96.3207 91.9525 96.7555 91.409 97.1902 91.409C97.2989 91.409 97.4076 91.5177 97.5163 91.6264C97.7337 92.1699 97.7337 93.0394 97.5163 94.4524ZM98.9293 99.561C99.1467 98.9088 99.3641 98.2567 99.5815 97.3871C100.125 95.2133 100.234 93.4742 99.7989 92.2785C99.5815 91.5177 99.2554 90.9742 98.712 90.6481C98.3859 90.4308 98.0598 90.3221 97.625 90.2134H97.2989C96.6468 90.2134 96.1033 90.4308 95.4512 90.7568C94.9077 91.0829 94.4729 91.5177 94.0382 92.1699C93.0599 93.3655 92.2991 95.1046 91.7556 97.2784C91.2121 99.4523 91.1034 101.191 91.4295 102.387C91.8643 103.691 92.6251 104.452 93.8208 104.452C94.4729 104.452 95.1251 104.235 95.6686 103.909C96.212 103.583 96.6468 103.148 97.0816 102.604C97.1903 102.387 97.4076 102.17 97.5163 101.952L97.7337 101.735C98.2772 100.865 98.6033 100.213 98.9293 99.561Z" fill="#8293A6"/>
<path fill-rule="evenodd" clip-rule="evenodd" d="M111.645 102.604C111.536 102.495 111.645 102.386 111.645 102.278L114.145 92.278C114.253 91.9519 114.471 91.7345 114.797 91.7345C114.797 91.7345 114.906 91.7345 115.014 91.7345H115.232L115.558 90.4302H111.101L110.775 91.7345H111.101C111.319 91.7345 111.536 91.7345 111.645 91.8432C111.645 91.9519 111.753 92.0606 111.645 92.1693L109.145 102.169C109.036 102.386 109.036 102.495 108.819 102.604C108.71 102.713 108.601 102.713 108.384 102.713H108.275L107.949 104.126H112.188L112.514 102.821H112.188C111.862 102.821 111.753 102.713 111.645 102.604Z" fill="#8293A6"/>
<path fill-rule="evenodd" clip-rule="evenodd" d="M106.209 94.0172C105.883 95.2129 105.448 96.0824 104.904 96.5172C104.578 96.7346 104.252 96.8433 103.817 96.8433L105.013 91.8434H105.448C105.774 91.8434 106.1 91.9521 106.317 92.1695C106.426 92.3868 106.426 93.039 106.209 94.0172ZM108.274 95.3216C108.491 94.8868 108.6 94.452 108.817 93.9086C109.143 92.4955 109.035 91.5173 108.274 90.9738H108.165C107.839 90.7565 107.404 90.5391 106.861 90.5391H106.752C106.643 90.5391 106.643 90.5391 106.535 90.5391C106.317 90.5391 105.991 90.5391 105.774 90.5391C105.557 90.5391 105.23 90.5391 105.013 90.5391H101.752L101.426 91.8434H101.752C101.97 91.8434 102.187 91.8434 102.296 91.9521C102.404 92.0608 102.404 92.1695 102.296 92.2782L99.7958 102.278C99.7958 102.387 99.6871 102.495 99.6871 102.495C99.5784 102.713 99.2524 102.713 98.9263 102.713H98.8176L98.3828 104.126H102.731L103.057 102.821H102.839C102.513 102.821 102.404 102.713 102.296 102.713C102.296 102.713 102.296 102.604 102.296 102.387L103.274 98.1476H103.6L104.252 104.126H107.078L107.404 102.93L107.187 102.821L106.97 102.713C106.752 102.495 106.752 102.169 106.643 101.626V101.408L106.209 97.4954C106.535 97.3867 106.752 97.1694 106.97 96.952C107.513 96.5172 107.948 95.9737 108.274 95.3216Z" fill="#8293A6"/>
<path fill-rule="evenodd" clip-rule="evenodd" d="M89.1452 101.952C89.0365 102.386 88.8192 102.495 88.4931 102.495H88.0583H87.1888C86.5366 102.495 86.4279 102.386 86.4279 102.386C86.4279 102.169 86.5366 101.408 86.6453 101.191L88.9278 92.278C89.0365 91.8432 89.3626 91.7345 89.7974 91.7345H89.9061L90.2322 90.4302H85.7757L85.4497 91.7345H85.7757C85.9931 91.7345 86.2105 91.7345 86.3192 91.8432C86.4279 91.9519 86.3192 92.0606 86.3192 92.1693L83.8193 102.169C83.8193 102.278 83.7106 102.386 83.6019 102.495C83.6019 102.604 83.4932 102.604 83.3845 102.604C83.2758 102.713 83.0584 102.713 82.841 102.713H82.6236L82.4062 104.126H89.9061L90.6669 101.082H89.3626L89.1452 101.952Z" fill="#8293A6"/>
<path fill-rule="evenodd" clip-rule="evenodd" d="M81.8637 95.1044H83.3854L84.3636 91.0827H84.2549C83.9289 90.974 83.6028 90.7567 83.168 90.648L82.8419 90.5393C81.9724 90.3219 80.9941 90.1045 80.1246 90.1045C75.4508 90.1045 72.0813 93.6914 70.3422 100.865C69.4727 104.126 69.4727 106.843 70.2335 108.8C70.9944 110.756 72.5161 111.843 74.6899 111.843C75.8856 111.843 77.4073 111.517 79.3637 110.865H79.4724L80.7768 105.756L81.755 101.843H76.6464L76.2116 103.582H76.5377C76.9725 103.582 77.2986 103.691 77.4073 103.8C77.516 103.909 77.516 104.126 77.516 104.343L76.2116 109.887C75.8856 109.995 75.6682 110.104 75.3421 110.104C74.7986 110.104 74.3639 109.887 74.0378 109.561C73.1682 108.365 73.2769 105.539 74.3639 101.191C75.2334 97.8217 75.9943 95.5392 76.9725 94.1261C77.842 92.8218 78.8203 92.061 80.1246 92.061C80.9941 92.061 81.6463 92.2784 81.9724 92.7131C82.2985 93.1479 82.4072 93.8001 82.1898 94.6696L81.8637 95.1044Z" fill="#8293A6"/>
<path fill-rule="evenodd" clip-rule="evenodd" d="M166.428 93.5829H167.623L168.275 90.8655L168.058 90.7568C167.949 90.7568 167.841 90.6481 167.732 90.6481C166.971 90.3221 166.319 90.2134 165.667 90.2134C164.689 90.2134 163.819 90.5395 163.058 91.3003C162.297 91.9525 161.863 92.9307 161.536 94.0176C161.102 95.648 161.536 97.1697 162.732 98.3654L163.276 98.8001C163.928 99.4523 164.036 100.104 163.928 100.974C163.602 102.387 162.949 103.148 162.08 103.148C161.754 103.148 161.536 103.039 161.319 102.93C161.21 102.93 161.21 102.822 161.102 102.713C160.884 102.387 160.884 101.844 161.102 101.083L161.21 100.865H160.015L159.254 103.909L159.471 104.017C160.015 104.235 160.558 104.343 160.993 104.452C161.102 104.452 161.21 104.452 161.21 104.452C161.428 104.561 161.754 104.561 161.971 104.561C163.058 104.561 164.036 104.126 164.797 103.474C165.558 102.713 166.21 101.735 166.536 100.431C166.971 98.8001 166.536 97.2784 165.232 95.9741L164.797 95.4307C164.254 94.7785 164.036 94.1263 164.145 93.4742C164.471 92.2785 165.015 91.6264 165.884 91.6264C166.21 91.6264 166.428 91.7351 166.536 91.8438C166.754 92.0612 166.754 92.6046 166.536 93.3655L166.428 93.5829Z" fill="#8293A6"/>
<path d="M61.103 87.9307H33.9297V115.104H61.103V87.9307Z" fill="#8293A6"/>
<path fill-rule="evenodd" clip-rule="evenodd" d="M42.6258 108.8C37.8433 108.8 36.5389 105.757 37.2998 101.409C38.0607 97.2786 40.9954 94.1265 45.5605 94.1265C47.2996 94.1265 48.4952 94.4525 49.3647 94.996L47.7344 97.496C47.2996 97.2786 46.7561 97.0612 45.5605 97.0612C43.3866 97.0612 42.0823 98.3655 41.5388 101.518C40.9954 104.561 41.5388 106.083 42.9518 106.083C43.2779 106.083 43.4953 105.974 43.7127 105.974L44.3649 102.605H43.0605L43.4953 100.213H48.6039L47.0822 108.148C45.9953 108.474 44.6909 108.8 42.6258 108.8Z" fill="#8293A6"/>
<path fill-rule="evenodd" clip-rule="evenodd" d="M48.4961 108.799L49.0396 105.973C50.1265 105.865 51.2134 104.995 51.4308 103.582L53.1699 94.3433H57.3002L55.6698 103.147C54.909 106.843 52.083 108.691 48.4961 108.799Z" fill="#8293A6"/>
<path fill-rule="evenodd" clip-rule="evenodd" d="M56.2113 108.582C55.6678 108.582 55.233 108.147 55.233 107.604C55.233 107.061 55.6678 106.626 56.2113 106.626C56.7547 106.626 57.1895 107.061 57.1895 107.604C57.1895 108.147 56.7547 108.582 56.2113 108.582ZM56.2113 106.517C55.5591 106.517 55.0156 107.061 55.0156 107.713C55.0156 108.365 55.5591 108.908 56.2113 108.908C56.8634 108.908 57.4069 108.365 57.4069 107.713C57.4069 106.952 56.8634 106.517 56.2113 106.517Z" fill="#8293A6"/>
<path fill-rule="evenodd" clip-rule="evenodd" d="M56.5375 107.495C56.4288 107.604 56.3201 107.604 56.2114 107.604H56.1027L56.2114 107.278H56.4288H56.5375V107.495ZM56.6462 107.061C56.6462 107.061 56.5375 107.061 56.4288 107.061H55.8854L55.668 108.256H55.8854L55.994 107.821H56.1027H56.2114L56.3201 107.93C56.4288 108.039 56.4288 108.147 56.4288 108.256H56.6462C56.5375 108.039 56.5375 107.93 56.4288 107.821L56.3201 107.713C56.4288 107.713 56.5375 107.604 56.5375 107.604C56.6462 107.495 56.6462 107.495 56.6462 107.387V107.169V107.061Z" fill="#8293A6"/>
</svg>
