<svg width="200" height="200" viewBox="0 0 200 200" fill="none" xmlns="http://www.w3.org/2000/svg">
<path fill-rule="evenodd" clip-rule="evenodd" d="M96.7042 102.942H92.9269L94.8155 98.1231L96.7042 102.942ZM97.9633 106.294L98.8027 108.494H103L96.7042 92.99H92.9269L86.6315 108.494H90.7235L91.5629 106.294H97.9633ZM80.0213 108.389V99.1707L75.9293 103.99L71.8372 99.1707V108.389H67.7452V92.99H71.7323L75.8243 98.3326L79.9164 92.99H83.9035V108.494H80.0213V108.389ZM105.518 92.99V108.494H109.61V96.5517H115.276V92.99H105.518ZM128.391 102.313V108.389H132.483V92.99H128.391V98.7517H122.306V92.99H118.214V108.494H122.306V102.418H128.391V102.313ZM158.085 108.389V96.5517H153.258V92.99H166.898V96.5517H162.072V108.494H158.085V108.389ZM146.333 99.5897V108.389H150.425V92.99H146.963L140.562 101.685V92.99H136.47V108.494H139.933L146.333 99.5897ZM34.4844 95.7137C34.4844 93.7233 35.2188 91.8376 36.6878 90.4758C38.1567 89.1139 39.9404 88.2759 41.934 88.2759H59.2464V92.0472H41.934C40.9896 92.0472 40.0453 92.4662 39.3109 93.0947C38.5764 93.828 38.2616 94.6661 38.2616 95.7137V101.999C38.0518 103.675 36.7927 105.037 35.1139 105.247L34.4844 105.351V95.7137ZM34.4844 113.103V109.332H51.7968C52.7411 109.332 53.6854 108.913 54.4199 108.285C55.1544 107.551 55.4691 106.713 55.4691 105.666V99.6945C55.4691 97.9136 56.8331 96.3422 58.6168 96.1327L59.2464 96.028V105.666C59.2464 107.656 58.5119 109.542 57.043 110.904C55.5741 112.265 53.7903 113.103 51.7968 113.103H34.4844ZM49.1737 105.456V100.637L46.8654 103.256L44.5571 100.637V105.456H41.5143V96.028H44.3472L46.7605 99.0659L49.1737 96.028H52.0066V105.456H49.1737Z" fill="#8293A6"/>
</svg>
