<svg width="200" height="200" viewBox="0 0 200 200" fill="none" xmlns="http://www.w3.org/2000/svg">
<path fill-rule="evenodd" clip-rule="evenodd" d="M37.5511 87.2298C40.8677 86.0897 44.1844 85.0532 47.7084 84.7423C50.4032 84.535 53.098 84.3277 55.7928 84.7423C56.622 84.8459 57.6584 85.0532 58.1767 85.7788C58.384 86.9189 58.4876 88.5772 57.2439 89.1991C56.8293 89.1991 56.4147 88.8881 56.0001 89.0954C55.5855 89.4064 55.4819 89.9246 55.2746 90.4428C54.5491 92.5158 54.1345 94.6923 53.6162 96.7653C52.5798 101.015 51.9579 105.472 51.7506 109.825C51.647 111.068 51.5433 112.52 50.5069 113.452C49.885 113.867 49.0558 114.385 48.3303 113.971C47.9157 113.763 47.3975 113.452 47.2938 112.934C46.8792 111.379 46.7756 109.825 46.8792 108.27C47.2938 102.88 48.7449 97.6981 49.885 92.4121C50.0923 91.3757 50.5069 90.3392 50.4032 89.3027C49.4704 89.4064 48.6412 89.7173 47.7084 89.821C46.5683 89.9246 45.2209 89.9246 44.1844 90.6501C43.7698 90.9611 43.5626 91.4793 43.5626 91.8939C43.3553 94.3814 43.0443 96.8689 42.5261 99.3564C41.9042 102.466 41.1787 105.472 40.3495 108.477C40.1422 109.721 39.5203 110.965 38.4839 111.69C37.862 112.105 37.1365 112.001 36.411 111.69C36.2037 111.172 35.9964 110.654 35.9964 110.136C35.7891 107.441 36.5146 104.746 37.2401 102.155C37.5511 101.118 37.5511 100.082 37.862 99.0455C38.2766 96.558 39.1058 94.1741 39.4167 91.6866C37.7584 92.2048 35.9964 92.8267 34.2344 92.8267C33.5089 92.8267 32.6797 92.4121 32.6797 91.6866C32.6797 90.7538 32.9906 89.6137 33.8198 88.9918C34.9599 87.9553 36.3073 87.748 37.5511 87.2298ZM104.092 91.3757C104.507 91.1684 105.025 91.0647 105.543 91.3757C106.372 91.7902 107.098 92.5158 107.823 93.2413C108.341 93.034 108.756 92.6194 109.274 92.6194C109.793 92.8267 110.103 93.3449 110.414 93.7595C111.865 96.0397 112.384 98.6309 112.487 101.326C112.487 104.539 111.555 107.648 109.689 110.239C108.652 111.69 107.305 112.934 105.543 113.556C104.403 113.971 103.159 113.971 102.019 113.556C99.8425 112.727 98.1842 110.654 97.7696 108.374C96.6295 103.088 98.3915 97.4908 101.812 93.4486C102.537 92.6194 103.263 91.7902 104.092 91.3757ZM104.196 97.1798C102.123 100.289 101.19 104.124 101.604 107.855C101.708 108.892 102.019 110.136 103.159 110.55C104.921 109.928 105.854 108.27 106.683 106.715C108.134 103.606 108.963 99.8747 107.927 96.558C107.72 95.9361 107.305 95.1069 106.58 95.3142C105.439 95.4179 104.818 96.3507 104.196 97.1798ZM135.704 91.9975C135.911 91.5829 136.222 90.9611 136.844 91.1684C137.673 91.5829 138.503 92.2048 139.124 92.9304C139.643 93.3449 139.435 94.0705 139.228 94.6923C138.192 98.1127 137.155 101.533 136.533 105.057C139.539 101.429 142.648 97.8017 145.965 94.3814C146.898 93.5522 147.727 92.5158 148.867 91.8939C149.489 91.4793 150.111 92.1012 150.526 92.5158C150.94 93.034 151.562 93.7595 151.355 94.485C151.044 95.4179 150.215 95.9361 149.593 96.6616C149.178 97.0762 149.178 97.5944 148.971 98.1127C148.142 100.911 147.727 103.813 147.416 106.612C147.209 108.788 147.209 110.965 146.898 113.141C146.898 113.452 146.794 113.867 146.483 114.178C145.861 114.385 145.24 114.074 144.721 113.867C143.789 113.349 142.752 112.623 142.441 111.483C142.234 110.447 142.441 109.306 142.648 108.27C143.063 106.093 143.685 103.917 144.099 101.637C142.027 104.021 140.161 106.404 138.192 108.892C137.259 110.032 136.326 111.276 135.497 112.52C135.082 113.038 134.668 113.763 133.942 113.66C133.009 113.452 132.18 112.83 131.455 112.209C130.936 111.794 131.144 110.965 131.144 110.343C131.766 105.886 133.009 101.533 134.149 97.1798C134.668 95.5215 134.979 93.6559 135.704 91.9975ZM155.086 91.272C155.293 91.0647 155.708 91.272 155.915 91.3757C156.641 91.8939 157.263 92.4121 157.781 93.1376C158.092 93.5522 157.884 94.0705 157.677 94.485C156.952 96.1434 156.226 97.8017 156.019 99.6674C155.915 100.186 156.019 101.118 156.744 101.118C158.195 101.118 159.543 100.704 160.89 100.289C161.616 97.9054 162.238 95.5215 163.378 93.2413C163.585 92.8267 163.896 92.2048 164.414 92.4121C165.243 92.8267 166.072 93.4486 166.694 94.1741C167.213 94.796 166.591 95.6252 166.383 96.247C165.347 98.9418 164.414 101.74 163.896 104.539C163.585 106.301 163.378 108.166 163.067 109.928C162.963 111.379 163.067 112.934 162.445 114.281C162.238 114.385 162.134 114.385 161.927 114.489C161.097 113.971 160.268 113.556 159.439 113.038C158.817 112.727 158.403 112.105 158.506 111.379C158.817 108.685 159.439 106.093 160.061 103.399C158.506 103.813 157.055 104.331 155.397 104.539C154.464 104.642 153.635 104.021 153.117 103.399C152.288 102.362 151.458 101.118 151.666 99.771C151.977 97.5944 152.702 95.5215 153.531 93.4486C154.153 92.7231 154.464 91.8939 155.086 91.272ZM69.5778 91.9975C72.5835 91.4793 75.5893 91.3757 78.595 91.1684C80.1497 90.9611 81.7044 91.6866 82.5336 93.034C82.7409 93.4486 82.9482 93.8632 82.7409 94.2777C82.5336 94.485 82.2226 94.5887 81.9117 94.6923C80.5643 95.0033 79.2169 94.8996 77.8695 95.1069C76.5221 99.3564 75.4856 103.71 74.7601 108.063C74.4492 109.928 74.3455 111.898 73.7236 113.763C72.6872 113.763 71.858 113.349 71.0288 112.83C70.6142 112.52 70.096 112.209 70.096 111.587C69.9924 110.343 70.3033 109.099 70.5106 107.855C71.3398 103.606 72.3762 99.4601 73.4127 95.2106C72.1689 95.2106 70.8215 95.5215 69.5778 95.4179C68.5413 95.1069 68.2304 93.8632 68.0231 92.8267C68.4377 92.3085 68.9559 92.1012 69.5778 91.9975ZM84.3992 91.7902C83.7773 92.1012 82.8445 92.4121 82.6372 93.1376C82.7409 94.2778 83.2591 95.5215 84.1919 96.1434C83.0518 101.015 81.808 105.886 80.4606 110.758C80.357 111.379 80.1497 112.312 80.7716 112.83C81.3935 113.245 82.2226 113.245 82.9482 113.556C83.4664 113.66 84.0883 113.971 84.5028 113.452C84.9174 112.934 84.9174 112.312 85.1247 111.69C85.5393 109.099 85.7466 106.404 86.4721 103.917C87.094 104.746 87.7159 105.679 88.7523 105.99C89.5815 106.093 90.4107 105.472 91.0326 104.953C92.8982 103.399 94.4529 101.533 95.593 99.4601C96.2149 98.32 96.7331 96.9726 96.3185 95.7288C95.593 93.4486 93.5201 91.9975 91.2399 91.3757C89.0633 90.8574 86.5758 91.0647 84.3992 91.7902ZM88.2341 95.8324C88.7523 95.2106 89.5815 95.3142 90.307 95.3142C91.1362 95.3142 92.2763 95.3142 92.7945 96.247C93.1055 97.2835 92.4836 98.2163 91.8617 98.9418C90.5143 100.497 88.7523 101.74 86.7831 102.466C86.9904 100.911 87.3013 99.3564 87.6122 97.8017C87.8195 96.9726 87.9232 96.3507 88.2341 95.8324ZM116.219 92.1012C117.67 91.6866 119.121 91.4793 120.572 91.272C122.956 90.9611 125.443 91.1684 127.412 92.6194C129.071 93.7595 130.107 95.8324 129.589 97.8017C129.174 99.771 127.62 101.222 125.961 102.155C127.516 103.088 128.76 104.85 128.449 106.715C128.138 108.477 127.101 110.136 125.858 111.379C124.821 112.416 123.474 113.452 121.919 113.66C120.468 113.867 119.224 112.83 118.292 111.794C118.084 112.312 117.981 112.934 117.67 113.452C117.462 113.763 116.944 113.763 116.53 113.556C115.7 113.038 114.871 112.416 114.249 111.69C113.938 111.379 113.938 110.861 114.042 110.447C114.249 109.514 114.56 108.685 114.871 107.855C116.322 104.124 117.151 100.082 117.566 96.1434C116.219 95.8324 115.182 94.5887 114.975 93.1376C115.079 92.5158 115.7 92.2048 116.219 92.1012ZM121.09 94.796C121.297 95.2106 121.712 95.6252 121.712 96.0397C121.712 97.5944 121.401 99.2528 121.09 100.807C122.956 100.082 124.718 99.0455 125.858 97.3871C126.376 96.6616 126.376 95.4179 125.443 94.8996C124.199 94.1741 122.437 94.485 121.09 94.796ZM120.468 103.813C120.054 105.782 119.328 107.752 118.81 109.721C120.986 109.617 123.267 108.581 124.303 106.612C124.821 105.679 124.821 104.331 123.785 103.813C122.748 103.399 121.505 103.606 120.468 103.813ZM60.8715 92.1012C59.5241 92.3085 58.073 92.3085 56.8293 92.7231C56.4147 92.9303 55.7928 93.2413 56.0001 93.8632C56.2074 94.796 56.4147 96.1434 57.5548 96.3507C57.0366 97.6981 56.5183 98.9418 56.0001 100.186C55.3782 101.948 54.9636 103.813 54.5491 105.575C54.1345 107.234 53.8235 108.996 54.0308 110.758C54.1345 111.69 54.6527 112.727 55.5855 113.141C57.1402 113.867 58.9022 113.66 60.5605 113.452C62.0116 113.245 63.5663 112.934 64.9137 112.416C65.4319 112.312 65.7429 111.794 65.6392 111.276C65.5356 110.654 65.6392 109.928 65.121 109.514C64.1882 109.306 63.359 109.721 62.5298 110.032C61.1824 110.447 59.835 110.55 58.4876 110.447C57.7621 110.447 57.8657 109.617 57.8657 109.099C58.073 107.337 58.4876 105.679 59.1095 104.021C60.6642 104.021 62.2189 104.021 63.7736 103.917C64.0845 103.813 64.7064 103.813 64.7064 103.295C64.7064 102.673 64.7064 102.051 64.7064 101.429C64.4991 101.118 64.0845 101.015 63.7736 101.015C62.4262 100.807 61.0788 101.118 59.7314 101.118C60.146 99.6674 60.6642 98.32 61.2861 96.8689C61.597 96.3507 61.8043 95.5215 62.4262 95.4179C64.2918 95.0033 66.0538 95.6251 67.9194 95.4179C67.7121 94.5887 67.2976 93.8632 66.7793 93.2413C66.3647 92.6194 65.7429 92.1012 65.0173 91.9975C63.6699 91.8939 62.2189 92.1012 60.8715 92.1012Z" fill="#8293A6"/>
</svg>
