<svg width="200" height="200" viewBox="0 0 200 200" fill="none" xmlns="http://www.w3.org/2000/svg">
<path d="M97.8069 74.4829C96.3103 74.67 94.7202 75.1377 93.3172 75.7924C93.3172 75.7924 94.9073 78.9726 95.8426 81.0304C97.0586 84.1171 97.3392 87.0168 97.3392 87.0168C98.0875 86.5491 99.21 86.2685 100.052 86.2685C100.052 86.2685 100.052 83.3689 99.397 80.2822C98.5552 76.7278 97.8069 74.4829 97.8069 74.4829ZM102.951 74.4829C102.951 74.4829 102.11 76.6343 101.361 80.2822C100.707 83.3689 100.8 86.2685 100.8 86.2685C101.735 86.362 102.764 86.7362 103.513 87.0168C103.513 87.0168 103.793 84.2107 105.009 81.0304C105.851 78.9726 107.535 75.7924 107.535 75.7924C106.038 75.2312 104.448 74.67 102.951 74.4829ZM89.8563 77.8502C88.5468 78.7856 87.4244 79.908 86.489 81.2175C86.489 81.2175 89.108 82.4335 91.0723 84.3042C93.6913 86.8297 94.6267 89.4487 94.6267 89.4487C95.0944 88.7004 95.8426 88.0457 96.5909 87.4845C96.5909 87.4845 95.6556 84.3978 93.9719 82.1529C92.4753 79.8145 89.8563 77.8502 89.8563 77.8502ZM110.808 77.8502C110.808 77.8502 108.189 79.7209 106.693 81.9658C105.103 84.2107 104.074 87.2974 104.074 87.2974C104.822 87.8586 105.477 88.5134 106.038 89.2617C106.038 89.2617 106.973 86.6427 109.592 84.1172C111.557 82.2465 114.176 81.0304 114.176 81.0304C113.24 80.0015 112.118 78.7856 110.808 77.8502ZM84.7118 84.3042C84.0571 85.7073 83.5894 87.2039 83.4023 88.8875C83.4023 88.8875 85.8343 88.7004 89.108 89.8229C91.8206 90.9453 93.6913 92.629 93.6913 92.629C93.6913 91.7871 93.8784 90.8518 94.2525 90.1035C94.2525 90.1035 93.4107 88.5133 90.7917 86.6426C87.9856 84.8654 84.7118 84.3042 84.7118 84.3042ZM115.953 84.3042C115.953 84.3042 112.773 84.8654 109.967 86.8297C107.348 88.6069 106.506 90.2906 106.506 90.2906C106.786 91.0388 107.067 91.8807 107.067 92.816C107.067 92.816 108.938 91.0389 111.65 90.01C115.018 88.7004 117.356 89.0746 117.356 89.0746C117.075 87.2039 116.608 85.7073 115.953 84.3042Z" fill="#8293A6"/>
<path d="M86.397 91.5068C84.4327 91.5068 83.2168 91.7874 83.2168 91.7874C83.2168 93.3775 83.4973 94.9677 83.965 96.4642C83.965 96.4642 86.1164 95.3418 88.8289 95.2483C92.1962 95.1547 94.5346 95.9966 94.5346 95.9966C94.067 95.2483 93.8799 94.4065 93.7863 93.4711C93.7863 93.4711 91.0738 91.9746 88.6418 91.6004C87.8 91.6004 87.0517 91.5068 86.397 91.5068ZM114.458 91.5068C113.803 91.5068 113.055 91.6004 112.213 91.6939C109.688 91.9745 107.068 93.5646 107.068 93.5646C106.975 94.4065 106.788 95.3418 106.32 96.0901C106.32 96.0901 108.565 95.2483 112.026 95.3419C114.738 95.4354 116.89 96.5578 116.89 96.5578C117.357 95.0612 117.638 93.4711 117.638 91.881C117.451 91.881 116.422 91.5068 114.458 91.5068ZM91.635 96.7449C91.0738 96.7449 90.419 96.8384 89.8578 96.9319C86.4905 97.5867 84.9939 98.8026 84.9939 98.8026C85.6487 100.206 86.4905 101.515 87.613 102.731C87.613 102.731 89.016 101.422 91.4479 100.206C94.7217 98.7091 98.089 98.9897 98.089 98.9897C96.873 98.5221 95.9377 97.7738 95.1894 96.8384C95.0958 96.8384 93.5057 96.6514 91.635 96.7449ZM107.349 96.7449C106.414 96.7449 105.572 96.8384 105.572 96.8384C104.824 97.7738 103.795 98.6156 102.672 98.9897C102.672 98.9897 106.04 98.7091 109.313 100.206C111.745 101.422 113.148 102.731 113.148 102.731C114.271 101.515 115.113 100.206 115.767 98.8026C115.767 98.8026 114.271 97.5867 110.716 96.9319C109.687 96.7449 108.378 96.7449 107.349 96.7449ZM100.334 99.3639C93.3186 99.3639 89.2031 104.508 89.2031 104.508C90.419 105.631 91.8221 106.473 93.3186 107.127C93.3186 107.127 95.47 103.012 100.334 103.012C105.104 103.012 107.349 107.127 107.349 107.127C108.846 106.473 110.249 105.631 111.465 104.508C111.465 104.508 107.349 99.3639 100.334 99.3639ZM34.4844 111.804V113.114H36.2616V124.245H34.4844V125.46H39.2547V124.245H37.4775V120.129H40.0965C41.4061 120.129 42.3414 119.942 43.3703 119.007C44.2121 118.165 44.6798 117.136 44.6798 115.92C44.6798 114.704 44.1186 113.488 43.1833 112.74C42.2479 112.085 41.1254 111.898 40.003 111.898H34.4844V111.804ZM95.2829 111.804V113.02H96.873V117.697C96.1248 116.2 94.4411 115.171 92.7575 115.171C89.9514 115.171 87.613 117.603 87.613 120.41C87.613 121.345 87.8936 122.467 88.4548 123.309C89.2966 124.712 91.1673 125.741 92.6639 125.741C94.4411 125.741 95.9377 124.899 96.7795 123.309V125.367H99.6791V124.151H97.9019V111.804H95.2829ZM106.227 111.804V113.114H108.004V124.245H106.227V125.46H110.903V124.245H109.313V113.114H112.026C112.961 113.114 113.897 113.114 114.738 113.862C115.393 114.517 115.674 115.359 115.674 116.388C115.674 117.51 115.113 118.539 114.177 119.1C113.335 119.661 112.307 119.661 111.278 119.661H110.716L114.926 125.554H117.545V124.338H115.767L112.961 120.597C115.206 120.597 117.077 118.726 117.077 116.388C117.077 115.078 116.516 113.862 115.58 112.927C114.458 112.085 113.429 111.991 112.119 111.991H106.227V111.804ZM120.538 111.804V113.768H121.754V111.804H120.538ZM161.507 111.804V113.02H163.097V117.697C162.348 116.2 160.665 115.171 158.981 115.171C156.175 115.171 153.837 117.603 153.837 120.41C153.837 121.345 154.117 122.467 154.678 123.309C155.52 124.712 157.391 125.741 158.888 125.741C160.665 125.741 162.161 124.899 163.003 123.309V125.367H165.903V124.151H164.313V111.804H161.507ZM37.5711 113.114H40.003C40.8448 113.114 41.4996 113.207 42.2479 113.768C42.9027 114.33 43.3703 115.078 43.3703 115.92C43.3703 116.762 43.0897 117.51 42.435 118.071C41.7802 118.632 41.0319 118.726 40.1901 118.726H37.6646L37.5711 113.114ZM50.1985 115.265C47.2989 115.265 45.054 117.697 45.054 120.503C45.054 123.309 47.4859 125.741 50.292 125.741C52.3498 125.741 54.2205 124.525 55.0623 122.654H53.6593C52.911 123.964 51.6015 124.619 50.1985 124.619C48.1407 124.619 46.3635 123.029 46.2699 120.877H55.4365V120.41C55.4365 117.51 53.0981 115.265 50.1985 115.265ZM70.3088 115.265C68.9057 115.265 67.5962 115.92 66.9415 117.229V115.452H64.0418V116.668H65.819V124.338H64.0418V125.554H68.6251V124.338H67.035V120.222C67.035 119.287 67.035 118.445 67.6897 117.697C68.2509 117.042 69.1863 116.762 70.1217 116.762C71.057 116.762 72.1795 116.949 72.7407 117.978C73.2084 118.726 73.3019 119.568 73.3019 120.503V124.525H71.5247V125.741H76.108V124.525H74.3308V120.035C74.3308 118.819 74.0502 117.884 73.7696 117.416C73.2084 115.826 71.5247 115.265 70.3088 115.265ZM81.4396 115.265C78.5399 115.265 76.2015 117.51 76.2015 120.503C76.2015 123.309 78.4464 125.741 81.4396 125.741C84.4327 125.741 86.6776 123.309 86.6776 120.41C86.6776 117.51 84.3392 115.265 81.4396 115.265ZM128.395 115.265C126.992 115.265 125.682 115.92 124.653 116.855C123.811 117.791 123.157 119.1 123.157 120.597C123.157 123.403 125.402 125.835 128.395 125.835C130.546 125.835 132.604 124.525 133.446 122.467H132.043C131.481 123.777 130.078 124.619 128.582 124.619C126.337 124.619 124.56 122.841 124.56 120.69C124.56 118.539 126.337 116.668 128.488 116.668C129.891 116.668 131.201 117.416 131.949 118.632H133.165V115.546H131.949V116.949C131.014 115.826 129.798 115.265 128.395 115.265ZM139.058 115.265C137.187 115.265 135.597 116.107 134.662 117.697C134.194 118.445 133.82 119.1 133.82 120.503C133.82 121.625 134.1 122.561 134.568 123.309C135.41 124.712 137.094 125.741 138.964 125.741C140.742 125.741 142.238 124.899 143.08 123.309V125.367H145.98V124.151H144.389V116.481H145.98V115.265H143.08V117.416C142.332 116.013 140.929 115.265 139.058 115.265ZM56.0912 115.359V116.575H57.8684V124.245H56.0912V125.46H60.6745V124.245H59.0844V120.222C59.0844 118.071 60.0198 116.762 62.2646 116.668V115.452C60.8616 115.546 59.5521 116.107 59.0844 117.51V115.452H56.0912V115.359ZM118.854 115.359V116.575H120.444V124.245H118.667V125.46H123.344V124.245H121.754V115.452H118.854V115.359ZM147.476 115.359V116.575H149.253V124.245H147.476V125.46H152.059V124.245H150.469V120.222C150.469 118.071 151.405 116.762 153.65 116.668V115.452C152.246 115.546 150.937 116.107 150.469 117.51V115.452H147.476V115.359ZM50.1985 116.388C52.2563 116.388 54.0335 117.79 54.3141 119.848H46.3635C46.457 117.978 48.2342 116.388 50.1985 116.388ZM93.0381 116.481C95.1894 116.481 97.0601 118.258 97.0601 120.41C97.0601 122.654 95.2829 124.432 93.0381 124.432C90.8867 124.432 89.016 122.654 89.016 120.41C89.016 118.165 90.6996 116.481 93.0381 116.481ZM159.262 116.481C161.413 116.481 163.284 118.258 163.284 120.41C163.284 122.654 161.507 124.432 159.262 124.432C157.11 124.432 155.24 122.654 155.24 120.41C155.24 118.165 156.923 116.481 159.262 116.481ZM81.0654 116.481C81.159 116.481 81.346 116.481 81.5331 116.481C83.6844 116.481 85.4616 118.352 85.4616 120.41C85.4616 122.561 83.6844 124.338 81.5331 124.338C79.3818 124.338 77.6046 122.467 77.6046 120.316C77.4175 118.352 78.9141 116.668 81.0654 116.481ZM138.871 116.481C138.964 116.481 139.151 116.481 139.338 116.481C141.49 116.481 143.267 118.258 143.267 120.41C143.267 122.561 141.49 124.432 139.245 124.432C137.094 124.432 135.223 122.561 135.223 120.503C135.129 118.445 136.813 116.668 138.871 116.481Z" fill="#8293A6"/>
</svg>
