<svg width="200" height="200" viewBox="0 0 200 200" fill="none" xmlns="http://www.w3.org/2000/svg">
<path d="M139.133 107.727L143.898 113.103H140.803L137.137 108.949V113.103H134.571V103.083H137.137V106.709L140.721 103.083H143.736L139.133 107.727ZM62.8032 105.812C64.6769 105.812 65.5322 104.916 65.5322 103.572C65.5322 102.228 64.6769 101.332 62.8032 101.332H59.1375V105.772H62.8032M62.8847 98.9289C66.0617 98.9289 68.1797 100.599 68.1797 103.532C68.1797 106.505 66.0617 108.134 62.8847 108.134H59.1375V113.063H56.4492V98.8882H62.8847M74.2079 111.026C75.6742 111.026 77.0998 109.967 77.0998 108.134C77.0998 106.301 75.7149 105.242 74.2079 105.242C72.7416 105.242 71.316 106.301 71.316 108.134C71.316 109.967 72.7416 111.026 74.2079 111.026ZM74.2079 102.798C76.9776 102.798 79.7066 104.591 79.7066 108.093C79.7066 111.637 76.9776 113.388 74.2079 113.388C71.4382 113.388 68.7092 111.596 68.7092 108.093C68.7499 104.591 71.4789 102.798 74.2079 102.798ZM86.2235 111.026C84.7165 111.026 83.5353 109.926 83.5353 108.134C83.5353 106.342 84.7165 105.242 86.2235 105.242C87.1196 105.242 87.9342 105.65 88.5452 106.627L90.7446 105.364C90.0115 103.817 88.423 102.839 86.2642 102.839C83.4131 102.839 80.9692 104.957 80.9692 108.134C80.9692 111.311 83.2909 113.429 86.2642 113.429C88.423 113.429 89.8486 112.452 90.8668 110.741L88.7488 109.56C88.1379 110.415 87.4862 111.026 86.2235 111.026ZM113.391 108.786C113.269 110.293 112.943 110.659 112.454 110.659C112.088 110.659 111.925 110.619 111.68 110.578V113.185C111.68 113.185 112.006 113.266 112.576 113.266C114.735 113.266 115.55 111.881 115.753 108.867L115.957 105.364H118.808V113.103H121.374V103.043H113.758L113.391 108.786ZM108.707 106.79C108.503 105.527 107.485 104.794 106.1 104.794C104.756 104.794 103.779 105.69 103.371 106.79H108.707ZM106.141 102.798C108.992 102.798 111.029 104.916 111.029 107.808V108.704H103.29C103.453 110.211 104.552 111.23 106.059 111.23C107.404 111.23 107.974 110.659 108.625 109.845L110.621 110.863C109.603 112.574 108.218 113.429 106.019 113.429C103.249 113.429 100.887 111.311 100.887 108.134C100.846 104.957 103.249 102.798 106.141 102.798ZM130.661 106.79C130.457 105.527 129.439 104.794 128.054 104.794C126.71 104.794 125.732 105.69 125.325 106.79H130.661ZM128.176 102.798C131.027 102.798 133.064 104.916 133.064 107.808V108.704H125.325C125.488 110.211 126.588 111.23 128.095 111.23C129.439 111.23 130.009 110.659 130.661 109.845L132.657 110.863C131.638 112.574 130.254 113.429 128.054 113.429C125.284 113.429 122.922 111.311 122.922 108.134C122.881 104.957 125.203 102.798 128.176 102.798ZM91.6407 105.324H94.6548V113.144H97.2208V105.324H100.235V103.083H91.6814L91.6407 105.324ZM148.949 111.026C150.415 111.026 151.841 109.967 151.841 108.134C151.841 106.301 150.456 105.242 148.949 105.242C147.483 105.242 146.057 106.301 146.057 108.134C146.057 109.967 147.483 111.026 148.949 111.026ZM148.949 102.798C151.719 102.798 154.448 104.591 154.448 108.093C154.448 111.637 151.719 113.388 148.949 113.388C146.179 113.388 143.45 111.596 143.45 108.093C143.491 104.591 146.22 102.798 148.949 102.798ZM164.63 103.083L161.861 110.13L159.091 103.083H155.792V113.103H158.195V106.749L160.883 113.103H162.838L165.527 106.749V113.103H167.93V103.083H164.63Z" fill="#8293A6"/>
<path d="M48.2997 117.42H34.1253C33.1071 117.42 32.4961 116.524 32.4961 115.71C32.4961 115.221 32.659 114.814 32.9849 114.488L39.2167 108.337L48.2997 117.42Z" fill="#8293A6"/>
<path d="M34.1275 117.421C33.0685 117.421 31.7243 116.565 31.7243 114.855V95.8741C31.7243 93.3081 31.6022 91.4752 33.435 89.6423L40.3186 82.7588L52.5378 95.0188L33.0277 114.529C32.7019 114.855 32.539 115.262 32.539 115.751C32.4982 116.525 33.1092 117.421 34.1275 117.421Z" fill="#8293A6"/>
</svg>
