<svg width="200" height="200" viewBox="0 0 200 200" fill="none" xmlns="http://www.w3.org/2000/svg">
    <path
        d="M44.8281 93.0836C44.8281 92.0862 44.8281 90.8671 45.8255 89.8697C46.7121 88.8723 48.042 88.8723 49.0394 88.8723H74.1964C77.4103 88.8723 79.8484 88.8723 81.8433 89.8697C83.8381 90.8671 85.3896 92.862 86.8303 94.8568L88.271 96.8516C89.3793 98.2923 90.155 99.4006 90.155 100.841C90.155 102.282 89.2684 103.501 88.271 104.831L82.5082 112.921H67.3253L77.0778 99.8438C77.8536 98.8464 78.7402 97.6274 78.0752 96.1867C77.4103 94.746 75.8588 94.746 74.5289 94.746H62.8924V124.779H50.8126V94.8568H44.8281V93.0836ZM103.454 88.8723H118.526L100.462 112.921H85.3896L103.454 88.8723ZM121.518 81.1146V82.8878H136.59C137.588 82.8878 139.139 82.8878 140.137 83.8852C141.134 84.8826 141.134 86.4342 141.134 87.4316V102.504C141.134 103.501 141.134 105.053 140.137 106.05C139.139 107.047 137.588 107.047 136.59 107.047H129.387C128.168 107.047 126.505 107.047 125.84 105.607C125.175 104.166 126.173 103.058 126.838 101.95L136.59 88.9831H121.518L115.534 96.9624C114.536 98.4031 113.65 99.5114 113.65 100.952C113.65 102.393 114.536 103.501 115.534 104.942L116.974 106.937C118.415 108.931 120.077 110.926 121.961 111.924C123.956 112.921 126.284 112.921 129.608 112.921H136.147C139.915 112.921 145.567 112.921 149.335 109.153C153.103 105.385 153.103 99.8439 153.103 97.9598V91.9754C153.103 89.9805 153.103 84.4394 149.335 80.7822C145.567 77.0142 139.915 77.0142 136.147 77.0142H125.729C124.732 77.0142 123.513 77.0142 122.516 78.0116C121.518 78.8982 121.518 80.1172 121.518 81.1146Z"
        fill="#FF0032" />
</svg>