<svg width="200" height="200" viewBox="0 0 200 200" fill="none" xmlns="http://www.w3.org/2000/svg">
<path fill-rule="evenodd" clip-rule="evenodd" d="M58.0208 89.163C60.6692 88.7253 63.4607 89.163 65.8228 90.5491C68.4712 92.081 70.6901 94.7073 71.549 97.6983C72.1932 99.8868 72.3363 102.294 71.4774 104.41C70.5469 106.963 68.5427 109.079 66.1091 110.1C63.3892 111.267 60.3113 111.048 57.8777 109.589C54.943 107.984 53.0104 104.629 53.0104 101.2C51.3641 101.2 49.6463 101.2 48 101.2C48 98.5737 48.8589 95.8745 50.4336 93.8319C52.2231 91.3515 55.0146 89.6007 58.0208 89.163ZM61.4566 96.6769C59.0945 97.1876 57.5198 99.7409 58.0924 102.148C58.5935 104.629 61.385 106.306 63.6755 105.577C65.966 104.993 67.4691 102.367 66.7533 100.033C66.3238 97.6253 63.6755 96.0933 61.4566 96.6769ZM77.9194 102.951C79.4225 100.835 82.7151 100.397 84.7908 101.929C85.7213 102.586 86.294 103.753 86.6518 104.847C85.7929 104.847 84.8624 104.847 84.0751 104.847C83.7887 104.41 83.574 103.899 83.073 103.68C82.0709 103.097 80.5678 103.388 79.9951 104.483C79.4941 105.431 79.4941 106.598 79.9951 107.547C80.5678 108.568 81.9993 108.933 83.0014 108.349C83.5024 108.057 83.7887 107.547 84.0035 107.182C84.934 107.182 85.7929 107.182 86.6518 107.182C86.3655 108.276 85.7213 109.37 84.7908 110.1C83.0014 111.413 80.2814 111.267 78.5636 109.808C76.7742 108.057 76.4163 104.92 77.9194 102.951ZM90.2307 101.492C91.6623 100.616 93.738 100.908 94.8117 102.294C94.8117 101.929 94.8117 101.638 94.8117 101.273C95.6706 101.273 96.458 101.273 97.3169 101.273C97.3169 104.41 97.3169 107.62 97.3169 110.756C96.458 110.756 95.6706 110.756 94.8117 110.756C94.8117 110.392 94.8117 110.1 94.8117 109.735C93.8096 110.902 92.0202 111.267 90.7318 110.683C88.9423 110.027 87.8687 108.13 87.7971 106.233C87.7255 104.264 88.656 102.294 90.2307 101.492ZM91.8054 103.534C90.016 104.191 89.8013 106.963 91.3044 108.057C92.2349 108.714 93.738 108.568 94.4538 107.62C95.098 106.671 95.098 105.212 94.4538 104.264C93.9528 103.461 92.7359 103.17 91.8054 103.534ZM115.283 101.054C117.931 100.47 120.866 102.586 121.152 105.431C121.51 108.057 119.291 110.756 116.714 110.902C114.138 111.267 111.489 109.006 111.418 106.379C111.06 103.826 112.921 101.492 115.283 101.054ZM115.712 103.461C114.639 103.753 113.923 104.847 113.923 105.942C113.851 107.255 114.925 108.495 116.285 108.422C117.716 108.422 118.719 106.963 118.575 105.577C118.432 104.118 117.072 103.024 115.712 103.461ZM134.466 101.492C135.897 100.616 137.901 100.908 138.975 102.294C138.975 101.929 138.975 101.638 138.975 101.273C139.834 101.273 140.621 101.273 141.48 101.273C141.48 104.41 141.48 107.62 141.48 110.756C140.621 110.756 139.834 110.756 138.975 110.756C138.975 110.392 138.975 110.1 138.975 109.735C137.973 110.902 136.183 111.267 134.895 110.683C133.249 110.027 132.104 108.276 131.96 106.598C131.746 104.483 132.676 102.44 134.466 101.492ZM136.04 103.461C134.179 104.045 134.036 106.963 135.539 108.057C136.541 108.714 137.973 108.568 138.689 107.547C139.333 106.525 139.333 105.066 138.617 104.118C138.044 103.315 136.971 103.17 136.04 103.461ZM99.3926 101.127C100.18 101.127 100.824 101.127 101.54 101.127C102.542 102.44 103.544 103.753 104.618 105.066C105.62 103.753 106.622 102.44 107.624 101.127C108.411 101.127 109.056 101.127 109.771 101.127C109.771 104.264 109.771 107.474 109.771 110.611C108.912 110.611 108.125 110.611 107.195 110.611C107.195 108.787 107.195 106.963 107.195 105.139C106.264 106.233 105.405 107.474 104.546 108.568C103.616 107.474 102.757 106.233 101.898 105.139C101.898 106.963 101.898 108.787 101.898 110.611C101.039 110.611 100.252 110.611 99.3926 110.611C99.3926 107.474 99.3926 104.264 99.3926 101.127ZM122.798 101.127C122.798 104.264 122.798 107.474 122.798 110.611C123.657 110.611 124.445 110.611 125.304 110.611C125.304 109.297 125.304 108.057 125.304 106.744C126.449 108.057 127.666 109.297 128.811 110.611C129.885 110.611 130.958 110.611 132.104 110.611C130.6 109.006 129.097 107.474 127.594 105.869C128.883 104.337 130.171 102.805 131.459 101.273C130.457 101.273 129.455 101.273 128.453 101.273C127.379 102.586 126.377 103.826 125.304 105.139C125.304 103.826 125.304 102.586 125.304 101.273C124.516 101.127 123.657 101.2 122.798 101.127ZM143.126 101.127C145.703 101.127 148.423 101.127 151 101.127C151 101.929 151 102.659 151 103.461C150.069 103.461 149.139 103.461 148.208 103.461C148.208 105.869 148.208 108.203 148.208 110.611C147.35 110.611 146.562 110.611 145.703 110.611C145.703 108.203 145.703 105.869 145.703 103.461C144.844 103.461 143.914 103.461 143.126 103.461C143.126 102.659 143.126 101.929 143.126 101.127Z" fill="#8293A6"/>
</svg>
