<svg width="181" height="63" viewBox="0 0 181 63" fill="none" xmlns="http://www.w3.org/2000/svg">
<path d="M1 42.651V20.2727C1 19.9421 1.32174 19.7032 1.6455 19.7934L7.78977 21.5048C8.00795 21.5655 8.15856 21.7613 8.15856 21.9841V37.5281C8.15856 37.7422 8.29789 37.9325 8.50453 38.0004L23.3681 42.8943C23.5746 42.9624 23.7141 43.1525 23.7141 43.3668V49.8717C23.7141 50.2128 23.373 50.4529 23.0442 50.3436L1.34446 43.1228C1.13855 43.0542 1 42.8644 1 42.651Z" fill="#8068BC"/>
<path d="M14.3244 15.5339L9.36919 13.9229C9.24544 13.8827 9.11068 13.8908 8.99288 13.9456L2.61057 16.9132C2.18856 17.1094 2.23781 17.7142 2.68623 17.842L8.32604 19.4495C8.4525 19.4855 8.58828 19.4718 8.70466 19.4113L14.4024 16.4472C14.7972 16.2419 14.7485 15.6718 14.3244 15.5339Z" fill="#FDCD56"/>
<path d="M23.7188 34.4982V12.1173C23.7188 11.7867 24.0404 11.5478 24.3641 11.638L30.5084 13.3494C30.7265 13.4102 30.8771 13.6059 30.8771 13.8287V29.7312V36.5895C30.8771 36.9322 30.5338 37.1725 30.2041 37.0603L24.0598 34.9689C23.8558 34.8994 23.7188 34.7105 23.7188 34.4982Z" fill="#D971B0"/>
<path d="M48.4453 28.5274C48.4453 27.1489 48.6761 25.8997 49.1379 24.78C49.5997 23.6446 50.2348 22.6795 51.0428 21.8842C51.8675 21.0893 52.8406 20.481 53.9623 20.0591C55.1002 19.6212 56.3455 19.4021 57.6979 19.4021C59.0669 19.3859 60.3204 19.5887 61.4583 20.0105C62.5965 20.4161 63.5778 21.0163 64.4023 21.8113C65.227 22.6065 65.8703 23.563 66.3321 24.6827C66.7939 25.8024 67.0247 27.0516 67.0247 28.4302C67.0247 29.7766 66.7939 31.0014 66.3321 32.1047C65.8703 33.2079 65.227 34.1573 64.4023 34.9522C63.5778 35.747 62.5965 36.3717 61.4583 36.8259C60.3204 37.2637 59.0669 37.4913 57.6979 37.5069C56.3455 37.5069 55.1002 37.296 53.9623 36.8745C52.8406 36.4367 51.8675 35.8279 51.0428 35.0495C50.2348 34.2547 49.5997 33.3052 49.1379 32.202C48.6761 31.0987 48.4453 29.8739 48.4453 28.5274ZM51.7109 28.3329C51.7109 29.258 51.8511 30.1093 52.1315 30.8885C52.4283 31.6669 52.8406 32.3401 53.3684 32.9082C53.8963 33.4754 54.523 33.9219 55.2488 34.246C55.9908 34.5708 56.8155 34.7332 57.7227 34.7332C58.6298 34.7332 59.4545 34.5708 60.1966 34.246C60.9388 33.9219 61.5737 33.4754 62.1017 32.9082C62.6294 32.3401 63.0336 31.6669 63.3138 30.8885C63.6108 30.1093 63.7591 29.258 63.7591 28.3329C63.7591 27.4729 63.6108 26.6702 63.3138 25.924C63.0336 25.1778 62.6294 24.5289 62.1017 23.9773C61.5737 23.4092 60.9388 22.9714 60.1966 22.663C59.4545 22.3386 58.6298 22.1763 57.7227 22.1763C56.8155 22.1763 55.9908 22.3386 55.2488 22.663C54.523 22.9714 53.8963 23.4092 53.3684 23.9773C52.8406 24.5289 52.4283 25.1778 52.1315 25.924C51.8511 26.6702 51.7109 27.4729 51.7109 28.3329Z" fill="#474747"/>
<path d="M69.6094 25.4093H72.4181V27.1564H72.4673C72.8946 26.4452 73.4696 25.9273 74.1923 25.6042C74.9149 25.2802 75.6953 25.1183 76.5329 25.1183C77.4365 25.1183 78.2496 25.2802 78.9723 25.6042C79.6949 25.9108 80.3111 26.3396 80.8204 26.8896C81.3297 27.4396 81.7155 28.0866 81.9784 28.8306C82.2412 29.5747 82.3727 30.3759 82.3727 31.2334C82.3727 32.0909 82.233 32.8912 81.9536 33.6352C81.6745 34.3792 81.2802 35.0264 80.7709 35.5762C80.2782 36.1262 79.6787 36.5628 78.9723 36.8867C78.2659 37.1942 77.494 37.3477 76.6561 37.3477C76.0976 37.3477 75.6048 37.2913 75.1778 37.1779C74.7507 37.0643 74.3729 36.9188 74.0443 36.7413C73.716 36.5628 73.4366 36.3775 73.2067 36.1826C72.9766 35.9729 72.7877 35.7702 72.64 35.5762H72.566V42.5886H69.6094V25.4093ZM79.4158 31.2334C79.4158 30.7804 79.3338 30.3438 79.1694 29.9229C79.0215 29.5019 78.7916 29.1303 78.4795 28.8064C78.1839 28.4833 77.8225 28.2243 77.3953 28.0303C76.9682 27.8363 76.4837 27.7393 75.9417 27.7393C75.3995 27.7393 74.9149 27.8363 74.4879 28.0303C74.0608 28.2243 73.6912 28.4833 73.3791 28.8064C73.0835 29.1303 72.8534 29.5019 72.6892 29.9229C72.5413 30.3438 72.4673 30.7804 72.4673 31.2334C72.4673 31.6864 72.5413 32.1229 72.6892 32.543C72.8534 32.9639 73.0835 33.3364 73.3791 33.6595C73.6912 33.9834 74.0608 34.2415 74.4879 34.4365C74.9149 34.6305 75.3995 34.7274 75.9417 34.7274C76.4837 34.7274 76.9682 34.6305 77.3953 34.4365C77.8225 34.2415 78.1839 33.9834 78.4795 33.6595C78.7916 33.3364 79.0215 32.9639 79.1694 32.543C79.3338 32.1229 79.4158 31.6864 79.4158 31.2334Z" fill="#474747"/>
<path d="M83.8281 27.8264V25.3355H86.2889V21.9423H89.2716V25.3355H92.5523V27.8264H89.2716V32.9537C89.2716 33.5394 89.3792 34.003 89.5946 34.3447C89.8265 34.6871 90.274 34.858 90.9368 34.858C91.2019 34.858 91.4919 34.8337 91.8067 34.7849C92.1215 34.7194 92.3701 34.6218 92.5523 34.492V36.9576C92.2376 37.104 91.8482 37.2015 91.3843 37.2503C90.9368 37.3158 90.5391 37.3479 90.1912 37.3479C89.3959 37.3479 88.7411 37.2583 88.2274 37.0795C87.7304 36.9166 87.3328 36.6647 87.0345 36.3231C86.7529 35.9649 86.554 35.5247 86.4379 35.0043C86.3385 34.4833 86.2889 33.881 86.2889 33.1977V27.8264H83.8281Z" fill="#474747"/>
<path d="M94.8945 25.4096H97.7901V37.0318H94.8945V25.4096ZM94.4844 21.4635C94.4844 20.9954 94.6532 20.5919 94.9912 20.2529C95.3452 19.8977 95.7874 19.7202 96.3182 19.7202C96.8491 19.7202 97.2915 19.8897 97.6453 20.2287C98.0153 20.5515 98.2002 20.9631 98.2002 21.4635C98.2002 21.9638 98.0153 22.3835 97.6453 22.7225C97.2915 23.0449 96.8491 23.2065 96.3182 23.2065C95.7874 23.2065 95.3452 23.0371 94.9912 22.6983C94.6532 22.3432 94.4844 21.9316 94.4844 21.4635Z" fill="#474747"/>
<path d="M101.109 25.4086H103.931V27.2244H103.981C104.245 26.6765 104.666 26.1916 105.244 25.7725C105.838 25.3361 106.63 25.1183 107.62 25.1183C109.485 25.1183 110.723 25.8365 111.334 27.2737C111.763 26.5304 112.299 25.9903 112.943 25.6515C113.586 25.2963 114.354 25.1183 115.245 25.1183C116.037 25.1183 116.705 25.2479 117.25 25.5063C117.795 25.7639 118.232 26.119 118.562 26.5711C118.908 27.023 119.156 27.5554 119.305 28.169C119.453 28.7662 119.528 29.4118 119.528 30.1057V37.03H116.557V30.4445C116.557 30.0893 116.524 29.7505 116.458 29.4282C116.392 29.0894 116.276 28.7982 116.111 28.5562C115.946 28.2978 115.723 28.0964 115.443 27.9512C115.162 27.806 114.799 27.7334 114.354 27.7334C113.891 27.7334 113.495 27.8216 113.165 27.9996C112.852 28.1612 112.588 28.3868 112.373 28.6772C112.175 28.952 112.027 29.2743 111.928 29.646C111.845 30.0012 111.804 30.3642 111.804 30.7349V37.03H108.833V30.1057C108.833 29.3798 108.676 28.8068 108.363 28.3868C108.049 27.9512 107.529 27.7334 106.803 27.7334C106.308 27.7334 105.887 27.8138 105.541 27.9754C105.211 28.137 104.93 28.3548 104.699 28.6288C104.484 28.9036 104.328 29.2182 104.229 29.5734C104.13 29.9286 104.08 30.2993 104.08 30.6865V37.03H101.109V25.4086Z" fill="#474747"/>
<path d="M130.121 35.455H130.047C129.621 36.1184 129.079 36.6036 128.423 36.911C127.767 37.202 127.046 37.3477 126.258 37.3477C125.717 37.3477 125.184 37.2748 124.659 37.1293C124.151 36.9839 123.692 36.7656 123.282 36.4744C122.888 36.1826 122.568 35.8188 122.322 35.3824C122.076 34.9457 121.953 34.4365 121.953 33.8535C121.953 33.2229 122.068 32.6894 122.298 32.252C122.527 31.799 122.831 31.4274 123.208 31.1363C123.601 30.8289 124.053 30.5863 124.561 30.4079C125.069 30.2304 125.594 30.1004 126.135 30.0199C126.693 29.9229 127.251 29.8666 127.808 29.8501C128.366 29.818 128.891 29.8016 129.383 29.8016H130.121V29.4863C130.121 28.7579 129.867 28.2165 129.358 27.8605C128.85 27.4881 128.202 27.3027 127.415 27.3027C126.792 27.3027 126.209 27.4153 125.668 27.6423C125.127 27.8527 124.659 28.1438 124.266 28.5153L122.716 26.9866C123.372 26.324 124.135 25.8467 125.004 25.5557C125.889 25.2638 126.8 25.1183 127.735 25.1183C128.571 25.1183 129.276 25.2153 129.85 25.4093C130.424 25.5877 130.9 25.8225 131.277 26.1135C131.654 26.4045 131.941 26.7441 132.138 27.1321C132.351 27.5045 132.499 27.8848 132.581 28.2728C132.679 28.6609 132.737 29.0411 132.753 29.4136C132.77 29.7695 132.778 30.0848 132.778 30.3594V37.0565H130.121V35.455ZM129.949 31.8397H129.334C128.923 31.8397 128.464 31.8561 127.956 31.8882C127.448 31.9202 126.964 32.0016 126.504 32.1307C126.061 32.2442 125.684 32.4217 125.373 32.6651C125.061 32.8912 124.905 33.2143 124.905 33.6352C124.905 33.9107 124.963 34.1444 125.077 34.3385C125.209 34.5169 125.373 34.6704 125.57 34.8003C125.766 34.9292 125.988 35.0264 126.234 35.0912C126.48 35.1398 126.726 35.164 126.972 35.164C127.989 35.164 128.735 34.9292 129.211 34.4608C129.703 33.9747 129.949 33.3199 129.949 32.4945V31.8397Z" fill="#474747"/>
<path d="M144.151 28.9034C143.808 28.5483 143.449 28.265 143.073 28.0546C142.697 27.8441 142.313 27.7393 141.921 27.7393C141.382 27.7393 140.9 27.8363 140.475 28.0303C140.05 28.2243 139.683 28.4833 139.372 28.8064C139.078 29.1303 138.849 29.5019 138.685 29.9229C138.538 30.3438 138.465 30.7804 138.465 31.2334C138.465 31.6863 138.538 32.1229 138.685 32.543C138.849 32.9639 139.078 33.3364 139.372 33.6595C139.683 33.9834 140.05 34.2415 140.475 34.4365C140.9 34.6305 141.382 34.7274 141.921 34.7274C142.379 34.7274 142.804 34.6383 143.196 34.4608C143.588 34.2658 143.923 33.9911 144.2 33.6352L146.162 35.7219C145.867 36.0128 145.524 36.2641 145.132 36.4744C144.756 36.684 144.373 36.8547 143.98 36.9839C143.588 37.1129 143.212 37.202 142.853 37.2505C142.493 37.3156 142.183 37.3477 141.921 37.3477C141.039 37.3477 140.205 37.202 139.421 36.911C138.636 36.6201 137.958 36.2068 137.387 35.6733C136.814 35.1398 136.357 34.5004 136.014 33.7565C135.687 32.996 135.523 32.1549 135.523 31.2334C135.523 30.3109 135.687 29.4777 136.014 28.7336C136.357 27.974 136.814 27.327 137.387 26.7926C137.958 26.259 138.636 25.8467 139.421 25.5557C140.205 25.2638 141.039 25.1183 141.921 25.1183C142.672 25.1183 143.424 25.2638 144.176 25.5557C144.944 25.8303 145.614 26.2755 146.186 26.8896L144.151 28.9034Z" fill="#474747"/>
<path d="M147.969 25.4086H150.937V27.2495H150.986C151.317 26.5711 151.786 26.0465 152.396 25.6757C153.006 25.3041 153.706 25.1183 154.498 25.1183C154.679 25.1183 154.852 25.1347 155.017 25.1667C155.199 25.1995 155.38 25.2393 155.562 25.2877V28.0964C155.314 28.0316 155.067 27.9832 154.82 27.9512C154.589 27.9028 154.358 27.8786 154.128 27.8786C153.434 27.8786 152.874 28.0074 152.446 28.2658C152.033 28.5078 151.712 28.7904 151.481 29.1136C151.266 29.436 151.118 29.7592 151.036 30.0815C150.969 30.4048 150.937 30.6467 150.937 30.8075V37.03H147.969V25.4086Z" fill="#474747"/>
<path d="M156.531 31.2334C156.531 30.3109 156.696 29.4777 157.026 28.7336C157.373 27.974 157.835 27.327 158.413 26.7926C158.99 26.259 159.675 25.8467 160.468 25.5557C161.26 25.2638 162.102 25.1183 162.993 25.1183C163.885 25.1183 164.727 25.2638 165.519 25.5557C166.311 25.8467 166.996 26.259 167.575 26.7926C168.152 27.327 168.606 27.974 168.936 28.7336C169.283 29.4777 169.456 30.3109 169.456 31.2334C169.456 32.1549 169.283 32.996 168.936 33.7565C168.606 34.5004 168.152 35.1398 167.575 35.6733C166.996 36.2068 166.311 36.6201 165.519 36.911C164.727 37.202 163.885 37.3477 162.993 37.3477C162.102 37.3477 161.26 37.202 160.468 36.911C159.675 36.6201 158.99 36.2068 158.413 35.6733C157.835 35.1398 157.373 34.5004 157.026 33.7565C156.696 32.996 156.531 32.1549 156.531 31.2334ZM159.502 31.2334C159.502 31.6863 159.576 32.1229 159.725 32.543C159.89 32.9639 160.122 33.3364 160.419 33.6595C160.732 33.9834 161.104 34.2415 161.532 34.4365C161.962 34.6305 162.449 34.7274 162.993 34.7274C163.539 34.7274 164.025 34.6305 164.454 34.4365C164.884 34.2415 165.246 33.9834 165.544 33.6595C165.857 33.3364 166.089 32.9639 166.237 32.543C166.403 32.1229 166.485 31.6863 166.485 31.2334C166.485 30.7804 166.403 30.3438 166.237 29.9229C166.089 29.5019 165.857 29.1303 165.544 28.8064C165.246 28.4833 164.884 28.2243 164.454 28.0303C164.025 27.8363 163.539 27.7393 162.993 27.7393C162.449 27.7393 161.962 27.8363 161.532 28.0303C161.104 28.2243 160.732 28.4833 160.419 28.8064C160.122 29.1303 159.89 29.5019 159.725 29.9229C159.576 30.3438 159.502 30.7804 159.502 31.2334Z" fill="#474747"/>
<path d="M178.591 28.6366C178.016 27.8441 177.245 27.4482 176.277 27.4482C175.884 27.4482 175.498 27.5453 175.122 27.7393C174.744 27.9333 174.555 28.2486 174.555 28.6851C174.555 29.0411 174.711 29.3001 175.023 29.4621C175.334 29.6232 175.729 29.7609 176.204 29.8744C176.68 29.9878 177.188 30.1091 177.729 30.2382C178.287 30.3516 178.803 30.5378 179.279 30.7959C179.755 31.0393 180.149 31.3789 180.461 31.8154C180.772 32.252 180.928 32.8505 180.928 33.611C180.928 34.3066 180.772 34.8972 180.461 35.3824C180.165 35.8517 179.771 36.232 179.279 36.523C178.803 36.8141 178.262 37.0244 177.655 37.1536C177.049 37.2826 176.442 37.3477 175.835 37.3477C174.916 37.3477 174.071 37.2185 173.301 36.9596C172.53 36.7005 171.841 36.232 171.234 35.5521L173.203 33.7322C173.579 34.1531 173.982 34.5004 174.408 34.776C174.851 35.0348 175.383 35.164 176.007 35.164C176.22 35.164 176.442 35.1398 176.672 35.0912C176.901 35.0426 177.114 34.9613 177.311 34.8486C177.508 34.7352 177.663 34.5975 177.778 34.4365C177.91 34.258 177.975 34.0562 177.975 33.8292C177.975 33.4247 177.82 33.1259 177.508 32.9319C177.196 32.7379 176.803 32.5837 176.326 32.4702C175.851 32.3412 175.334 32.2277 174.776 32.1307C174.235 32.0172 173.727 31.8475 173.252 31.6214C172.776 31.3789 172.382 31.0471 172.07 30.6262C171.759 30.2061 171.603 29.6232 171.603 28.8791C171.603 28.2321 171.734 27.6743 171.997 27.2049C172.275 26.7198 172.636 26.324 173.08 26.0165C173.522 25.709 174.031 25.4829 174.604 25.3366C175.179 25.191 175.761 25.1183 176.351 25.1183C177.139 25.1183 177.918 25.256 178.689 25.5314C179.459 25.7895 180.083 26.2426 180.559 26.8896L178.591 28.6366Z" fill="#474747"/>
</svg>
