<svg width="181" height="63" viewBox="0 0 181 63" fill="none" xmlns="http://www.w3.org/2000/svg">
<path d="M93.9939 26.4306C93.9203 26.8725 93.8636 27.3184 93.7699 27.7558C93.4763 29.1247 92.8729 30.3447 91.9777 31.4103C90.5421 33.1181 88.7089 34.1382 86.5423 34.5561C84.54 34.9425 82.5573 34.8603 80.6383 34.1427C77.5137 32.9742 75.4903 30.7689 74.8366 27.4358C74.351 24.9611 74.7553 22.6046 76.1896 20.4896C77.3441 18.7876 78.9301 17.6597 80.8539 17.0057C81.6875 16.7223 82.5461 16.5557 83.4252 16.5002C83.5127 16.4948 83.5988 16.4713 83.6858 16.4564C84.1174 16.4564 84.5485 16.4564 84.98 16.4564C85.0447 16.47 85.109 16.4876 85.1741 16.4961C85.6596 16.5611 86.1505 16.5963 86.6294 16.6929C88.4728 17.0648 90.0914 17.8867 91.4364 19.229C92.6016 20.3921 93.379 21.7809 93.7539 23.3922C93.8618 23.8566 93.9154 24.3346 93.9939 24.8062V26.4311V26.4306ZM83.8474 20.5948C82.7514 20.6146 81.451 21.2185 80.5312 22.5531C79.7079 23.7483 79.4999 25.0897 79.7043 26.5073C80.0524 28.9184 81.7531 30.5265 84.1267 30.6313C85.9341 30.7111 87.3657 29.9755 88.3167 28.3971C89.0066 27.2521 89.1516 25.991 88.9606 24.6808C88.6049 22.2417 86.7481 20.602 83.8474 20.5948Z" fill="#181D40"/>
<path d="M71.2458 16.8311V20.6521H61.5754V23.5001C61.6615 23.5001 61.7472 23.5001 61.8333 23.5001C63.3948 23.5037 64.9567 23.4892 66.5177 23.5163C67.6137 23.5357 68.69 23.7068 69.7084 24.1509C71.6019 24.9764 72.5279 26.4559 72.5944 28.5163C72.6229 29.3973 72.5167 30.2562 72.1592 31.0691C71.6394 32.2516 70.7477 33.0568 69.6111 33.6056C68.6396 34.075 67.6056 34.3418 66.5386 34.3621C64.0262 34.4104 61.5129 34.4027 58.9996 34.4158C58.323 34.4194 57.6461 34.4162 56.9695 34.4162C56.8901 34.4162 56.8102 34.4162 56.7188 34.4162V16.8311H71.2458ZM61.5807 27.0652V30.8515C61.6825 30.8515 61.7637 30.8515 61.8449 30.8515C62.9074 30.8515 63.9704 30.8583 65.033 30.8475C65.3583 30.8443 65.6863 30.8145 66.0067 30.759C66.9211 30.6001 67.4682 30.0784 67.603 29.2136C67.7284 28.4084 67.4419 27.5874 66.527 27.2801C66.1999 27.1699 65.8501 27.0806 65.5087 27.0729C64.2386 27.0449 62.9677 27.0548 61.6972 27.0512C61.6615 27.0512 61.6253 27.0598 61.5812 27.0652H61.5807Z" fill="#181D40"/>
<path d="M43.2358 29.8179V34.4008H38.3203V16.8265C38.3899 16.8229 38.4613 16.8152 38.5327 16.8152C41.2616 16.8166 43.9905 16.7931 46.7184 16.8292C48.3986 16.8518 50.0042 17.2259 51.4215 18.2044C52.9687 19.2728 53.7943 20.7712 53.963 22.6461C54.0616 23.7456 53.9456 24.818 53.5283 25.8493C53.0397 27.0566 52.2105 27.9638 51.1172 28.6268C49.9284 29.3481 48.6213 29.7064 47.2455 29.7642C46.0062 29.8166 44.7638 29.8021 43.5228 29.8175C43.4349 29.8184 43.347 29.8175 43.2354 29.8175L43.2358 29.8179ZM43.239 25.8461C44.4104 25.8461 45.5564 25.8849 46.6979 25.8321C47.4329 25.7983 48.1067 25.5135 48.5646 24.8762C49.0109 24.2556 49.0858 23.5501 48.9756 22.8122C48.8515 21.9826 48.4142 21.39 47.6542 21.047C47.1642 20.8258 46.6448 20.7464 46.1137 20.7423C45.2288 20.736 44.3439 20.7401 43.4585 20.741C43.3871 20.741 43.3162 20.7496 43.239 20.7545V25.8457V25.8461Z" fill="#181D40"/>
<path d="M19.6764 34.21C20.0642 32.9905 20.4493 31.7795 20.8318 30.5781C21.324 30.6652 21.801 30.7762 22.2839 30.829C23.3821 30.9495 24.214 30.477 24.8249 29.5761C24.8619 29.5215 24.836 29.3924 24.7981 29.3202C24.1274 28.0478 23.4513 26.7787 22.7743 25.51C21.378 22.8931 19.9803 20.2766 18.5831 17.6602C18.4394 17.3912 18.2961 17.1218 18.1328 16.8149C18.2493 16.8149 18.3274 16.8149 18.4055 16.8149C19.975 16.8149 21.544 16.8171 23.1135 16.8108C23.2755 16.8103 23.358 16.8537 23.4312 17.0085C24.6696 19.6208 25.9155 22.2301 27.1601 24.8393C27.2271 24.9796 27.2954 25.1191 27.3851 25.3041C27.5636 24.9453 27.7224 24.628 27.88 24.3103C29.0884 21.8654 30.2951 19.42 31.5094 16.9782C31.546 16.9047 31.6553 16.8216 31.7312 16.8212C33.2484 16.8121 34.7657 16.8149 36.283 16.8158C36.3048 16.8158 36.3267 16.8221 36.3785 16.8307C36.1799 17.2093 35.9876 17.5785 35.7925 17.9464C33.5724 22.1357 31.3545 26.3264 29.1295 30.5126C28.4414 31.8071 27.5636 32.9445 26.3377 33.7672C24.9552 34.6952 23.4335 35.0576 21.7948 34.7877C21.1334 34.679 20.4904 34.4546 19.8393 34.2809C19.7911 34.2678 19.746 34.2407 19.6773 34.21H19.6764Z" fill="#181D40"/>
<path d="M6.66893 34.4004V20.769H1.32812V16.8311H16.8222V20.7609H11.522V34.4004H6.66893Z" fill="#181D40"/>
<path d="M82.9417 42.1707H2.38161C1.61857 42.1707 1 42.7963 1 43.568C1 44.3397 1.61857 44.9654 2.38161 44.9654H82.9417C83.7048 44.9654 84.3234 44.3397 84.3234 43.568C84.3234 42.7963 83.7048 42.1707 82.9417 42.1707Z" fill="url(#paint0_linear_1425_11200)"/>
<path d="M90.7167 46.5437C92.4155 46.5437 93.7927 45.1508 93.7927 43.4326C93.7927 41.7144 92.4155 40.3215 90.7167 40.3215C89.0178 40.3215 87.6406 41.7144 87.6406 43.4326C87.6406 45.1508 89.0178 46.5437 90.7167 46.5437Z" fill="#0BD688"/>
<defs>
<linearGradient id="paint0_linear_1425_11200" x1="1" y1="43.5685" x2="84.3234" y2="43.5685" gradientUnits="userSpaceOnUse">
<stop stop-color="#C0F4E0"/>
<stop offset="1" stop-color="#0BD688"/>
</linearGradient>
</defs>
</svg>
