<svg width="181" height="63" viewBox="0 0 181 63" fill="none" xmlns="http://www.w3.org/2000/svg">
<path d="M19.6269 31.6593C19.6456 33.0831 19.2919 34.487 18.6009 35.7319C17.9412 36.9327 16.9734 37.9357 15.7974 38.6378C14.5601 39.3776 13.156 39.7925 11.7155 39.8439V44.3317H7.91954V39.8439C6.47859 39.7939 5.07318 39.3831 3.83204 38.649C2.65097 37.9533 1.68175 36.9486 1.02854 35.7432C0.340221 34.4932 -0.0132526 33.0863 0.00245956 31.6593C-0.0238394 30.6024 0.160989 29.551 0.546112 28.5664C0.931236 27.582 1.5089 26.6844 2.24526 25.9261C3.73204 24.3749 5.77202 23.4755 7.91954 23.4242V19.0879H11.7155V23.4074C13.8619 23.4862 15.8941 24.3952 17.3842 25.943C18.1226 26.6962 18.7018 27.5906 19.0872 28.5727C19.4725 29.5549 19.6561 30.6046 19.6269 31.6593ZM4.05632 31.6593C4.02404 32.8118 4.41275 33.9367 5.14968 34.8232C5.49522 35.243 5.92131 35.5894 6.40281 35.8418C6.88431 36.0942 7.41147 36.2476 7.95318 36.2929V26.992C7.40891 27.0389 6.8798 27.1958 6.39791 27.4533C5.91603 27.7107 5.49138 28.0633 5.14968 28.4898C4.41977 29.382 4.02822 30.5066 4.05632 31.6593ZM11.6258 36.2929C12.3597 36.2277 13.0636 35.9703 13.6667 35.5468C14.2623 35.1199 14.7422 34.5511 15.0629 33.8919C15.4031 33.1934 15.5759 32.4251 15.5675 31.6481C15.5923 30.4901 15.1935 29.363 14.4461 28.4786C13.7465 27.6278 12.7384 27.0892 11.6426 26.9808L11.6258 36.2929Z" fill="#22272C"/>
<path d="M29.9651 39.8444C28.4601 39.8669 26.9747 39.4998 25.6533 38.7786C24.391 38.0995 23.347 37.0764 22.6424 35.8278C21.9193 34.5509 21.5479 33.1048 21.5658 31.6374C21.534 30.546 21.73 29.4601 22.1413 28.4488C22.5525 27.4374 23.1701 26.5231 23.9544 25.764C24.748 24.9904 25.6892 24.3845 26.7219 23.9826C27.7546 23.5807 28.8575 23.391 29.9651 23.4247C31.0682 23.3913 32.1669 23.5801 33.1956 23.9801C34.2244 24.38 35.1622 24.9829 35.9534 25.7528C36.7377 26.5119 37.3552 27.4263 37.7665 28.4375C38.1777 29.4488 38.3737 30.5348 38.3419 31.6261C38.3707 32.7164 38.1722 33.8007 37.759 34.8101C37.3459 35.8193 36.7271 36.7314 35.9421 37.4883C35.1552 38.2627 34.2203 38.8704 33.1934 39.2752C32.1664 39.68 31.0685 39.8736 29.9651 39.8444ZM29.9651 35.9176C30.5156 35.9379 31.0643 35.8419 31.5753 35.6361C32.0863 35.4302 32.5483 35.1189 32.9312 34.7227C33.3179 34.3137 33.6192 33.8317 33.8175 33.3049C34.0158 32.778 34.1072 32.2168 34.0862 31.6542C34.1067 31.0925 34.0152 30.5323 33.8169 30.0064C33.6186 29.4805 33.3175 28.9994 32.9312 28.5913C32.1298 27.8239 31.0632 27.3956 29.9538 27.3956C28.8446 27.3956 27.778 27.8239 26.9765 28.5913C26.5903 28.9994 26.2892 29.4805 26.0909 30.0064C25.8925 30.5323 25.801 31.0925 25.8215 31.6542C25.8165 32.2437 25.919 32.8293 26.1243 33.382C26.3075 33.8906 26.5982 34.3536 26.9765 34.7396C27.3508 35.111 27.7948 35.4046 28.283 35.6035C28.8179 35.8167 29.3893 35.9234 29.9651 35.9176Z" fill="#22272C"/>
<path d="M49.0826 23.4249C50.1622 23.3926 51.2369 23.5826 52.2401 23.9831C53.2431 24.3835 54.1533 24.986 54.914 25.7529C55.6773 26.5241 56.2761 27.4423 56.6741 28.4519C57.0721 29.4616 57.2613 30.5415 57.2298 31.6263C57.2624 32.7153 57.0721 33.7995 56.6712 34.8123C56.2701 35.8252 55.6664 36.7454 54.8972 37.5166C54.1396 38.283 53.2324 38.8853 52.2321 39.2858C51.2318 39.6863 50.1597 39.8766 49.0826 39.8446C47.5551 39.8663 46.0585 39.4136 44.799 38.5487V44.9999H40.5938V23.8568H43.3973L44.1093 25.2593C45.4747 24.0392 47.2524 23.3836 49.0826 23.4249ZM45.7074 34.6836C46.0966 35.085 46.5756 35.4018 47.0927 35.6141C47.6097 35.8265 48.1651 35.9298 48.7239 35.9177C49.2874 35.935 49.8484 35.8363 50.3722 35.6279C50.8961 35.4196 51.3717 35.1059 51.7696 34.7063C52.1674 34.3066 52.479 33.8296 52.6852 33.3047C52.8913 32.7798 52.9877 32.2181 52.9683 31.6544C52.9737 30.8888 52.7805 30.135 52.4077 29.4666C52.0538 28.8294 51.5322 28.3017 50.8993 27.9407C50.236 27.5657 49.4858 27.3722 48.7239 27.3798C47.9586 27.3731 47.2049 27.5665 46.5372 27.9407C45.8979 28.2951 45.3727 28.8244 45.0233 29.4666C44.6668 30.14 44.4855 30.8924 44.4963 31.6544C44.4828 32.215 44.5832 32.7725 44.7914 33.2933C44.9996 33.8139 45.3112 34.2869 45.7074 34.6836Z" fill="#22272C"/>
<path d="M67.4446 39.8445C65.978 39.861 64.5331 39.4895 63.2562 38.7674C62.0152 38.0646 60.9911 37.0342 60.2957 35.7886C59.5697 34.5065 59.1962 33.0549 59.2135 31.5814C59.186 30.5014 59.3814 29.4274 59.7875 28.4264C60.1937 27.4255 60.8019 26.5192 61.5741 25.7641C62.3492 24.9976 63.2714 24.3961 64.2852 23.996C65.299 23.5959 66.3833 23.4054 67.4726 23.436C69.3503 23.3875 71.185 24.0033 72.6535 25.1751C74.0921 26.336 75.0636 27.9773 75.3897 29.7975H71.2125C70.8865 29.0747 70.3613 28.4598 69.6986 28.0248C69.0309 27.5935 68.2506 27.3691 67.4558 27.3797C66.93 27.3718 66.4084 27.4753 65.9253 27.6831C65.4422 27.8909 65.0084 28.1985 64.6523 28.5858C63.8967 29.4076 63.494 30.4934 63.5309 31.6094C63.4914 32.7342 63.894 33.8298 64.6523 34.6611C65.0038 35.0564 65.4359 35.3717 65.9195 35.5855C66.4032 35.7994 66.9271 35.9069 67.4558 35.9009C68.2549 35.9129 69.0381 35.6778 69.6986 35.2277C70.3785 34.7317 70.9034 34.0528 71.2125 33.2699H75.4402C75.1229 35.1392 74.1437 36.8319 72.6815 38.0382C71.2068 39.2453 69.3496 39.8859 67.4446 39.8445Z" fill="#22272C"/>
<path d="M91.0824 23.8232H94.2003V39.3734H90.8921L90.5447 37.9934C89.1499 39.2134 87.3506 39.8695 85.4984 39.8334C84.4172 39.8655 83.3409 39.6737 82.3378 39.2703C81.3343 38.8667 80.425 38.2601 79.6669 37.4885C78.9082 36.7118 78.3144 35.7896 77.9212 34.7774C77.5281 33.7651 77.3437 32.6837 77.3793 31.5983C77.3493 30.5178 77.5391 29.4425 77.9372 28.4377C78.3353 27.4329 78.9333 26.5195 79.695 25.7529C80.4557 24.986 81.3659 24.3835 82.369 23.9831C83.3724 23.5826 84.447 23.3926 85.5265 23.4249C87.4019 23.389 89.2219 24.0667 90.6175 25.321L91.0824 23.8232ZM82.8404 34.65C83.2334 35.0497 83.7049 35.3637 84.2244 35.5723C84.7448 35.7807 85.3024 35.8793 85.8624 35.8616C86.4258 35.8765 86.9858 35.7761 87.5078 35.5669C88.0306 35.3576 88.5055 35.0438 88.9026 34.6447C89.3005 34.2456 89.6115 33.7696 89.8192 33.2458C90.026 32.722 90.1244 32.1613 90.1071 31.5983C90.1244 31.0364 90.026 30.477 89.82 29.9543C89.6132 29.4315 89.303 28.9563 88.9067 28.5579C88.5105 28.1594 88.0373 27.8459 87.5153 27.6365C86.9941 27.4272 86.4357 27.3265 85.874 27.3405C85.1129 27.3282 84.3634 27.522 83.7041 27.9014C83.0696 28.2623 82.546 28.79 82.1901 29.4273C81.8159 30.0892 81.6226 30.838 81.6293 31.5983C81.6135 32.1626 81.7128 32.7242 81.921 33.2488C82.1293 33.7735 82.4421 34.2502 82.8404 34.65Z" fill="#22272C"/>
<path d="M108.966 23.8566H111.326V39.4011H107.267V31.1661L100.045 39.4011H97.6562V23.8566H101.716V31.9907L108.966 23.8566ZM108.708 19V22.0727H100.791V19H108.708Z" fill="#22272C"/>
<path d="M128.107 23.8564V27.6261H123.061V39.4066H118.929V27.6261H113.883V23.8564H128.107Z" fill="#22272C"/>
<path d="M132.365 35.1489H128.109V39.4067H132.365V35.1489Z" fill="#FF4178"/>
</svg>
