<svg width="181" height="63" viewBox="0 0 181 63" fill="none" xmlns="http://www.w3.org/2000/svg">
<path d="M13.8692 25.8065L21.7969 30.218C22.078 30.004 22.4214 29.8881 22.7747 29.8881C23.1477 29.8904 23.509 30.0192 23.7995 30.2533L31.6742 25.7299C31.6742 25.6769 31.6742 25.6298 31.6742 25.5768C31.6742 25.5238 31.6742 25.512 31.6742 25.4825L23.5816 21.1888C23.3344 21.3256 23.0571 21.3985 22.7747 21.4009C22.4376 21.4028 22.1083 21.2999 21.8323 21.1064L13.8516 25.2293C13.8776 25.3413 13.8914 25.4559 13.8928 25.5709C13.8914 25.6499 13.8835 25.7287 13.8692 25.8065Z" fill="white"/>
<path d="M32.279 15.6995L24.4338 19.7576C24.434 19.8627 24.4221 19.9674 24.3984 20.0698L32.3144 24.2633C32.6026 24.0396 32.9567 23.9175 33.3215 23.9158C33.6674 23.9158 34.0041 24.0273 34.2816 24.2339L42.1268 19.7281L34.0342 15.6995C33.7716 15.8713 33.4646 15.9628 33.1507 15.9628C32.8369 15.9628 32.5299 15.8713 32.2673 15.6995H32.279Z" fill="white"/>
<path d="M21.6041 18.5796C21.8977 18.2741 22.2976 18.0932 22.7208 18.0746C23.1441 18.056 23.5584 18.2009 23.8776 18.4795L31.5344 14.5215C31.5344 14.4862 31.5344 14.4567 31.5344 14.4273L23.8364 10.5989C23.5413 10.8377 23.1735 10.9686 22.7939 10.97C22.4159 10.9696 22.0496 10.8385 21.7573 10.5989L13.9297 14.5039L21.6041 18.5796Z" fill="white"/>
<path d="M3.32812 19.952L11.1675 24.3104C11.4169 24.0932 11.7274 23.9584 12.0564 23.9247C12.3854 23.8909 12.7168 23.9598 13.0051 24.122L21.1272 19.9166L13.2348 15.7289C12.968 15.9384 12.6425 16.0595 12.3036 16.0753C11.9648 16.0911 11.6294 16.0009 11.3442 15.8173L3.36935 19.7694C3.35958 19.8311 3.3458 19.892 3.32812 19.952Z" fill="white"/>
<path d="M3.37627 30.8953C3.37919 30.9424 3.37919 30.9896 3.37627 31.0366L11.2451 35.4776C11.3507 35.3928 11.4653 35.3197 11.5867 35.2597V27.0846C11.2974 26.9526 11.052 26.7404 10.8797 26.4731C10.7075 26.2059 10.6155 25.8948 10.6149 25.5768L2.65182 21.1417C2.56719 21.207 2.47406 21.2605 2.375 21.3007V29.3875C2.67028 29.5144 2.9222 29.7246 3.10001 29.9924C3.27782 30.2601 3.37381 30.5739 3.37627 30.8953Z" fill="#002DA3"/>
<path d="M11.5435 46.4503V38.2752C11.2542 38.1433 11.0088 37.9311 10.8366 37.6638C10.6643 37.3965 10.5724 37.0854 10.5717 36.7674C10.5717 36.7674 10.5717 36.7262 10.5717 36.7085L2.65579 32.2323C2.56603 32.2994 2.46926 32.3567 2.36719 32.4031V40.4898C2.66402 40.6153 2.9176 40.8249 3.09659 41.0929C3.27558 41.3608 3.37214 41.6754 3.37435 41.9976C3.37699 42.0408 3.37699 42.084 3.37435 42.1272L11.3138 46.6094C11.3843 46.548 11.4613 46.4946 11.5435 46.4503Z" fill="#002DA3"/>
<path d="M22.0923 44.1592C21.803 44.0289 21.5575 43.8178 21.3851 43.5514C21.2127 43.285 21.1209 42.9746 21.1205 42.6573L13.1398 38.1516C13.0705 38.1984 12.9976 38.2398 12.9219 38.2752V46.4503C13.2116 46.5817 13.4574 46.7937 13.6298 47.0611C13.8021 47.3286 13.8938 47.64 13.8937 47.9581C13.8937 47.9994 13.8937 48.0406 13.8937 48.0818L21.7154 52.5051C21.8328 52.4032 21.9636 52.318 22.1041 52.2518L22.0923 44.1592Z" fill="#002DA3"/>
<path d="M13.8937 36.7675C13.8998 36.84 13.8998 36.9129 13.8937 36.9854L21.7154 41.4027C21.8369 41.3007 21.9716 41.2155 22.1159 41.1495V33.0569C21.8261 32.9255 21.5804 32.7135 21.408 32.446C21.2356 32.1786 21.144 31.8672 21.1441 31.5491C21.1409 31.5059 21.1409 31.4626 21.1441 31.4195L13.128 26.9727C13.0613 27.0134 12.9925 27.0508 12.9219 27.0846V35.2597C13.2112 35.3916 13.4566 35.6038 13.6288 35.8711C13.8011 36.1384 13.893 36.4495 13.8937 36.7675Z" fill="#002DA3"/>
<path d="M34.9659 25.4236C34.9659 25.4766 34.9659 25.5238 34.9659 25.5768C34.9658 25.8941 34.8747 26.2048 34.7036 26.472C34.5324 26.7392 34.2882 26.9518 34 27.0846V35.2597C34.0471 35.2816 34.0924 35.3072 34.1355 35.3362L42.1986 30.7068C42.1993 30.3888 42.2912 30.0777 42.4635 29.8104C42.6358 29.5432 42.8811 29.3309 43.1705 29.199V21.3007C42.9959 21.2233 42.8364 21.1157 42.6993 20.9827L34.9659 25.4236Z" fill="#F7423A"/>
<path d="M24.4285 31.4784C24.4285 31.4784 24.4285 31.5255 24.4285 31.5491C24.4273 31.8549 24.3413 32.1544 24.1801 32.4143C24.019 32.6742 23.789 32.8844 23.5156 33.0215V41.1789L23.7335 41.3085L31.6436 36.738C31.6458 36.4219 31.7385 36.113 31.9107 35.8478C32.0829 35.5827 32.3275 35.3725 32.6154 35.242V27.0846C32.5193 27.0386 32.4267 26.9854 32.3386 26.9255L24.4285 31.4784Z" fill="#F7423A"/>
<path d="M32.6371 46.4503V38.2752C32.4938 38.2049 32.3594 38.1179 32.2365 38.0161L24.4207 42.5041C24.4236 42.5532 24.4236 42.6023 24.4207 42.6514C24.4206 42.9582 24.3351 43.2589 24.1739 43.52C24.0127 43.7811 23.7821 43.9922 23.5078 44.1297V52.2872C23.5756 52.3166 23.6407 52.3521 23.7022 52.3932L31.6593 47.8227C31.6826 47.5268 31.7859 47.2428 31.9581 47.0011C32.1303 46.7594 32.365 46.569 32.6371 46.4503Z" fill="#F7423A"/>
<path d="M34.9483 36.4553C34.9573 36.5591 34.9573 36.6636 34.9483 36.7674C34.9497 37.0829 34.8613 37.3922 34.6933 37.6592C34.5254 37.9262 34.2849 38.1399 34 38.2752V46.4503H34.0353L42.2163 41.7385C42.2134 41.6875 42.2134 41.6363 42.2163 41.5853C42.2166 41.268 42.3085 40.9575 42.4809 40.6912C42.6533 40.4248 42.8988 40.2137 43.1881 40.0834V32.2146C43.0463 32.1449 42.9138 32.0579 42.7935 31.9554L34.9483 36.4553Z" fill="#F7423A"/>
<path d="M23.4688 52.2518L23.5276 52.2871V44.1297H23.4688V52.2518Z" fill="#F7423A"/>
<path d="M23.4688 41.1495C23.49 41.1557 23.51 41.1656 23.5276 41.1789V33.0215L23.4688 33.051V41.1495Z" fill="#F7423A"/>
<path d="M45.5292 19.7929C45.5276 19.3535 45.352 18.9325 45.0406 18.6223C44.7293 18.3121 44.3078 18.1379 43.8683 18.1379C43.506 18.1383 43.154 18.2584 42.867 18.4795L42.8081 18.5266L34.7979 14.5451C34.8037 14.4627 34.8037 14.3801 34.7979 14.2977C34.8011 14.2605 34.8011 14.223 34.7979 14.1858C34.7829 13.9042 34.6955 13.6312 34.544 13.3934C34.3926 13.1555 34.1822 12.9607 33.9334 12.828C33.6846 12.6953 33.4057 12.6291 33.1237 12.6359C32.8418 12.6426 32.5664 12.722 32.3242 12.8665C32.1921 12.9415 32.0712 13.0347 31.9649 13.1433L24.4318 9.39149C24.4318 9.39149 24.4318 9.35615 24.4318 9.33848C24.4298 8.93073 24.2778 8.53799 24.0048 8.23507C23.7319 7.93215 23.357 7.74021 22.9517 7.69582C22.5464 7.65143 22.1389 7.75769 21.8069 7.99436C21.4748 8.23103 21.2414 8.58157 21.1512 8.9792C21.1275 9.09749 21.1156 9.21784 21.1158 9.33848V9.39149L13.4178 13.2258L13.3295 13.1787C13.0911 12.9661 12.7963 12.8271 12.4806 12.7783C12.1649 12.7296 11.8419 12.7732 11.5505 12.904C11.2591 13.0348 11.0118 13.2471 10.8383 13.5153C10.6649 13.7835 10.5727 14.0961 10.573 14.4155C10.5669 14.488 10.5669 14.5609 10.573 14.6334L9.98405 14.9279L2.73956 18.5325C2.55965 18.3791 2.34896 18.2661 2.12168 18.2009C1.8944 18.1358 1.6558 18.1202 1.42196 18.155C1.18811 18.1898 0.964445 18.2743 0.766013 18.4029C0.567581 18.5314 0.398992 18.701 0.271594 18.9001C0.144196 19.0993 0.0609484 19.3235 0.0274547 19.5575C-0.00603906 19.7915 0.010999 20.03 0.0774217 20.2569C0.143844 20.4838 0.25811 20.6939 0.412525 20.8729C0.566941 21.0519 0.757921 21.1958 0.97261 21.2948V29.3875C0.682691 29.5187 0.436749 29.7307 0.264248 29.9981C0.0917461 30.2656 0 30.577 0 30.8953C0 31.2135 0.0917461 31.525 0.264248 31.7924C0.436749 32.0598 0.682691 32.2719 0.97261 32.4031V40.4898C0.761489 40.5857 0.572883 40.725 0.419019 40.8985C0.265155 41.072 0.149468 41.2758 0.0794567 41.4969C0.00944516 41.718 -0.0133279 41.9513 0.0126141 42.1818C0.038556 42.4122 0.112634 42.6346 0.230045 42.8346C0.347457 43.0345 0.505581 43.2076 0.694168 43.3426C0.882755 43.4775 1.09759 43.5713 1.32476 43.6179C1.55193 43.6645 1.78635 43.6628 2.01282 43.613C2.2393 43.5632 2.45279 43.4663 2.63943 43.3287L10.5613 47.805C10.558 47.856 10.558 47.9071 10.5613 47.9581C10.5626 48.2646 10.6487 48.5647 10.81 48.8253C10.9714 49.0858 11.2017 49.2967 11.4754 49.4345C11.7492 49.5723 12.0557 49.6316 12.3611 49.606C12.6665 49.5803 12.9588 49.4707 13.2058 49.2892L21.11 53.7478C21.0965 53.9739 21.1294 54.2003 21.2066 54.4132C21.2838 54.626 21.4038 54.8208 21.559 54.9857C21.7143 55.1505 21.9017 55.2818 22.1096 55.3716C22.3174 55.4613 22.5415 55.5076 22.7679 55.5076C22.9944 55.5076 23.2184 55.4613 23.4263 55.3716C23.6342 55.2818 23.8216 55.1505 23.9768 54.9857C24.1321 54.8208 24.2521 54.626 24.3293 54.4132C24.4065 54.2003 24.4394 53.9739 24.4259 53.7478C24.4291 53.687 24.4291 53.6261 24.4259 53.5652L32.1593 49.1243C32.3922 49.354 32.6877 49.5098 33.0089 49.5721C33.33 49.6345 33.6623 49.6006 33.9643 49.4748C34.2662 49.349 34.5243 49.1368 34.7061 48.8649C34.888 48.593 34.9855 48.2735 34.9864 47.9463C34.9854 47.8069 34.9656 47.6682 34.9275 47.5341L42.9082 42.9518C43.0958 43.0849 43.3091 43.1775 43.5345 43.2237C43.7599 43.2698 43.9925 43.2684 44.2173 43.2196C44.4421 43.1708 44.6543 43.0757 44.8403 42.9403C45.0263 42.8049 45.1821 42.6322 45.2976 42.4332C45.4131 42.2342 45.4859 42.0134 45.5112 41.7847C45.5366 41.556 45.514 41.3246 45.4449 41.1051C45.3758 40.8857 45.2617 40.6831 45.1099 40.5102C44.9581 40.3373 44.7719 40.198 44.5633 40.1011V32.2146C44.8532 32.0834 45.0991 31.8714 45.2716 31.6039C45.4441 31.3365 45.5359 31.025 45.5359 30.7068C45.5359 30.3886 45.4441 30.0771 45.2716 29.8097C45.0991 29.5422 44.8532 29.3302 44.5633 29.199V21.3007C44.8519 21.1685 45.0965 20.9561 45.2678 20.6888C45.439 20.4214 45.5298 20.1104 45.5292 19.7929ZM22.7768 10.9935C23.1564 10.9922 23.5242 10.8613 23.8193 10.6225L31.5173 14.4509C31.5173 14.4803 31.5173 14.5098 31.5173 14.5451L23.8723 18.4795C23.556 18.1979 23.1435 18.0488 22.7202 18.0631C22.297 18.0773 21.8955 18.2539 21.5988 18.5561L13.942 14.4803L21.7578 10.5989C22.0423 10.8432 22.402 10.9825 22.7768 10.9935ZM23.7191 52.3932C23.6576 52.3521 23.5926 52.3166 23.5248 52.2872L23.4659 52.2518V44.1592H23.5248C23.8072 44.0177 24.0433 43.7983 24.2051 43.5269C24.3668 43.2556 24.4476 42.9436 24.4377 42.6278C24.4406 42.5788 24.4406 42.5296 24.4377 42.4806L32.2358 38.0161C32.3587 38.1179 32.4931 38.2049 32.6364 38.2752V46.4503C32.3676 46.5715 32.1366 46.7629 31.9676 47.0045C31.7986 47.246 31.698 47.5287 31.6763 47.8227L23.7191 52.3932ZM2.37439 40.4898V32.4031C2.47647 32.3567 2.57323 32.2994 2.66299 32.2323L10.5789 36.738C10.5789 36.738 10.5789 36.7733 10.5789 36.7969C10.5796 37.1149 10.6715 37.426 10.8438 37.6933C11.0161 37.9605 11.2614 38.1728 11.5508 38.3047V46.4503C11.4541 46.4918 11.3631 46.5452 11.2798 46.6094L3.33443 42.1272C3.33708 42.084 3.33708 42.0408 3.33443 41.9976C3.33626 41.6806 3.24668 41.3698 3.07641 41.1024C2.90614 40.8349 2.66241 40.6223 2.37439 40.4898ZM2.37439 21.3007C2.47345 21.2605 2.56658 21.207 2.65121 21.1417L10.5789 25.5473C10.5796 25.8653 10.6715 26.1764 10.8438 26.4437C11.0161 26.711 11.2614 26.9232 11.5508 27.0551V35.2596C11.4293 35.3197 11.3148 35.3927 11.2091 35.4776L3.33443 31.0366C3.33735 30.9896 3.33735 30.9423 3.33443 30.8953C3.3345 30.5771 3.24287 30.2657 3.07052 29.9983C2.89816 29.7309 2.65238 29.5188 2.36261 29.3875L2.37439 21.3007ZM12.9231 35.2596V27.0846C12.9937 27.0508 13.0625 27.0134 13.1292 26.9726L21.1335 31.4371C21.1303 31.4803 21.1303 31.5236 21.1335 31.5667C21.1334 31.8849 21.2251 32.1963 21.3974 32.4637C21.5698 32.7311 21.8156 32.9432 22.1053 33.0745V41.1495C21.9611 41.2155 21.8263 41.3007 21.7048 41.4027L13.8831 36.9854C13.8892 36.9128 13.8892 36.84 13.8831 36.7674C13.8835 36.4507 13.7933 36.1405 13.6232 35.8734C13.4531 35.6062 13.2102 35.3933 12.9231 35.2596ZM22.7768 21.4244C23.0592 21.422 23.3366 21.3491 23.5837 21.2124L31.6469 25.4825C31.6469 25.4825 31.6469 25.5414 31.6469 25.5768C31.6469 25.6121 31.6469 25.6769 31.6469 25.7299L23.8016 30.2592C23.5111 30.025 23.1499 29.8963 22.7768 29.894C22.4236 29.894 22.0801 30.0099 21.7991 30.2238L13.8713 25.8065C13.8774 25.73 13.8774 25.6532 13.8713 25.5768C13.87 25.4617 13.8561 25.3472 13.8301 25.2351L21.8108 21.1123C22.0912 21.3168 22.4297 21.4261 22.7768 21.4244ZM23.7427 41.3321L23.5248 41.2025C23.5071 41.1892 23.4871 41.1792 23.4659 41.173V33.051L23.5248 33.0215C23.7981 32.8844 24.0282 32.6742 24.1893 32.4143C24.3505 32.1544 24.4364 31.8549 24.4377 31.549C24.4377 31.549 24.4377 31.5019 24.4377 31.4784L32.3654 26.9255C32.4536 26.9854 32.5461 27.0386 32.6422 27.0846V35.2596C32.3526 35.3854 32.1049 35.5914 31.9286 35.8534C31.7522 36.1153 31.6544 36.4223 31.6469 36.738L23.7427 41.3321ZM34.0028 46.4503V38.2752C34.2921 38.1433 34.5375 37.9311 34.7098 37.6638C34.882 37.3965 34.974 37.0854 34.9746 36.7674C34.9836 36.6636 34.9836 36.5591 34.9746 36.4553L42.8081 31.9554C42.9284 32.0579 43.0609 32.1449 43.2027 32.2146V40.1129C42.9134 40.2432 42.6678 40.4542 42.4955 40.7206C42.3231 40.987 42.2312 41.2975 42.2309 41.6148C42.228 41.6658 42.228 41.7169 42.2309 41.7679L34.0499 46.4798L34.0028 46.4503ZM42.2073 30.7068L34.1442 35.3362C34.101 35.3072 34.0558 35.2816 34.0087 35.2596V27.0846C34.298 26.9526 34.5434 26.7404 34.7157 26.4731C34.8879 26.2059 34.9799 25.8947 34.9805 25.5768C34.9805 25.5237 34.9805 25.4766 34.9805 25.4236L42.7198 20.9827C42.8568 21.1157 43.0164 21.2233 43.1909 21.3007V29.199C42.8994 29.3292 42.6516 29.5407 42.4771 29.8081C42.3027 30.0755 42.209 30.3875 42.2073 30.7068ZM34.2855 24.228C34.008 24.0215 33.6714 23.9099 33.3255 23.9099C32.9606 23.9116 32.6065 24.0338 32.3183 24.2574L24.4024 20.0698C24.4261 19.9674 24.4379 19.8627 24.4377 19.7576L32.283 15.6995C32.5456 15.8713 32.8526 15.9628 33.1664 15.9628C33.4803 15.9628 33.7873 15.8713 34.0499 15.6995L42.1308 19.7281L34.2855 24.228ZM12.2104 16.047C12.5756 16.0471 12.9302 15.9248 13.2176 15.6995L21.11 19.8872L13.0114 24.122C12.7231 23.9598 12.3917 23.8909 12.0627 23.9247C11.7337 23.9584 11.4232 24.0932 11.1738 24.3104L3.33443 19.952C3.33736 19.899 3.33736 19.8459 3.33443 19.7929L11.3387 15.8114C11.6011 15.971 11.9034 16.0527 12.2104 16.047ZM12.8995 46.4503V38.2752C12.9753 38.2398 13.0482 38.1984 13.1174 38.1516L21.0982 42.6573C21.0985 42.9746 21.1904 43.285 21.3627 43.5514C21.5351 43.8178 21.7807 44.0289 22.07 44.1592V52.2518C21.9294 52.318 21.7986 52.4032 21.6813 52.5051L13.8831 48.0818C13.8831 48.0406 13.8831 47.9994 13.8831 47.9581C13.8842 47.6413 13.7943 47.3307 13.6242 47.0635C13.454 46.7962 13.2107 46.5834 12.9231 46.4503H12.8995Z" fill="#121239"/>
<path d="M63.7717 24.9937H58.8125V36.0607H61.0978V32.1616H63.8483C64.5922 32.1787 65.33 32.0235 66.004 31.7081C66.5887 31.4254 67.0736 30.9714 67.394 30.4064C67.7245 29.8255 67.8933 29.1665 67.8828 28.4981C67.9092 28.0149 67.8271 27.532 67.6426 27.0846C67.4582 26.6372 67.176 26.2367 66.8168 25.9125C65.9447 25.2511 64.8641 24.925 63.7717 24.9937ZM65.0498 29.9058C64.6364 30.2436 64.1101 30.412 63.5774 30.377H61.0978V26.796H63.5008C64.8712 26.796 65.5564 27.385 65.5564 28.5629C65.5706 28.8097 65.5328 29.0568 65.4456 29.2881C65.3583 29.5194 65.2235 29.7299 65.0498 29.9058Z" fill="#121239"/>
<path d="M72.8967 31.3488H78.8101V29.5642H72.8967V26.7783H79.293V24.9937H70.5938V36.0548H79.6052V34.276H72.8967V31.3488Z" fill="#121239"/>
<path d="M102.202 24.9937L98.2031 36.0607H100.506L101.466 33.2041H105.689L106.661 36.0371H108.964L104.935 24.9701L102.202 24.9937ZM101.99 31.4725C102.815 29.0694 103.268 27.7501 103.339 27.5086C103.41 27.2672 103.469 27.0551 103.522 26.8608L103.557 26.6841L103.734 27.2318L104.064 28.2979L105.165 31.4725H101.99Z" fill="#121239"/>
<path d="M109.039 26.7783H112.62V36.0548H114.929V26.7783H118.51V24.9937H109.039V26.7783Z" fill="#121239"/>
<path d="M123.473 31.3488H129.38V29.5642H123.473V26.7783H129.863V24.9937H121.164V36.0548H130.176V34.276H123.473V31.3488Z" fill="#121239"/>
<path d="M136.607 24.9937L132.578 36.0606H134.881C134.881 36.0606 137.873 27.0669 137.926 26.8725L137.961 26.6958L141.065 36.0606H143.368L139.34 24.9937H136.607Z" fill="#121239"/>
<path d="M154.529 30.642C154.203 30.0794 153.717 29.6263 153.133 29.3403C152.461 29.025 151.725 28.8698 150.983 28.8868H148.262V24.9937H145.906V36.0606H150.871C151.969 36.1322 153.055 35.8036 153.928 35.1359C154.289 34.8128 154.572 34.4125 154.756 33.9648C154.941 33.5172 155.022 33.0337 154.994 32.5503C155.012 31.8841 154.852 31.2252 154.529 30.642ZM150.618 34.2584H148.262V30.6715H150.724C151.256 30.6399 151.781 30.8079 152.197 31.1426C152.377 31.3197 152.516 31.5333 152.607 31.769C152.697 32.0047 152.736 32.2571 152.721 32.5091C152.691 33.6753 152.002 34.2584 150.618 34.2584Z" fill="#121239"/>
<path d="M93.4534 34.2937L90.2376 34.2996V24.9996H87.9346V34.2996L84.7482 34.2878V24.9878H82.4453V36.0666H95.7504V24.9878L93.4534 24.9937V34.2937Z" fill="#121239"/>
</svg>
