<svg width="181" height="63" viewBox="0 0 181 63" fill="none" xmlns="http://www.w3.org/2000/svg">
<path d="M60.3584 34.0603H69.597L64.712 26.0444L55.7464 40.5373H51.666L62.571 23.1283C63.0453 22.4249 63.8355 22 64.7118 22C65.5595 22 66.3499 22.4103 66.8096 23.0989L77.7581 40.5373H73.6777L71.7523 37.2988H62.3988L60.3584 34.0603ZM102.744 37.2988V22.1757H99.2812V38.7787C99.2812 39.233 99.4537 39.6727 99.7841 40.0097C100.115 40.3467 100.56 40.5373 101.048 40.5373H116.839L118.879 37.2988H102.744ZM45.459 34.5878C48.8211 34.5878 51.551 31.818 51.551 28.3892C51.551 24.9601 48.8211 22.1757 45.459 22.1757H30.3108V40.5373H33.772V25.4142H45.229C46.8383 25.4142 48.1314 26.7479 48.1314 28.3892C48.1314 30.0302 46.8383 31.3639 45.229 31.3639L35.4675 31.3493L45.8038 40.5373H50.8326L43.8784 34.5878H45.459ZM9.0029 40.537C4.03318 40.537 0 36.434 0 31.3637C0 26.2934 4.03318 22.1757 9.0029 22.1757H19.4671C24.4384 22.1757 28.4686 26.2934 28.4686 31.3637C28.4686 36.434 24.4386 40.537 19.4673 40.537H9.0029ZM19.2341 37.2985C22.4544 37.2985 25.062 34.6462 25.062 31.3637C25.062 28.0811 22.4544 25.4142 19.2346 25.4142H9.23448C6.01603 25.4142 3.40685 28.0813 3.40685 31.3639C3.40685 34.6464 6.01603 37.2988 9.23448 37.2988L19.2341 37.2985ZM84.985 40.537C80.0134 40.537 75.9764 36.434 75.9764 31.3637C75.9764 26.2934 80.0134 22.1757 84.985 22.1757H97.4131L95.3871 25.414H85.2147C81.9963 25.414 79.3814 28.0811 79.3814 31.3637C79.3814 34.6462 81.9963 37.2985 85.2147 37.2985H97.7004L95.6603 40.537H84.985ZM127.327 37.2985C124.669 37.2985 122.413 35.4813 121.724 32.9757H136.523L138.563 29.737H121.724C122.414 27.2458 124.669 25.4142 127.327 25.4142H137.485L139.54 22.1755H127.098C122.126 22.1755 118.089 26.2934 118.089 31.3634C118.089 36.434 122.126 40.537 127.098 40.537H137.773L139.813 37.2985H127.327ZM141.394 24.1248C141.393 23.9129 141.433 23.703 141.513 23.5072C141.592 23.3113 141.708 23.1333 141.855 22.9835C142.002 22.8337 142.176 22.715 142.368 22.6342C142.56 22.5534 142.766 22.5121 142.974 22.5127C143.865 22.5127 144.569 23.2308 144.569 24.1248C144.569 25.0334 143.865 25.7514 142.974 25.7514C142.097 25.7514 141.394 25.0334 141.394 24.1248ZM142.974 26.2055C144.095 26.2055 145 25.2823 145 24.1394C145 22.9964 144.095 22.0732 142.974 22.0732C141.868 22.0732 140.963 22.9964 140.963 24.1394C140.963 25.2823 141.868 26.2055 142.974 26.2055ZM142.787 22.9084C143.103 22.9084 143.233 22.9232 143.376 22.9816C143.779 23.1137 143.822 23.4799 143.822 23.6264C143.822 23.6559 143.822 23.7291 143.793 23.817C143.779 23.905 143.721 24.0807 143.52 24.2126C143.491 24.2272 143.477 24.2421 143.419 24.2713L143.937 25.2239H143.434L142.974 24.3445H142.658V25.2239H142.213V22.9084H142.787ZM142.945 23.9635C143.089 23.9489 143.233 23.9489 143.319 23.817C143.362 23.7583 143.376 23.6997 143.376 23.6118C143.376 23.4946 143.304 23.3921 143.204 23.3335C143.103 23.2894 143.003 23.2894 142.787 23.2894H142.658V23.9635H142.945Z" fill="#F80000"/>
</svg>
