<svg width="181" height="63" viewBox="0 0 181 63" fill="none" xmlns="http://www.w3.org/2000/svg">
<path fill-rule="evenodd" clip-rule="evenodd" d="M94 47.481V49.9396H81.7632V47.481H94ZM64.6316 47.481V49.9396H52.3947V47.481H64.6316ZM74.179 47.481L73.1946 49.9396L72.2231 47.481H74.179ZM46.7658 47.481C45.0101 49.0078 42.6943 49.9396 40.1089 49.9396H20.5789V47.481H46.7658ZM18.1316 47.481V49.9396H1V47.481H18.1316ZM64.6316 42.5638V45.0224H52.3947V42.5638H64.6316ZM76.0925 42.5638L75.1398 45.0224H71.2651L70.3053 42.5638H76.0925ZM49.2132 42.5638C48.9922 43.4379 48.6393 44.2634 48.1853 45.0224H20.5789V42.5638H49.2132ZM18.1316 42.5638V45.0224H1V42.5638H18.1316ZM94 42.5638V45.0224H81.7632V42.5638H94ZM89.1053 37.6465V40.1052H81.7632V37.6465H89.1053ZM64.6316 37.6465V40.1052H57.2895V37.6465H64.6316ZM78.0125 37.6465L77.0509 40.1052H69.3444L68.3753 37.6465H78.0125ZM48.8705 37.6465C49.0905 38.4304 49.2132 39.2538 49.2132 40.1052H40.1579V37.6465H48.8705ZM32.8158 37.6465V40.1052H25.4737V37.6465H32.8158ZM13.2368 37.6465V40.1052H5.89474V37.6465H13.2368ZM89.1053 32.7293V35.1879H81.7632V32.7293H89.1053ZM64.6316 32.7293V35.1879H57.2895V32.7293H64.6316ZM79.9302 32.7293L78.9732 35.1879H67.3971L66.4476 32.7293H79.9302ZM45.8603 32.7293C46.7043 33.4233 47.4312 34.255 47.9895 35.1879H25.4737V32.7293H45.8603ZM13.2368 32.7293V35.1879H5.89474V32.7293H13.2368ZM72.5118 27.8121L73.1974 29.7993L73.8824 27.8121H89.1053V30.2707H81.7632V28.0114L80.9311 30.2707H65.4392L64.6316 28.0112V30.2707H57.2895V27.8121H72.5118ZM13.2368 27.8121V30.2707H5.89474V27.8121H13.2368ZM47.9895 27.8121C47.4312 28.745 46.7043 29.5765 45.8603 30.2707H25.4737V27.8121H47.9895ZM89.1053 22.8948V25.3534H74.7315L75.5979 22.8948H89.1053ZM70.805 22.8948L71.6713 25.3534H57.2895V22.8948H70.805ZM49.2132 22.8948C49.2132 23.7459 49.0905 24.5694 48.8705 25.3534H40.1579V22.8948H49.2132ZM32.8158 22.8948V25.3534H25.4737V22.8948H32.8158ZM13.2368 22.8948V25.3534H5.89474V22.8948H13.2368ZM69.1103 17.9776L69.961 20.4362H52.395L52.3947 17.9776H69.1103ZM94 17.9776V20.4362H76.4247L77.3087 17.9776H94ZM48.1853 17.9776C48.6393 18.7366 48.9922 19.562 49.2132 20.4362H20.5789V17.9776H48.1853ZM18.1316 17.9776V20.4362H1V17.9776H18.1316ZM67.3919 13.0603L68.2587 15.519H52.395L52.3947 13.0603H67.3919ZM94 13.0603V15.519H78.1561L79.0024 13.0603H94ZM40.1089 13.0603C42.6756 13.0603 45.0103 13.9922 46.7658 15.519H20.5789V13.0603H40.1089ZM18.1316 13.0603V15.519H1V13.0603H18.1316Z" fill="#1F70C1"/>
</svg>
